G04 (created by PCBNEW (2013-jul-07)-stable) date nie, 17 kwi 2016, 11:46:30*
%MOIN*%
G04 Gerber Fmt 3.4, Leading zero omitted, Abs format*
%FSLAX34Y34*%
G01*
G70*
G90*
G04 APERTURE LIST*
%ADD10C,0.001*%
%ADD11R,0.055148X0.114148*%
%ADD12R,0.114148X0.055148*%
%ADD13R,0.070748X0.050748*%
%ADD14R,0.050748X0.070748*%
%ADD15R,0.078748X0.078748*%
%ADD16C,0.082648*%
%ADD17R,0.074848X0.074848*%
%ADD18C,0.085748*%
%ADD19R,0.060748X0.035748*%
%ADD20R,0.133858X0.0551181*%
%ADD21R,0.077748X0.105748*%
%ADD22O,0.077748X0.105748*%
%ADD23C,0.141732*%
%ADD24R,0.0629921X0.025548*%
%ADD25R,0.0629921X0.025648*%
%ADD26R,0.025548X0.0629921*%
%ADD27R,0.025648X0.0629921*%
G04 APERTURE END LIST*
G54D10*
G54D11*
X9050Y-13337D03*
X9050Y-11763D03*
G54D12*
X11013Y-6850D03*
X12587Y-6850D03*
G54D13*
X15800Y-8975D03*
X15800Y-8225D03*
G54D14*
X17125Y-18300D03*
X16375Y-18300D03*
G54D13*
X14800Y-8975D03*
X14800Y-8225D03*
X13800Y-8975D03*
X13800Y-8225D03*
X14800Y-7575D03*
X14800Y-6825D03*
G54D14*
X10375Y-17950D03*
X11125Y-17950D03*
G54D13*
X16400Y-11975D03*
X16400Y-11225D03*
X15800Y-7575D03*
X15800Y-6825D03*
X6500Y-8275D03*
X6500Y-7525D03*
X6500Y-8925D03*
X6500Y-9675D03*
X10400Y-13375D03*
X10400Y-12625D03*
G54D14*
X8325Y-10600D03*
X9075Y-10600D03*
X10825Y-10100D03*
X11575Y-10100D03*
X11575Y-9200D03*
X10825Y-9200D03*
X10825Y-8200D03*
X11575Y-8200D03*
X12275Y-8200D03*
X13025Y-8200D03*
X17625Y-17500D03*
X16875Y-17500D03*
G54D13*
X12000Y-14425D03*
X12000Y-13675D03*
X17000Y-13275D03*
X17000Y-12525D03*
X13900Y-11325D03*
X13900Y-12075D03*
X11250Y-13675D03*
X11250Y-14425D03*
G54D14*
X16375Y-16700D03*
X17125Y-16700D03*
G54D13*
X13800Y-7575D03*
X13800Y-6825D03*
G54D14*
X12125Y-16350D03*
X11375Y-16350D03*
G54D13*
X15600Y-11225D03*
X15600Y-11975D03*
G54D14*
X14825Y-17950D03*
X14075Y-17950D03*
X11775Y-17950D03*
X12525Y-17950D03*
G54D15*
X18450Y-17950D03*
G54D16*
X19450Y-17950D03*
X20450Y-17950D03*
X21450Y-17950D03*
G54D17*
X9700Y-6700D03*
G54D16*
X8700Y-6700D03*
X7700Y-6700D03*
G54D17*
X13800Y-10100D03*
G54D16*
X14800Y-10100D03*
X15800Y-10100D03*
G54D17*
X6600Y-11300D03*
G54D16*
X6600Y-12300D03*
X6600Y-13300D03*
G54D17*
X22750Y-17950D03*
G54D16*
X23750Y-17950D03*
G54D18*
X13450Y-17950D03*
X15450Y-17950D03*
G54D19*
X9950Y-7950D03*
X9950Y-8450D03*
X9950Y-8950D03*
X9950Y-9450D03*
X7450Y-9450D03*
X7450Y-8950D03*
X7450Y-8450D03*
X7450Y-7950D03*
G54D20*
X18450Y-9944D03*
X18450Y-10731D03*
X18450Y-11518D03*
X18450Y-12306D03*
X18450Y-13093D03*
X18450Y-13881D03*
X18450Y-14668D03*
X18450Y-15455D03*
X24749Y-15455D03*
X24749Y-14668D03*
X24749Y-13881D03*
X24749Y-13093D03*
X24749Y-12306D03*
X24749Y-11518D03*
X24749Y-10731D03*
X24749Y-9944D03*
G54D21*
X9600Y-14800D03*
G54D22*
X8600Y-14800D03*
X7600Y-14800D03*
X6600Y-14800D03*
X6600Y-17800D03*
X7600Y-17800D03*
X8600Y-17800D03*
X9600Y-17800D03*
G54D23*
X25025Y-19150D03*
X7150Y-19125D03*
X17300Y-7350D03*
G54D24*
X12757Y-15832D03*
G54D25*
X12757Y-15635D03*
X12757Y-15438D03*
X12757Y-15242D03*
G54D24*
X12757Y-15045D03*
X12757Y-14848D03*
X12757Y-14651D03*
X12757Y-14454D03*
G54D25*
X12757Y-14257D03*
X12757Y-14061D03*
X12757Y-13864D03*
G54D24*
X12757Y-13667D03*
G54D26*
X13367Y-13057D03*
G54D27*
X13564Y-13057D03*
X13761Y-13057D03*
X13957Y-13057D03*
G54D26*
X14154Y-13057D03*
X14351Y-13057D03*
X14548Y-13057D03*
X14745Y-13057D03*
G54D27*
X14942Y-13057D03*
X15138Y-13057D03*
X15335Y-13057D03*
G54D26*
X15532Y-13057D03*
G54D24*
X16142Y-15832D03*
G54D25*
X16142Y-15645D03*
X16142Y-15438D03*
X16142Y-15242D03*
G54D24*
X16142Y-15045D03*
X16142Y-14848D03*
X16142Y-14651D03*
X16142Y-14454D03*
G54D25*
X16142Y-14257D03*
X16142Y-14061D03*
X16142Y-13864D03*
G54D24*
X16142Y-13667D03*
G54D26*
X13367Y-16442D03*
G54D27*
X13564Y-16442D03*
X13761Y-16442D03*
X13957Y-16442D03*
G54D26*
X14154Y-16442D03*
X14351Y-16442D03*
X14548Y-16442D03*
X14745Y-16442D03*
G54D27*
X14942Y-16442D03*
X15138Y-16442D03*
X15335Y-16442D03*
G54D26*
X15532Y-16442D03*
G54D14*
X19200Y-19025D03*
X18450Y-19025D03*
M02*
