M48
;DRILL file {Pcbnew (2013-jul-07)-stable} date nie, 17 kwi 2016, 11:45:50
;FORMAT={-:-/ absolute / inch / decimal}
FMAT,2
INCH,TZ
T1C0.012
T2C0.032
T3C0.126
%
G90
G05
M72
T1
X0.65Y-1.04
X0.78Y-1.07
X0.93Y-1.66
X1.01Y-1.685
X1.065Y-1.425
X1.19Y-1.48
X1.19Y-1.57
X1.225Y-1.695
X1.235Y-1.3
X1.275Y-1.735
X1.32Y-1.245
X1.34Y-1.385
X1.34Y-1.71
X1.345Y-1.54
X1.39Y-1.245
X1.405Y-1.58
X1.415Y-1.36
X1.49Y-1.16
X1.49Y-1.58
X1.495Y-1.36
X1.505Y-1.73
X1.52Y-1.23
X1.595Y-1.735
X1.605Y-1.315
X1.61Y-1.2625
X1.695Y-0.955
X1.695Y-1.015
X1.695Y-1.07
X1.7Y-1.45
X1.7Y-1.54
X1.735Y-1.19
X1.79Y-1.625
X1.96Y-1.47
X1.96Y-1.535
X2.005Y-1.23
X2.2Y-1.235
X2.215Y-1.465
X2.265Y-1.235
X2.335Y-1.15
X2.3525Y-1.3875
T2
X0.66Y-1.13
X0.66Y-1.23
X0.66Y-1.33
X0.66Y-1.48
X0.66Y-1.78
X0.76Y-1.48
X0.76Y-1.78
X0.77Y-0.67
X0.86Y-1.48
X0.86Y-1.78
X0.87Y-0.67
X0.96Y-1.48
X0.96Y-1.78
X0.97Y-0.67
X1.345Y-1.795
X1.38Y-1.01
X1.48Y-1.01
X1.545Y-1.795
X1.58Y-1.01
X1.845Y-1.795
X1.945Y-1.795
X2.045Y-1.795
X2.145Y-1.795
X2.275Y-1.795
X2.375Y-1.795
T3
X0.715Y-1.9125
X1.73Y-0.735
X2.5025Y-1.915
T0
M30
