G04 (created by PCBNEW (2013-jul-07)-stable) date nie, 17 kwi 2016, 11:46:30*
%MOIN*%
G04 Gerber Fmt 3.4, Leading zero omitted, Abs format*
%FSLAX34Y34*%
G01*
G70*
G90*
G04 APERTURE LIST*
%ADD10C,0.001*%
%ADD11C,0.011811*%
%ADD12C,0.008*%
%ADD13C,0.005*%
%ADD14C,0.006*%
%ADD15C,0.0001*%
%ADD16C,0.003*%
G04 APERTURE END LIST*
G54D10*
G54D11*
X24913Y-8554D02*
X24716Y-8554D01*
X24632Y-8864D02*
X24913Y-8864D01*
X24913Y-8273D01*
X24632Y-8273D01*
X24407Y-8835D02*
X24322Y-8864D01*
X24182Y-8864D01*
X24126Y-8835D01*
X24098Y-8807D01*
X24069Y-8751D01*
X24069Y-8695D01*
X24098Y-8639D01*
X24126Y-8610D01*
X24182Y-8582D01*
X24294Y-8554D01*
X24351Y-8526D01*
X24379Y-8498D01*
X24407Y-8442D01*
X24407Y-8385D01*
X24379Y-8329D01*
X24351Y-8301D01*
X24294Y-8273D01*
X24154Y-8273D01*
X24069Y-8301D01*
X23816Y-8864D02*
X23816Y-8273D01*
X23591Y-8273D01*
X23535Y-8301D01*
X23507Y-8329D01*
X23479Y-8385D01*
X23479Y-8470D01*
X23507Y-8526D01*
X23535Y-8554D01*
X23591Y-8582D01*
X23816Y-8582D01*
X23141Y-8526D02*
X23198Y-8498D01*
X23226Y-8470D01*
X23254Y-8414D01*
X23254Y-8385D01*
X23226Y-8329D01*
X23198Y-8301D01*
X23141Y-8273D01*
X23029Y-8273D01*
X22973Y-8301D01*
X22945Y-8329D01*
X22916Y-8385D01*
X22916Y-8414D01*
X22945Y-8470D01*
X22973Y-8498D01*
X23029Y-8526D01*
X23141Y-8526D01*
X23198Y-8554D01*
X23226Y-8582D01*
X23254Y-8639D01*
X23254Y-8751D01*
X23226Y-8807D01*
X23198Y-8835D01*
X23141Y-8864D01*
X23029Y-8864D01*
X22973Y-8835D01*
X22945Y-8807D01*
X22916Y-8751D01*
X22916Y-8639D01*
X22945Y-8582D01*
X22973Y-8554D01*
X23029Y-8526D01*
X22691Y-8329D02*
X22663Y-8301D01*
X22607Y-8273D01*
X22466Y-8273D01*
X22410Y-8301D01*
X22382Y-8329D01*
X22354Y-8385D01*
X22354Y-8442D01*
X22382Y-8526D01*
X22720Y-8864D01*
X22354Y-8864D01*
X21848Y-8273D02*
X21960Y-8273D01*
X22017Y-8301D01*
X22045Y-8329D01*
X22101Y-8414D01*
X22129Y-8526D01*
X22129Y-8751D01*
X22101Y-8807D01*
X22073Y-8835D01*
X22017Y-8864D01*
X21904Y-8864D01*
X21848Y-8835D01*
X21820Y-8807D01*
X21792Y-8751D01*
X21792Y-8610D01*
X21820Y-8554D01*
X21848Y-8526D01*
X21904Y-8498D01*
X22017Y-8498D01*
X22073Y-8526D01*
X22101Y-8554D01*
X22129Y-8610D01*
X21285Y-8273D02*
X21398Y-8273D01*
X21454Y-8301D01*
X21482Y-8329D01*
X21538Y-8414D01*
X21567Y-8526D01*
X21567Y-8751D01*
X21538Y-8807D01*
X21510Y-8835D01*
X21454Y-8864D01*
X21342Y-8864D01*
X21285Y-8835D01*
X21257Y-8807D01*
X21229Y-8751D01*
X21229Y-8610D01*
X21257Y-8554D01*
X21285Y-8526D01*
X21342Y-8498D01*
X21454Y-8498D01*
X21510Y-8526D01*
X21538Y-8554D01*
X21567Y-8610D01*
X20976Y-8639D02*
X20526Y-8639D01*
X20301Y-8273D02*
X20160Y-8864D01*
X20048Y-8442D01*
X19936Y-8864D01*
X19795Y-8273D01*
X19345Y-8835D02*
X19401Y-8864D01*
X19514Y-8864D01*
X19570Y-8835D01*
X19598Y-8779D01*
X19598Y-8554D01*
X19570Y-8498D01*
X19514Y-8470D01*
X19401Y-8470D01*
X19345Y-8498D01*
X19317Y-8554D01*
X19317Y-8610D01*
X19598Y-8667D01*
X19064Y-8864D02*
X19064Y-8273D01*
X19064Y-8498D02*
X19008Y-8470D01*
X18895Y-8470D01*
X18839Y-8498D01*
X18811Y-8526D01*
X18783Y-8582D01*
X18783Y-8751D01*
X18811Y-8807D01*
X18839Y-8835D01*
X18895Y-8864D01*
X19008Y-8864D01*
X19064Y-8835D01*
X18192Y-8864D02*
X18389Y-8582D01*
X18529Y-8864D02*
X18529Y-8273D01*
X18304Y-8273D01*
X18248Y-8301D01*
X18220Y-8329D01*
X18192Y-8385D01*
X18192Y-8470D01*
X18220Y-8526D01*
X18248Y-8554D01*
X18304Y-8582D01*
X18529Y-8582D01*
X17686Y-8864D02*
X17686Y-8554D01*
X17714Y-8498D01*
X17770Y-8470D01*
X17883Y-8470D01*
X17939Y-8498D01*
X17686Y-8835D02*
X17742Y-8864D01*
X17883Y-8864D01*
X17939Y-8835D01*
X17967Y-8779D01*
X17967Y-8723D01*
X17939Y-8667D01*
X17883Y-8639D01*
X17742Y-8639D01*
X17686Y-8610D01*
X17151Y-8864D02*
X17151Y-8273D01*
X17151Y-8835D02*
X17208Y-8864D01*
X17320Y-8864D01*
X17376Y-8835D01*
X17405Y-8807D01*
X17433Y-8751D01*
X17433Y-8582D01*
X17405Y-8526D01*
X17376Y-8498D01*
X17320Y-8470D01*
X17208Y-8470D01*
X17151Y-8498D01*
X16870Y-8864D02*
X16870Y-8470D01*
X16870Y-8273D02*
X16898Y-8301D01*
X16870Y-8329D01*
X16842Y-8301D01*
X16870Y-8273D01*
X16870Y-8329D01*
X16505Y-8864D02*
X16561Y-8835D01*
X16589Y-8807D01*
X16617Y-8751D01*
X16617Y-8582D01*
X16589Y-8526D01*
X16561Y-8498D01*
X16505Y-8470D01*
X16420Y-8470D01*
X16364Y-8498D01*
X16336Y-8526D01*
X16308Y-8582D01*
X16308Y-8751D01*
X16336Y-8807D01*
X16364Y-8835D01*
X16420Y-8864D01*
X16505Y-8864D01*
X25574Y-9218D02*
X25433Y-9808D01*
X25321Y-9387D01*
X25208Y-9808D01*
X25068Y-9218D01*
X24843Y-9808D02*
X24843Y-9415D01*
X24843Y-9218D02*
X24871Y-9246D01*
X24843Y-9274D01*
X24815Y-9246D01*
X24843Y-9218D01*
X24843Y-9274D01*
X24365Y-9499D02*
X24562Y-9499D01*
X24562Y-9808D02*
X24562Y-9218D01*
X24280Y-9218D01*
X24055Y-9808D02*
X24055Y-9415D01*
X24055Y-9218D02*
X24083Y-9246D01*
X24055Y-9274D01*
X24027Y-9246D01*
X24055Y-9218D01*
X24055Y-9274D01*
X23352Y-9780D02*
X23268Y-9808D01*
X23127Y-9808D01*
X23071Y-9780D01*
X23043Y-9752D01*
X23015Y-9696D01*
X23015Y-9640D01*
X23043Y-9583D01*
X23071Y-9555D01*
X23127Y-9527D01*
X23240Y-9499D01*
X23296Y-9471D01*
X23324Y-9443D01*
X23352Y-9387D01*
X23352Y-9330D01*
X23324Y-9274D01*
X23296Y-9246D01*
X23240Y-9218D01*
X23099Y-9218D01*
X23015Y-9246D01*
X22762Y-9808D02*
X22762Y-9218D01*
X22762Y-9499D02*
X22424Y-9499D01*
X22424Y-9808D02*
X22424Y-9218D01*
X22031Y-9218D02*
X21918Y-9218D01*
X21862Y-9246D01*
X21806Y-9302D01*
X21777Y-9415D01*
X21777Y-9612D01*
X21806Y-9724D01*
X21862Y-9780D01*
X21918Y-9808D01*
X22031Y-9808D01*
X22087Y-9780D01*
X22143Y-9724D01*
X22171Y-9612D01*
X22171Y-9415D01*
X22143Y-9302D01*
X22087Y-9246D01*
X22031Y-9218D01*
X21524Y-9218D02*
X21524Y-9696D01*
X21496Y-9752D01*
X21468Y-9780D01*
X21412Y-9808D01*
X21299Y-9808D01*
X21243Y-9780D01*
X21215Y-9752D01*
X21187Y-9696D01*
X21187Y-9218D01*
X20990Y-9218D02*
X20653Y-9218D01*
X20821Y-9808D02*
X20821Y-9218D01*
X20203Y-9780D02*
X20259Y-9808D01*
X20371Y-9808D01*
X20428Y-9780D01*
X20456Y-9752D01*
X20484Y-9696D01*
X20484Y-9527D01*
X20456Y-9471D01*
X20428Y-9443D01*
X20371Y-9415D01*
X20259Y-9415D01*
X20203Y-9443D01*
X19696Y-9808D02*
X19696Y-9499D01*
X19725Y-9443D01*
X19781Y-9415D01*
X19893Y-9415D01*
X19950Y-9443D01*
X19696Y-9780D02*
X19753Y-9808D01*
X19893Y-9808D01*
X19950Y-9780D01*
X19978Y-9724D01*
X19978Y-9668D01*
X19950Y-9612D01*
X19893Y-9583D01*
X19753Y-9583D01*
X19696Y-9555D01*
X19443Y-9780D02*
X19387Y-9808D01*
X19275Y-9808D01*
X19218Y-9780D01*
X19190Y-9724D01*
X19190Y-9696D01*
X19218Y-9640D01*
X19275Y-9612D01*
X19359Y-9612D01*
X19415Y-9583D01*
X19443Y-9527D01*
X19443Y-9499D01*
X19415Y-9443D01*
X19359Y-9415D01*
X19275Y-9415D01*
X19218Y-9443D01*
X19022Y-9415D02*
X18797Y-9415D01*
X18937Y-9218D02*
X18937Y-9724D01*
X18909Y-9780D01*
X18853Y-9808D01*
X18797Y-9808D01*
X18150Y-9415D02*
X18150Y-10005D01*
X18150Y-9443D02*
X18094Y-9415D01*
X17981Y-9415D01*
X17925Y-9443D01*
X17897Y-9471D01*
X17869Y-9527D01*
X17869Y-9696D01*
X17897Y-9752D01*
X17925Y-9780D01*
X17981Y-9808D01*
X18094Y-9808D01*
X18150Y-9780D01*
X17531Y-9808D02*
X17587Y-9780D01*
X17616Y-9724D01*
X17616Y-9218D01*
X17053Y-9808D02*
X17053Y-9499D01*
X17081Y-9443D01*
X17137Y-9415D01*
X17250Y-9415D01*
X17306Y-9443D01*
X17053Y-9780D02*
X17109Y-9808D01*
X17250Y-9808D01*
X17306Y-9780D01*
X17334Y-9724D01*
X17334Y-9668D01*
X17306Y-9612D01*
X17250Y-9583D01*
X17109Y-9583D01*
X17053Y-9555D01*
X16828Y-9415D02*
X16687Y-9808D01*
X16547Y-9415D02*
X16687Y-9808D01*
X16744Y-9949D01*
X16772Y-9977D01*
X16828Y-10005D01*
X16097Y-9780D02*
X16153Y-9808D01*
X16266Y-9808D01*
X16322Y-9780D01*
X16350Y-9724D01*
X16350Y-9499D01*
X16322Y-9443D01*
X16266Y-9415D01*
X16153Y-9415D01*
X16097Y-9443D01*
X16069Y-9499D01*
X16069Y-9555D01*
X16350Y-9612D01*
X15816Y-9808D02*
X15816Y-9415D01*
X15816Y-9527D02*
X15788Y-9471D01*
X15759Y-9443D01*
X15703Y-9415D01*
X15647Y-9415D01*
X24604Y-10753D02*
X24604Y-10163D01*
X24379Y-10163D01*
X24322Y-10191D01*
X24294Y-10219D01*
X24266Y-10275D01*
X24266Y-10360D01*
X24294Y-10416D01*
X24322Y-10444D01*
X24379Y-10472D01*
X24604Y-10472D01*
X24013Y-10753D02*
X24013Y-10360D01*
X24013Y-10163D02*
X24041Y-10191D01*
X24013Y-10219D01*
X23985Y-10191D01*
X24013Y-10163D01*
X24013Y-10219D01*
X23648Y-10753D02*
X23704Y-10725D01*
X23732Y-10697D01*
X23760Y-10641D01*
X23760Y-10472D01*
X23732Y-10416D01*
X23704Y-10388D01*
X23648Y-10360D01*
X23563Y-10360D01*
X23507Y-10388D01*
X23479Y-10416D01*
X23451Y-10472D01*
X23451Y-10641D01*
X23479Y-10697D01*
X23507Y-10725D01*
X23563Y-10753D01*
X23648Y-10753D01*
X23282Y-10360D02*
X23057Y-10360D01*
X23198Y-10163D02*
X23198Y-10669D01*
X23169Y-10725D01*
X23113Y-10753D01*
X23057Y-10753D01*
X22860Y-10753D02*
X22860Y-10360D01*
X22860Y-10472D02*
X22832Y-10416D01*
X22804Y-10388D01*
X22748Y-10360D01*
X22691Y-10360D01*
X22073Y-10725D02*
X21988Y-10753D01*
X21848Y-10753D01*
X21792Y-10725D01*
X21763Y-10697D01*
X21735Y-10641D01*
X21735Y-10585D01*
X21763Y-10528D01*
X21792Y-10500D01*
X21848Y-10472D01*
X21960Y-10444D01*
X22017Y-10416D01*
X22045Y-10388D01*
X22073Y-10331D01*
X22073Y-10275D01*
X22045Y-10219D01*
X22017Y-10191D01*
X21960Y-10163D01*
X21820Y-10163D01*
X21735Y-10191D01*
X21482Y-10360D02*
X21482Y-10950D01*
X21482Y-10388D02*
X21426Y-10360D01*
X21313Y-10360D01*
X21257Y-10388D01*
X21229Y-10416D01*
X21201Y-10472D01*
X21201Y-10641D01*
X21229Y-10697D01*
X21257Y-10725D01*
X21313Y-10753D01*
X21426Y-10753D01*
X21482Y-10725D01*
X20723Y-10725D02*
X20779Y-10753D01*
X20892Y-10753D01*
X20948Y-10725D01*
X20976Y-10669D01*
X20976Y-10444D01*
X20948Y-10388D01*
X20892Y-10360D01*
X20779Y-10360D01*
X20723Y-10388D01*
X20695Y-10444D01*
X20695Y-10500D01*
X20976Y-10556D01*
X20442Y-10753D02*
X20442Y-10360D01*
X20442Y-10472D02*
X20414Y-10416D01*
X20385Y-10388D01*
X20329Y-10360D01*
X20273Y-10360D01*
X20076Y-10753D02*
X20076Y-10163D01*
X20020Y-10528D02*
X19851Y-10753D01*
X19851Y-10360D02*
X20076Y-10585D01*
X19345Y-10753D02*
X19345Y-10444D01*
X19373Y-10388D01*
X19429Y-10360D01*
X19542Y-10360D01*
X19598Y-10388D01*
X19345Y-10725D02*
X19401Y-10753D01*
X19542Y-10753D01*
X19598Y-10725D01*
X19626Y-10669D01*
X19626Y-10613D01*
X19598Y-10556D01*
X19542Y-10528D01*
X19401Y-10528D01*
X19345Y-10500D01*
X18642Y-10219D02*
X18614Y-10191D01*
X18558Y-10163D01*
X18417Y-10163D01*
X18361Y-10191D01*
X18333Y-10219D01*
X18304Y-10275D01*
X18304Y-10331D01*
X18333Y-10416D01*
X18670Y-10753D01*
X18304Y-10753D01*
X17939Y-10163D02*
X17883Y-10163D01*
X17826Y-10191D01*
X17798Y-10219D01*
X17770Y-10275D01*
X17742Y-10388D01*
X17742Y-10528D01*
X17770Y-10641D01*
X17798Y-10697D01*
X17826Y-10725D01*
X17883Y-10753D01*
X17939Y-10753D01*
X17995Y-10725D01*
X18023Y-10697D01*
X18051Y-10641D01*
X18080Y-10528D01*
X18080Y-10388D01*
X18051Y-10275D01*
X18023Y-10219D01*
X17995Y-10191D01*
X17939Y-10163D01*
X17180Y-10753D02*
X17517Y-10753D01*
X17348Y-10753D02*
X17348Y-10163D01*
X17405Y-10247D01*
X17461Y-10303D01*
X17517Y-10331D01*
X16645Y-10163D02*
X16927Y-10163D01*
X16955Y-10444D01*
X16927Y-10416D01*
X16870Y-10388D01*
X16730Y-10388D01*
X16673Y-10416D01*
X16645Y-10444D01*
X16617Y-10500D01*
X16617Y-10641D01*
X16645Y-10697D01*
X16673Y-10725D01*
X16730Y-10753D01*
X16870Y-10753D01*
X16927Y-10725D01*
X16955Y-10697D01*
X25068Y-11304D02*
X24955Y-11698D01*
X24843Y-11417D01*
X24730Y-11698D01*
X24618Y-11304D01*
X24449Y-11304D02*
X24337Y-11698D01*
X24224Y-11417D01*
X24112Y-11698D01*
X23999Y-11304D01*
X23830Y-11304D02*
X23718Y-11698D01*
X23605Y-11417D01*
X23493Y-11698D01*
X23380Y-11304D01*
X23155Y-11642D02*
X23127Y-11670D01*
X23155Y-11698D01*
X23184Y-11670D01*
X23155Y-11642D01*
X23155Y-11698D01*
X22874Y-11304D02*
X22874Y-11895D01*
X22874Y-11333D02*
X22818Y-11304D01*
X22705Y-11304D01*
X22649Y-11333D01*
X22621Y-11361D01*
X22593Y-11417D01*
X22593Y-11586D01*
X22621Y-11642D01*
X22649Y-11670D01*
X22705Y-11698D01*
X22818Y-11698D01*
X22874Y-11670D01*
X22340Y-11698D02*
X22340Y-11304D01*
X22340Y-11108D02*
X22368Y-11136D01*
X22340Y-11164D01*
X22312Y-11136D01*
X22340Y-11108D01*
X22340Y-11164D01*
X21974Y-11698D02*
X22031Y-11670D01*
X22059Y-11642D01*
X22087Y-11586D01*
X22087Y-11417D01*
X22059Y-11361D01*
X22031Y-11333D01*
X21974Y-11304D01*
X21890Y-11304D01*
X21834Y-11333D01*
X21806Y-11361D01*
X21777Y-11417D01*
X21777Y-11586D01*
X21806Y-11642D01*
X21834Y-11670D01*
X21890Y-11698D01*
X21974Y-11698D01*
X21609Y-11304D02*
X21384Y-11304D01*
X21524Y-11108D02*
X21524Y-11614D01*
X21496Y-11670D01*
X21440Y-11698D01*
X21384Y-11698D01*
X21187Y-11698D02*
X21187Y-11304D01*
X21187Y-11417D02*
X21159Y-11361D01*
X21131Y-11333D01*
X21074Y-11304D01*
X21018Y-11304D01*
X20849Y-11670D02*
X20793Y-11698D01*
X20681Y-11698D01*
X20624Y-11670D01*
X20596Y-11614D01*
X20596Y-11586D01*
X20624Y-11529D01*
X20681Y-11501D01*
X20765Y-11501D01*
X20821Y-11473D01*
X20849Y-11417D01*
X20849Y-11389D01*
X20821Y-11333D01*
X20765Y-11304D01*
X20681Y-11304D01*
X20624Y-11333D01*
X20343Y-11304D02*
X20343Y-11895D01*
X20343Y-11333D02*
X20287Y-11304D01*
X20175Y-11304D01*
X20118Y-11333D01*
X20090Y-11361D01*
X20062Y-11417D01*
X20062Y-11586D01*
X20090Y-11642D01*
X20118Y-11670D01*
X20175Y-11698D01*
X20287Y-11698D01*
X20343Y-11670D01*
X19584Y-11670D02*
X19640Y-11698D01*
X19753Y-11698D01*
X19809Y-11670D01*
X19837Y-11614D01*
X19837Y-11389D01*
X19809Y-11333D01*
X19753Y-11304D01*
X19640Y-11304D01*
X19584Y-11333D01*
X19556Y-11389D01*
X19556Y-11445D01*
X19837Y-11501D01*
X19303Y-11698D02*
X19303Y-11304D01*
X19303Y-11417D02*
X19275Y-11361D01*
X19247Y-11333D01*
X19190Y-11304D01*
X19134Y-11304D01*
X18937Y-11698D02*
X18937Y-11108D01*
X18881Y-11473D02*
X18712Y-11698D01*
X18712Y-11304D02*
X18937Y-11529D01*
X18206Y-11698D02*
X18206Y-11389D01*
X18234Y-11333D01*
X18290Y-11304D01*
X18403Y-11304D01*
X18459Y-11333D01*
X18206Y-11670D02*
X18262Y-11698D01*
X18403Y-11698D01*
X18459Y-11670D01*
X18487Y-11614D01*
X18487Y-11558D01*
X18459Y-11501D01*
X18403Y-11473D01*
X18262Y-11473D01*
X18206Y-11445D01*
X17925Y-11642D02*
X17897Y-11670D01*
X17925Y-11698D01*
X17953Y-11670D01*
X17925Y-11642D01*
X17925Y-11698D01*
X17644Y-11698D02*
X17644Y-11304D01*
X17644Y-11108D02*
X17672Y-11136D01*
X17644Y-11164D01*
X17616Y-11136D01*
X17644Y-11108D01*
X17644Y-11164D01*
X17362Y-11304D02*
X17362Y-11698D01*
X17362Y-11361D02*
X17334Y-11333D01*
X17278Y-11304D01*
X17194Y-11304D01*
X17137Y-11333D01*
X17109Y-11389D01*
X17109Y-11698D01*
X16912Y-11304D02*
X16687Y-11304D01*
X16828Y-11698D02*
X16828Y-11192D01*
X16800Y-11136D01*
X16744Y-11108D01*
X16687Y-11108D01*
X16406Y-11698D02*
X16463Y-11670D01*
X16491Y-11642D01*
X16519Y-11586D01*
X16519Y-11417D01*
X16491Y-11361D01*
X16463Y-11333D01*
X16406Y-11304D01*
X16322Y-11304D01*
X16266Y-11333D01*
X16238Y-11361D01*
X16209Y-11417D01*
X16209Y-11586D01*
X16238Y-11642D01*
X16266Y-11670D01*
X16322Y-11698D01*
X16406Y-11698D01*
X22213Y-12643D02*
X22213Y-12249D01*
X22213Y-12362D02*
X22185Y-12306D01*
X22157Y-12277D01*
X22101Y-12249D01*
X22045Y-12249D01*
X21623Y-12615D02*
X21679Y-12643D01*
X21792Y-12643D01*
X21848Y-12615D01*
X21876Y-12559D01*
X21876Y-12334D01*
X21848Y-12277D01*
X21792Y-12249D01*
X21679Y-12249D01*
X21623Y-12277D01*
X21595Y-12334D01*
X21595Y-12390D01*
X21876Y-12446D01*
X21398Y-12249D02*
X21257Y-12643D01*
X21117Y-12249D01*
X20892Y-12587D02*
X20864Y-12615D01*
X20892Y-12643D01*
X20920Y-12615D01*
X20892Y-12587D01*
X20892Y-12643D01*
X19851Y-12643D02*
X20189Y-12643D01*
X20020Y-12643D02*
X20020Y-12053D01*
X20076Y-12137D01*
X20132Y-12193D01*
X20189Y-12221D01*
X19598Y-12587D02*
X19570Y-12615D01*
X19598Y-12643D01*
X19626Y-12615D01*
X19598Y-12587D01*
X19598Y-12643D01*
X19204Y-12053D02*
X19148Y-12053D01*
X19092Y-12081D01*
X19064Y-12109D01*
X19036Y-12165D01*
X19008Y-12277D01*
X19008Y-12418D01*
X19036Y-12531D01*
X19064Y-12587D01*
X19092Y-12615D01*
X19148Y-12643D01*
X19204Y-12643D01*
X19261Y-12615D01*
X19289Y-12587D01*
X19317Y-12531D01*
X19345Y-12418D01*
X19345Y-12277D01*
X19317Y-12165D01*
X19289Y-12109D01*
X19261Y-12081D01*
X19204Y-12053D01*
G54D12*
X13100Y-11300D02*
X13100Y-12500D01*
X13100Y-12500D02*
X10300Y-12500D01*
X10300Y-12500D02*
X10300Y-11300D01*
X13100Y-10100D02*
X13100Y-9800D01*
X13100Y-9800D02*
X12500Y-8900D01*
X12500Y-8900D02*
X10900Y-8900D01*
X10900Y-8900D02*
X10300Y-9800D01*
X10300Y-9800D02*
X10300Y-10100D01*
G54D13*
X11400Y-7550D02*
X11400Y-7900D01*
X12000Y-7550D02*
X12000Y-7900D01*
X11400Y-8650D02*
X11400Y-8300D01*
X12000Y-8650D02*
X12000Y-8300D01*
X12000Y-8650D02*
X11400Y-8650D01*
X12000Y-7550D02*
X11400Y-7550D01*
X15100Y-13750D02*
X14750Y-13750D01*
X15100Y-14350D02*
X14750Y-14350D01*
X14000Y-13750D02*
X14350Y-13750D01*
X14000Y-14350D02*
X14350Y-14350D01*
X14000Y-14350D02*
X14000Y-13750D01*
X15100Y-14350D02*
X15100Y-13750D01*
X8400Y-7600D02*
X8400Y-7950D01*
X9000Y-7600D02*
X9000Y-7950D01*
X8400Y-8700D02*
X8400Y-8350D01*
X9000Y-8700D02*
X9000Y-8350D01*
X9000Y-8700D02*
X8400Y-8700D01*
X9000Y-7600D02*
X8400Y-7600D01*
X13900Y-15550D02*
X14250Y-15550D01*
X13900Y-14950D02*
X14250Y-14950D01*
X15000Y-15550D02*
X14650Y-15550D01*
X15000Y-14950D02*
X14650Y-14950D01*
X15000Y-14950D02*
X15000Y-15550D01*
X13900Y-14950D02*
X13900Y-15550D01*
G54D14*
X11700Y-18450D02*
X12200Y-18950D01*
X16700Y-18950D02*
X17200Y-18450D01*
X17200Y-17450D02*
X16700Y-16950D01*
X11700Y-17450D02*
X12200Y-16950D01*
X12200Y-18950D02*
X16700Y-18950D01*
X11700Y-18450D02*
X11700Y-17450D01*
X12200Y-16950D02*
X16700Y-16950D01*
X17200Y-17450D02*
X17200Y-18450D01*
G54D12*
X10100Y-11300D02*
X10100Y-12500D01*
X10100Y-12500D02*
X7300Y-12500D01*
X7300Y-12500D02*
X7300Y-11300D01*
X10100Y-10100D02*
X10100Y-9800D01*
X10100Y-9800D02*
X9500Y-8900D01*
X9500Y-8900D02*
X7900Y-8900D01*
X7900Y-8900D02*
X7300Y-9800D01*
X7300Y-9800D02*
X7300Y-10100D01*
G54D15*
G36*
X20199Y-13135D02*
X20221Y-13183D01*
X20307Y-13291D01*
X20446Y-13448D01*
X20627Y-13642D01*
X20840Y-13858D01*
X20845Y-13863D01*
X21531Y-14551D01*
X21156Y-14927D01*
X20780Y-15303D01*
X21104Y-15631D01*
X21428Y-15957D01*
X21427Y-16364D01*
X21427Y-16769D01*
X21712Y-17064D01*
X21998Y-17359D01*
X21998Y-15209D01*
X21999Y-13063D01*
X21120Y-13078D01*
X20826Y-13086D01*
X20571Y-13097D01*
X20368Y-13110D01*
X20238Y-13124D01*
X20199Y-13135D01*
X20199Y-13135D01*
X20199Y-13135D01*
G37*
G36*
X19947Y-15306D02*
X20610Y-15967D01*
X21271Y-16630D01*
X21271Y-16317D01*
X21271Y-16003D01*
X20934Y-15668D01*
X20595Y-15333D01*
X20971Y-14954D01*
X21349Y-14574D01*
X20686Y-13913D01*
X20023Y-13250D01*
X20023Y-13536D01*
X20026Y-13670D01*
X20043Y-13770D01*
X20090Y-13862D01*
X20177Y-13969D01*
X20321Y-14119D01*
X20374Y-14172D01*
X20723Y-14525D01*
X20335Y-14915D01*
X19947Y-15306D01*
X19947Y-15306D01*
X19947Y-15306D01*
G37*
G36*
X19307Y-14135D02*
X19337Y-14437D01*
X19387Y-14584D01*
X19465Y-14729D01*
X19569Y-14888D01*
X19683Y-15036D01*
X19784Y-15149D01*
X19856Y-15200D01*
X19862Y-15200D01*
X19911Y-15166D01*
X20015Y-15074D01*
X20156Y-14939D01*
X20232Y-14861D01*
X20567Y-14525D01*
X20218Y-14172D01*
X19867Y-13819D01*
X19867Y-13515D01*
X19867Y-13211D01*
X19702Y-13339D01*
X19497Y-13559D01*
X19363Y-13833D01*
X19307Y-14135D01*
X19307Y-14135D01*
X19307Y-14135D01*
G37*
G54D13*
X23740Y-16565D02*
X23390Y-16565D01*
X23740Y-17165D02*
X23390Y-17165D01*
X22640Y-16565D02*
X22990Y-16565D01*
X22640Y-17165D02*
X22990Y-17165D01*
X22640Y-17165D02*
X22640Y-16565D01*
X23740Y-17165D02*
X23740Y-16565D01*
X22525Y-14500D02*
X22525Y-14850D01*
X23125Y-14500D02*
X23125Y-14850D01*
X22525Y-15600D02*
X22525Y-15250D01*
X23125Y-15600D02*
X23125Y-15250D01*
X23125Y-15600D02*
X22525Y-15600D01*
X23125Y-14500D02*
X22525Y-14500D01*
G54D12*
X13654Y-8911D02*
X13654Y-9235D01*
X13635Y-9273D01*
X13616Y-9292D01*
X13578Y-9311D01*
X13502Y-9311D01*
X13464Y-9292D01*
X13445Y-9273D01*
X13426Y-9235D01*
X13426Y-8911D01*
X13254Y-8950D02*
X13235Y-8930D01*
X13197Y-8911D01*
X13102Y-8911D01*
X13064Y-8930D01*
X13045Y-8950D01*
X13026Y-8988D01*
X13026Y-9026D01*
X13045Y-9083D01*
X13273Y-9311D01*
X13026Y-9311D01*
X13790Y-13211D02*
X13980Y-13211D01*
X13980Y-12811D01*
X13657Y-13211D02*
X13657Y-12811D01*
X13523Y-13097D01*
X13390Y-12811D01*
X13390Y-13211D01*
X12990Y-13211D02*
X13219Y-13211D01*
X13104Y-13211D02*
X13104Y-12811D01*
X13142Y-12869D01*
X13180Y-12907D01*
X13219Y-12926D01*
X12609Y-13211D02*
X12838Y-13211D01*
X12723Y-13211D02*
X12723Y-12811D01*
X12761Y-12869D01*
X12800Y-12907D01*
X12838Y-12926D01*
X12228Y-13211D02*
X12457Y-13211D01*
X12342Y-13211D02*
X12342Y-12811D01*
X12380Y-12869D01*
X12419Y-12907D01*
X12457Y-12926D01*
X12095Y-12811D02*
X11828Y-12811D01*
X12000Y-13211D01*
X11676Y-13059D02*
X11371Y-13059D01*
X10971Y-13211D02*
X11200Y-13211D01*
X11085Y-13211D02*
X11085Y-12811D01*
X11123Y-12869D01*
X11161Y-12907D01*
X11200Y-12926D01*
X10800Y-13173D02*
X10780Y-13192D01*
X10800Y-13211D01*
X10819Y-13192D01*
X10800Y-13173D01*
X10800Y-13211D01*
X10552Y-12983D02*
X10590Y-12964D01*
X10609Y-12945D01*
X10628Y-12907D01*
X10628Y-12888D01*
X10609Y-12850D01*
X10590Y-12830D01*
X10552Y-12811D01*
X10476Y-12811D01*
X10438Y-12830D01*
X10419Y-12850D01*
X10400Y-12888D01*
X10400Y-12907D01*
X10419Y-12945D01*
X10438Y-12964D01*
X10476Y-12983D01*
X10552Y-12983D01*
X10590Y-13002D01*
X10609Y-13021D01*
X10628Y-13059D01*
X10628Y-13135D01*
X10609Y-13173D01*
X10590Y-13192D01*
X10552Y-13211D01*
X10476Y-13211D01*
X10438Y-13192D01*
X10419Y-13173D01*
X10400Y-13135D01*
X10400Y-13059D01*
X10419Y-13021D01*
X10438Y-13002D01*
X10476Y-12983D01*
G54D16*
X12411Y-7971D02*
X12421Y-7961D01*
X12430Y-7933D01*
X12430Y-7914D01*
X12421Y-7885D01*
X12402Y-7866D01*
X12383Y-7857D01*
X12345Y-7847D01*
X12316Y-7847D01*
X12278Y-7857D01*
X12259Y-7866D01*
X12240Y-7885D01*
X12230Y-7914D01*
X12230Y-7933D01*
X12240Y-7961D01*
X12250Y-7971D01*
X12250Y-8047D02*
X12240Y-8057D01*
X12230Y-8076D01*
X12230Y-8123D01*
X12240Y-8142D01*
X12250Y-8152D01*
X12269Y-8161D01*
X12288Y-8161D01*
X12316Y-8152D01*
X12430Y-8038D01*
X12430Y-8161D01*
X12430Y-8352D02*
X12430Y-8238D01*
X12430Y-8295D02*
X12230Y-8295D01*
X12259Y-8276D01*
X12278Y-8257D01*
X12288Y-8238D01*
X15461Y-13921D02*
X15471Y-13911D01*
X15480Y-13883D01*
X15480Y-13864D01*
X15471Y-13835D01*
X15452Y-13816D01*
X15433Y-13807D01*
X15395Y-13797D01*
X15366Y-13797D01*
X15328Y-13807D01*
X15309Y-13816D01*
X15290Y-13835D01*
X15280Y-13864D01*
X15280Y-13883D01*
X15290Y-13911D01*
X15300Y-13921D01*
X15480Y-14111D02*
X15480Y-13997D01*
X15480Y-14054D02*
X15280Y-14054D01*
X15309Y-14035D01*
X15328Y-14016D01*
X15338Y-13997D01*
X15280Y-14178D02*
X15280Y-14302D01*
X15357Y-14235D01*
X15357Y-14264D01*
X15366Y-14283D01*
X15376Y-14292D01*
X15395Y-14302D01*
X15442Y-14302D01*
X15461Y-14292D01*
X15471Y-14283D01*
X15480Y-14264D01*
X15480Y-14207D01*
X15471Y-14188D01*
X15461Y-14178D01*
X9411Y-8116D02*
X9421Y-8107D01*
X9430Y-8078D01*
X9430Y-8059D01*
X9421Y-8030D01*
X9402Y-8011D01*
X9383Y-8002D01*
X9345Y-7992D01*
X9316Y-7992D01*
X9278Y-8002D01*
X9259Y-8011D01*
X9240Y-8030D01*
X9230Y-8059D01*
X9230Y-8078D01*
X9240Y-8107D01*
X9250Y-8116D01*
X9297Y-8288D02*
X9430Y-8288D01*
X9221Y-8240D02*
X9364Y-8192D01*
X9364Y-8316D01*
X15361Y-15171D02*
X15371Y-15161D01*
X15380Y-15133D01*
X15380Y-15114D01*
X15371Y-15085D01*
X15352Y-15066D01*
X15333Y-15057D01*
X15295Y-15047D01*
X15266Y-15047D01*
X15228Y-15057D01*
X15209Y-15066D01*
X15190Y-15085D01*
X15180Y-15114D01*
X15180Y-15133D01*
X15190Y-15161D01*
X15200Y-15171D01*
X15380Y-15361D02*
X15380Y-15247D01*
X15380Y-15304D02*
X15180Y-15304D01*
X15209Y-15285D01*
X15228Y-15266D01*
X15238Y-15247D01*
X15180Y-15533D02*
X15180Y-15495D01*
X15190Y-15476D01*
X15200Y-15466D01*
X15228Y-15447D01*
X15266Y-15438D01*
X15342Y-15438D01*
X15361Y-15447D01*
X15371Y-15457D01*
X15380Y-15476D01*
X15380Y-15514D01*
X15371Y-15533D01*
X15361Y-15542D01*
X15342Y-15552D01*
X15295Y-15552D01*
X15276Y-15542D01*
X15266Y-15533D01*
X15257Y-15514D01*
X15257Y-15476D01*
X15266Y-15457D01*
X15276Y-15447D01*
X15295Y-15438D01*
G54D14*
X11604Y-18582D02*
X11271Y-19032D01*
X11271Y-18582D02*
X11604Y-19032D01*
X10819Y-19032D02*
X11104Y-19032D01*
X10961Y-19032D02*
X10961Y-18582D01*
X11009Y-18646D01*
X11057Y-18689D01*
X11104Y-18710D01*
X16128Y-16782D02*
X16414Y-16782D01*
X16271Y-16782D02*
X16271Y-16332D01*
X16319Y-16396D01*
X16366Y-16439D01*
X16414Y-16460D01*
X15938Y-16375D02*
X15914Y-16353D01*
X15866Y-16332D01*
X15747Y-16332D01*
X15700Y-16353D01*
X15676Y-16375D01*
X15652Y-16417D01*
X15652Y-16460D01*
X15676Y-16525D01*
X15961Y-16782D01*
X15652Y-16782D01*
X15438Y-16739D02*
X15414Y-16760D01*
X15438Y-16782D01*
X15461Y-16760D01*
X15438Y-16739D01*
X15438Y-16782D01*
X15223Y-16375D02*
X15200Y-16353D01*
X15152Y-16332D01*
X15033Y-16332D01*
X14985Y-16353D01*
X14961Y-16375D01*
X14938Y-16417D01*
X14938Y-16460D01*
X14961Y-16525D01*
X15247Y-16782D01*
X14938Y-16782D01*
X14652Y-16525D02*
X14700Y-16503D01*
X14723Y-16482D01*
X14747Y-16439D01*
X14747Y-16417D01*
X14723Y-16375D01*
X14700Y-16353D01*
X14652Y-16332D01*
X14557Y-16332D01*
X14509Y-16353D01*
X14485Y-16375D01*
X14461Y-16417D01*
X14461Y-16439D01*
X14485Y-16482D01*
X14509Y-16503D01*
X14557Y-16525D01*
X14652Y-16525D01*
X14700Y-16546D01*
X14723Y-16567D01*
X14747Y-16610D01*
X14747Y-16696D01*
X14723Y-16739D01*
X14700Y-16760D01*
X14652Y-16782D01*
X14557Y-16782D01*
X14509Y-16760D01*
X14485Y-16739D01*
X14461Y-16696D01*
X14461Y-16610D01*
X14485Y-16567D01*
X14509Y-16546D01*
X14557Y-16525D01*
X14176Y-16525D02*
X14223Y-16503D01*
X14247Y-16482D01*
X14271Y-16439D01*
X14271Y-16417D01*
X14247Y-16375D01*
X14223Y-16353D01*
X14176Y-16332D01*
X14080Y-16332D01*
X14033Y-16353D01*
X14009Y-16375D01*
X13985Y-16417D01*
X13985Y-16439D01*
X14009Y-16482D01*
X14033Y-16503D01*
X14080Y-16525D01*
X14176Y-16525D01*
X14223Y-16546D01*
X14247Y-16567D01*
X14271Y-16610D01*
X14271Y-16696D01*
X14247Y-16739D01*
X14223Y-16760D01*
X14176Y-16782D01*
X14080Y-16782D01*
X14033Y-16760D01*
X14009Y-16739D01*
X13985Y-16696D01*
X13985Y-16610D01*
X14009Y-16567D01*
X14033Y-16546D01*
X14080Y-16525D01*
X13771Y-16782D02*
X13771Y-16332D01*
X13604Y-16653D01*
X13438Y-16332D01*
X13438Y-16782D01*
X13199Y-16782D02*
X13199Y-16332D01*
X13199Y-16546D02*
X12914Y-16546D01*
X12914Y-16782D02*
X12914Y-16332D01*
X12723Y-16482D02*
X12461Y-16482D01*
X12723Y-16782D01*
X12461Y-16782D01*
G54D12*
X7454Y-8911D02*
X7454Y-9235D01*
X7435Y-9273D01*
X7416Y-9292D01*
X7378Y-9311D01*
X7302Y-9311D01*
X7264Y-9292D01*
X7245Y-9273D01*
X7226Y-9235D01*
X7226Y-8911D01*
X6826Y-9311D02*
X7054Y-9311D01*
X6940Y-9311D02*
X6940Y-8911D01*
X6978Y-8969D01*
X7016Y-9007D01*
X7054Y-9026D01*
X9840Y-13211D02*
X10030Y-13211D01*
X10030Y-12811D01*
X9707Y-13211D02*
X9707Y-12811D01*
X9573Y-13097D01*
X9440Y-12811D01*
X9440Y-13211D01*
X9040Y-13211D02*
X9269Y-13211D01*
X9154Y-13211D02*
X9154Y-12811D01*
X9192Y-12869D01*
X9230Y-12907D01*
X9269Y-12926D01*
X8659Y-13211D02*
X8888Y-13211D01*
X8773Y-13211D02*
X8773Y-12811D01*
X8811Y-12869D01*
X8850Y-12907D01*
X8888Y-12926D01*
X8278Y-13211D02*
X8507Y-13211D01*
X8392Y-13211D02*
X8392Y-12811D01*
X8430Y-12869D01*
X8469Y-12907D01*
X8507Y-12926D01*
X8145Y-12811D02*
X7878Y-12811D01*
X8050Y-13211D01*
X7726Y-13059D02*
X7421Y-13059D01*
X7269Y-12811D02*
X7021Y-12811D01*
X7154Y-12964D01*
X7097Y-12964D01*
X7059Y-12983D01*
X7040Y-13002D01*
X7021Y-13040D01*
X7021Y-13135D01*
X7040Y-13173D01*
X7059Y-13192D01*
X7097Y-13211D01*
X7211Y-13211D01*
X7250Y-13192D01*
X7269Y-13173D01*
X6850Y-13173D02*
X6830Y-13192D01*
X6850Y-13211D01*
X6869Y-13192D01*
X6850Y-13173D01*
X6850Y-13211D01*
X6697Y-12811D02*
X6450Y-12811D01*
X6583Y-12964D01*
X6526Y-12964D01*
X6488Y-12983D01*
X6469Y-13002D01*
X6450Y-13040D01*
X6450Y-13135D01*
X6469Y-13173D01*
X6488Y-13192D01*
X6526Y-13211D01*
X6640Y-13211D01*
X6678Y-13192D01*
X6697Y-13173D01*
G54D16*
X23318Y-17045D02*
X23385Y-16950D01*
X23432Y-17045D02*
X23432Y-16845D01*
X23356Y-16845D01*
X23337Y-16855D01*
X23328Y-16865D01*
X23318Y-16884D01*
X23318Y-16912D01*
X23328Y-16931D01*
X23337Y-16941D01*
X23356Y-16950D01*
X23432Y-16950D01*
X23128Y-17045D02*
X23242Y-17045D01*
X23185Y-17045D02*
X23185Y-16845D01*
X23204Y-16874D01*
X23223Y-16893D01*
X23242Y-16903D01*
X23051Y-16865D02*
X23042Y-16855D01*
X23023Y-16845D01*
X22975Y-16845D01*
X22956Y-16855D01*
X22947Y-16865D01*
X22937Y-16884D01*
X22937Y-16903D01*
X22947Y-16931D01*
X23061Y-17045D01*
X22937Y-17045D01*
X23005Y-14921D02*
X22910Y-14854D01*
X23005Y-14807D02*
X22805Y-14807D01*
X22805Y-14883D01*
X22815Y-14902D01*
X22825Y-14911D01*
X22844Y-14921D01*
X22872Y-14921D01*
X22891Y-14911D01*
X22901Y-14902D01*
X22910Y-14883D01*
X22910Y-14807D01*
X23005Y-15111D02*
X23005Y-14997D01*
X23005Y-15054D02*
X22805Y-15054D01*
X22834Y-15035D01*
X22853Y-15016D01*
X22863Y-14997D01*
X22805Y-15178D02*
X22805Y-15302D01*
X22882Y-15235D01*
X22882Y-15264D01*
X22891Y-15283D01*
X22901Y-15292D01*
X22920Y-15302D01*
X22967Y-15302D01*
X22986Y-15292D01*
X22996Y-15283D01*
X23005Y-15264D01*
X23005Y-15207D01*
X22996Y-15188D01*
X22986Y-15178D01*
M02*
