G04 (created by PCBNEW (2013-jul-07)-stable) date nie, 17 kwi 2016, 11:46:30*
%MOIN*%
G04 Gerber Fmt 3.4, Leading zero omitted, Abs format*
%FSLAX34Y34*%
G01*
G70*
G90*
G04 APERTURE LIST*
%ADD10C,0.001*%
%ADD11C,0.01*%
%ADD12C,0.005*%
%ADD13C,0.012*%
%ADD14C,0.00590551*%
%ADD15C,0.015*%
%ADD16C,0.0039*%
%ADD17C,0.003*%
%ADD18C,0.002*%
%ADD19C,0.0107*%
%ADD20C,0.0106*%
%ADD21C,0.01125*%
G04 APERTURE END LIST*
G54D10*
G54D11*
X9837Y-11763D02*
X8263Y-11763D01*
X8263Y-11763D02*
X8263Y-13141D01*
X8263Y-13141D02*
X8459Y-13337D01*
X8459Y-13337D02*
X9641Y-13337D01*
X9641Y-13337D02*
X9837Y-13141D01*
X9837Y-13141D02*
X9837Y-11763D01*
X9837Y-12550D02*
G75*
G03X9837Y-12550I-787J0D01*
G74*
G01*
X12587Y-7637D02*
X12587Y-6063D01*
X12587Y-6063D02*
X11209Y-6063D01*
X11209Y-6063D02*
X11013Y-6259D01*
X11013Y-6259D02*
X11013Y-7441D01*
X11013Y-7441D02*
X11209Y-7637D01*
X11209Y-7637D02*
X12587Y-7637D01*
X12587Y-6850D02*
G75*
G03X12587Y-6850I-787J0D01*
G74*
G01*
G54D12*
X16100Y-8050D02*
X16100Y-8400D01*
X15500Y-8050D02*
X15500Y-8400D01*
X16100Y-9150D02*
X16100Y-8800D01*
X15500Y-9150D02*
X15500Y-8800D01*
X15500Y-9150D02*
X16100Y-9150D01*
X15500Y-8050D02*
X16100Y-8050D01*
X16200Y-18000D02*
X16550Y-18000D01*
X16200Y-18600D02*
X16550Y-18600D01*
X17300Y-18000D02*
X16950Y-18000D01*
X17300Y-18600D02*
X16950Y-18600D01*
X17300Y-18600D02*
X17300Y-18000D01*
X16200Y-18600D02*
X16200Y-18000D01*
X15100Y-8050D02*
X15100Y-8400D01*
X14500Y-8050D02*
X14500Y-8400D01*
X15100Y-9150D02*
X15100Y-8800D01*
X14500Y-9150D02*
X14500Y-8800D01*
X14500Y-9150D02*
X15100Y-9150D01*
X14500Y-8050D02*
X15100Y-8050D01*
X14100Y-8050D02*
X14100Y-8400D01*
X13500Y-8050D02*
X13500Y-8400D01*
X14100Y-9150D02*
X14100Y-8800D01*
X13500Y-9150D02*
X13500Y-8800D01*
X13500Y-9150D02*
X14100Y-9150D01*
X13500Y-8050D02*
X14100Y-8050D01*
X15100Y-6650D02*
X15100Y-7000D01*
X14500Y-6650D02*
X14500Y-7000D01*
X15100Y-7750D02*
X15100Y-7400D01*
X14500Y-7750D02*
X14500Y-7400D01*
X14500Y-7750D02*
X15100Y-7750D01*
X14500Y-6650D02*
X15100Y-6650D01*
X11300Y-18250D02*
X10950Y-18250D01*
X11300Y-17650D02*
X10950Y-17650D01*
X10200Y-18250D02*
X10550Y-18250D01*
X10200Y-17650D02*
X10550Y-17650D01*
X10200Y-17650D02*
X10200Y-18250D01*
X11300Y-17650D02*
X11300Y-18250D01*
X16700Y-11050D02*
X16700Y-11400D01*
X16100Y-11050D02*
X16100Y-11400D01*
X16700Y-12150D02*
X16700Y-11800D01*
X16100Y-12150D02*
X16100Y-11800D01*
X16100Y-12150D02*
X16700Y-12150D01*
X16100Y-11050D02*
X16700Y-11050D01*
X16100Y-6650D02*
X16100Y-7000D01*
X15500Y-6650D02*
X15500Y-7000D01*
X16100Y-7750D02*
X16100Y-7400D01*
X15500Y-7750D02*
X15500Y-7400D01*
X15500Y-7750D02*
X16100Y-7750D01*
X15500Y-6650D02*
X16100Y-6650D01*
X6800Y-7350D02*
X6800Y-7700D01*
X6200Y-7350D02*
X6200Y-7700D01*
X6800Y-8450D02*
X6800Y-8100D01*
X6200Y-8450D02*
X6200Y-8100D01*
X6200Y-8450D02*
X6800Y-8450D01*
X6200Y-7350D02*
X6800Y-7350D01*
X6200Y-9850D02*
X6200Y-9500D01*
X6800Y-9850D02*
X6800Y-9500D01*
X6200Y-8750D02*
X6200Y-9100D01*
X6800Y-8750D02*
X6800Y-9100D01*
X6800Y-8750D02*
X6200Y-8750D01*
X6800Y-9850D02*
X6200Y-9850D01*
X10700Y-12450D02*
X10700Y-12800D01*
X10100Y-12450D02*
X10100Y-12800D01*
X10700Y-13550D02*
X10700Y-13200D01*
X10100Y-13550D02*
X10100Y-13200D01*
X10100Y-13550D02*
X10700Y-13550D01*
X10100Y-12450D02*
X10700Y-12450D01*
X9250Y-10900D02*
X8900Y-10900D01*
X9250Y-10300D02*
X8900Y-10300D01*
X8150Y-10900D02*
X8500Y-10900D01*
X8150Y-10300D02*
X8500Y-10300D01*
X8150Y-10300D02*
X8150Y-10900D01*
X9250Y-10300D02*
X9250Y-10900D01*
X11750Y-10400D02*
X11400Y-10400D01*
X11750Y-9800D02*
X11400Y-9800D01*
X10650Y-10400D02*
X11000Y-10400D01*
X10650Y-9800D02*
X11000Y-9800D01*
X10650Y-9800D02*
X10650Y-10400D01*
X11750Y-9800D02*
X11750Y-10400D01*
X10650Y-8900D02*
X11000Y-8900D01*
X10650Y-9500D02*
X11000Y-9500D01*
X11750Y-8900D02*
X11400Y-8900D01*
X11750Y-9500D02*
X11400Y-9500D01*
X11750Y-9500D02*
X11750Y-8900D01*
X10650Y-9500D02*
X10650Y-8900D01*
X11750Y-8500D02*
X11400Y-8500D01*
X11750Y-7900D02*
X11400Y-7900D01*
X10650Y-8500D02*
X11000Y-8500D01*
X10650Y-7900D02*
X11000Y-7900D01*
X10650Y-7900D02*
X10650Y-8500D01*
X11750Y-7900D02*
X11750Y-8500D01*
X13200Y-8500D02*
X12850Y-8500D01*
X13200Y-7900D02*
X12850Y-7900D01*
X12100Y-8500D02*
X12450Y-8500D01*
X12100Y-7900D02*
X12450Y-7900D01*
X12100Y-7900D02*
X12100Y-8500D01*
X13200Y-7900D02*
X13200Y-8500D01*
X16700Y-17200D02*
X17050Y-17200D01*
X16700Y-17800D02*
X17050Y-17800D01*
X17800Y-17200D02*
X17450Y-17200D01*
X17800Y-17800D02*
X17450Y-17800D01*
X17800Y-17800D02*
X17800Y-17200D01*
X16700Y-17800D02*
X16700Y-17200D01*
X12300Y-13500D02*
X12300Y-13850D01*
X11700Y-13500D02*
X11700Y-13850D01*
X12300Y-14600D02*
X12300Y-14250D01*
X11700Y-14600D02*
X11700Y-14250D01*
X11700Y-14600D02*
X12300Y-14600D01*
X11700Y-13500D02*
X12300Y-13500D01*
X17300Y-12350D02*
X17300Y-12700D01*
X16700Y-12350D02*
X16700Y-12700D01*
X17300Y-13450D02*
X17300Y-13100D01*
X16700Y-13450D02*
X16700Y-13100D01*
X16700Y-13450D02*
X17300Y-13450D01*
X16700Y-12350D02*
X17300Y-12350D01*
X13600Y-12250D02*
X13600Y-11900D01*
X14200Y-12250D02*
X14200Y-11900D01*
X13600Y-11150D02*
X13600Y-11500D01*
X14200Y-11150D02*
X14200Y-11500D01*
X14200Y-11150D02*
X13600Y-11150D01*
X14200Y-12250D02*
X13600Y-12250D01*
X10950Y-14600D02*
X10950Y-14250D01*
X11550Y-14600D02*
X11550Y-14250D01*
X10950Y-13500D02*
X10950Y-13850D01*
X11550Y-13500D02*
X11550Y-13850D01*
X11550Y-13500D02*
X10950Y-13500D01*
X11550Y-14600D02*
X10950Y-14600D01*
X17300Y-17000D02*
X16950Y-17000D01*
X17300Y-16400D02*
X16950Y-16400D01*
X16200Y-17000D02*
X16550Y-17000D01*
X16200Y-16400D02*
X16550Y-16400D01*
X16200Y-16400D02*
X16200Y-17000D01*
X17300Y-16400D02*
X17300Y-17000D01*
X14100Y-6650D02*
X14100Y-7000D01*
X13500Y-6650D02*
X13500Y-7000D01*
X14100Y-7750D02*
X14100Y-7400D01*
X13500Y-7750D02*
X13500Y-7400D01*
X13500Y-7750D02*
X14100Y-7750D01*
X13500Y-6650D02*
X14100Y-6650D01*
X11200Y-16050D02*
X11550Y-16050D01*
X11200Y-16650D02*
X11550Y-16650D01*
X12300Y-16050D02*
X11950Y-16050D01*
X12300Y-16650D02*
X11950Y-16650D01*
X12300Y-16650D02*
X12300Y-16050D01*
X11200Y-16650D02*
X11200Y-16050D01*
X15300Y-12150D02*
X15300Y-11800D01*
X15900Y-12150D02*
X15900Y-11800D01*
X15300Y-11050D02*
X15300Y-11400D01*
X15900Y-11050D02*
X15900Y-11400D01*
X15900Y-11050D02*
X15300Y-11050D01*
X15900Y-12150D02*
X15300Y-12150D01*
X13900Y-17650D02*
X14250Y-17650D01*
X13900Y-18250D02*
X14250Y-18250D01*
X15000Y-17650D02*
X14650Y-17650D01*
X15000Y-18250D02*
X14650Y-18250D01*
X15000Y-18250D02*
X15000Y-17650D01*
X13900Y-18250D02*
X13900Y-17650D01*
X12700Y-18250D02*
X12350Y-18250D01*
X12700Y-17650D02*
X12350Y-17650D01*
X11600Y-18250D02*
X11950Y-18250D01*
X11600Y-17650D02*
X11950Y-17650D01*
X11600Y-17650D02*
X11600Y-18250D01*
X12700Y-17650D02*
X12700Y-18250D01*
G54D13*
X17950Y-17450D02*
X17950Y-17450D01*
X17950Y-18450D02*
X17950Y-17450D01*
X17950Y-17450D02*
X17950Y-17450D01*
X17950Y-17450D02*
X21950Y-17450D01*
X21950Y-17450D02*
X21950Y-18450D01*
X21950Y-18450D02*
X17950Y-18450D01*
X18950Y-18450D02*
X18950Y-17450D01*
X10200Y-6200D02*
X10200Y-7200D01*
X10200Y-7200D02*
X7200Y-7200D01*
X7200Y-7200D02*
X7200Y-6200D01*
X7200Y-6200D02*
X10200Y-6200D01*
X9200Y-7200D02*
X9200Y-6200D01*
X13300Y-10600D02*
X13300Y-9600D01*
X13300Y-9600D02*
X16300Y-9600D01*
X16300Y-9600D02*
X16300Y-10600D01*
X16300Y-10600D02*
X13300Y-10600D01*
X14300Y-9600D02*
X14300Y-10600D01*
X6100Y-10800D02*
X7100Y-10800D01*
X7100Y-10800D02*
X7100Y-13800D01*
X7100Y-13800D02*
X6100Y-13800D01*
X6100Y-13800D02*
X6100Y-10800D01*
X7100Y-11800D02*
X6100Y-11800D01*
X22250Y-18450D02*
X22250Y-17450D01*
X22250Y-17450D02*
X24250Y-17450D01*
X24250Y-17450D02*
X24250Y-18450D01*
X24250Y-18450D02*
X22250Y-18450D01*
G54D12*
X9600Y-7700D02*
X9600Y-9700D01*
X9600Y-9700D02*
X7800Y-9700D01*
X7800Y-9700D02*
X7800Y-7700D01*
X7800Y-7700D02*
X9600Y-7700D01*
X9000Y-7700D02*
X9000Y-7900D01*
X9000Y-7900D02*
X8500Y-7900D01*
X8500Y-7900D02*
X8500Y-7700D01*
G54D14*
X19631Y-8959D02*
X21993Y-8959D01*
X19631Y-9353D02*
X19631Y-7188D01*
X19631Y-7188D02*
X20025Y-7188D01*
X20025Y-7188D02*
X20025Y-8566D01*
X20025Y-8566D02*
X20418Y-8566D01*
X20418Y-8566D02*
X20418Y-7188D01*
X20418Y-7188D02*
X20812Y-7188D01*
X20812Y-7188D02*
X20812Y-8566D01*
X20812Y-8566D02*
X21206Y-8566D01*
X21206Y-8566D02*
X21206Y-7188D01*
X21206Y-7188D02*
X21600Y-7188D01*
X21600Y-7188D02*
X21600Y-8566D01*
X21600Y-8566D02*
X21993Y-8566D01*
X21993Y-8566D02*
X21993Y-7188D01*
X21993Y-7188D02*
X23371Y-7188D01*
X18450Y-9550D02*
X18450Y-6794D01*
X18450Y-6794D02*
X24749Y-6794D01*
X24749Y-6794D02*
X24749Y-9550D01*
X18450Y-15849D02*
X18450Y-16243D01*
X18450Y-16243D02*
X24749Y-16243D01*
X24749Y-16243D02*
X24749Y-15849D01*
G54D15*
X10100Y-16800D02*
X9600Y-16800D01*
X9600Y-16800D02*
X9600Y-15800D01*
X9600Y-15800D02*
X10100Y-15800D01*
X10100Y-17300D02*
X6100Y-17300D01*
X6100Y-17300D02*
X6100Y-15300D01*
X6100Y-15300D02*
X10100Y-15300D01*
X10100Y-15300D02*
X10100Y-17300D01*
X25378Y-19150D02*
G75*
G03X25378Y-19150I-353J0D01*
G74*
G01*
X7503Y-19125D02*
G75*
G03X7503Y-19125I-353J0D01*
G74*
G01*
X17653Y-7350D02*
G75*
G03X17653Y-7350I-353J0D01*
G74*
G01*
G54D16*
X12955Y-13176D02*
G75*
G03X12955Y-13176I-79J0D01*
G74*
G01*
X13073Y-13373D02*
X13073Y-16127D01*
X13073Y-16127D02*
X15827Y-16127D01*
X15827Y-16127D02*
X15827Y-13373D01*
X15827Y-13373D02*
X13073Y-13373D01*
G54D12*
X18275Y-18725D02*
X18625Y-18725D01*
X18275Y-19325D02*
X18625Y-19325D01*
X19375Y-18725D02*
X19025Y-18725D01*
X19375Y-19325D02*
X19025Y-19325D01*
X19375Y-19325D02*
X19375Y-18725D01*
X18275Y-19325D02*
X18275Y-18725D01*
G54D17*
X8642Y-13750D02*
X8657Y-13764D01*
X8671Y-13807D01*
X8671Y-13835D01*
X8657Y-13878D01*
X8628Y-13907D01*
X8600Y-13921D01*
X8542Y-13935D01*
X8500Y-13935D01*
X8442Y-13921D01*
X8414Y-13907D01*
X8385Y-13878D01*
X8371Y-13835D01*
X8371Y-13807D01*
X8385Y-13764D01*
X8400Y-13750D01*
X8371Y-13650D02*
X8371Y-13450D01*
X8671Y-13578D01*
G54D18*
X8680Y-12773D02*
X8680Y-12888D01*
X8680Y-12830D02*
X8480Y-12830D01*
X8509Y-12850D01*
X8528Y-12869D01*
X8538Y-12888D01*
X8480Y-12650D02*
X8480Y-12630D01*
X8490Y-12611D01*
X8500Y-12602D01*
X8519Y-12592D01*
X8557Y-12583D01*
X8604Y-12583D01*
X8642Y-12592D01*
X8661Y-12602D01*
X8671Y-12611D01*
X8680Y-12630D01*
X8680Y-12650D01*
X8671Y-12669D01*
X8661Y-12678D01*
X8642Y-12688D01*
X8604Y-12697D01*
X8557Y-12697D01*
X8519Y-12688D01*
X8500Y-12678D01*
X8490Y-12669D01*
X8480Y-12650D01*
X8480Y-12459D02*
X8480Y-12440D01*
X8490Y-12421D01*
X8500Y-12411D01*
X8519Y-12402D01*
X8557Y-12392D01*
X8604Y-12392D01*
X8642Y-12402D01*
X8661Y-12411D01*
X8671Y-12421D01*
X8680Y-12440D01*
X8680Y-12459D01*
X8671Y-12478D01*
X8661Y-12488D01*
X8642Y-12497D01*
X8604Y-12507D01*
X8557Y-12507D01*
X8519Y-12497D01*
X8500Y-12488D01*
X8490Y-12478D01*
X8480Y-12459D01*
X8547Y-12221D02*
X8680Y-12221D01*
X8547Y-12307D02*
X8652Y-12307D01*
X8671Y-12297D01*
X8680Y-12278D01*
X8680Y-12249D01*
X8671Y-12230D01*
X8661Y-12221D01*
G54D17*
X12950Y-6442D02*
X12935Y-6457D01*
X12892Y-6471D01*
X12864Y-6471D01*
X12821Y-6457D01*
X12792Y-6428D01*
X12778Y-6400D01*
X12764Y-6342D01*
X12764Y-6300D01*
X12778Y-6242D01*
X12792Y-6214D01*
X12821Y-6185D01*
X12864Y-6171D01*
X12892Y-6171D01*
X12935Y-6185D01*
X12950Y-6200D01*
X13207Y-6171D02*
X13150Y-6171D01*
X13121Y-6185D01*
X13107Y-6200D01*
X13078Y-6242D01*
X13064Y-6300D01*
X13064Y-6414D01*
X13078Y-6442D01*
X13092Y-6457D01*
X13121Y-6471D01*
X13178Y-6471D01*
X13207Y-6457D01*
X13221Y-6442D01*
X13235Y-6414D01*
X13235Y-6342D01*
X13221Y-6314D01*
X13207Y-6300D01*
X13178Y-6285D01*
X13121Y-6285D01*
X13092Y-6300D01*
X13078Y-6314D01*
X13064Y-6342D01*
G54D18*
X11576Y-6480D02*
X11461Y-6480D01*
X11519Y-6480D02*
X11519Y-6280D01*
X11500Y-6309D01*
X11480Y-6328D01*
X11461Y-6338D01*
X11700Y-6280D02*
X11719Y-6280D01*
X11738Y-6290D01*
X11747Y-6300D01*
X11757Y-6319D01*
X11766Y-6357D01*
X11766Y-6404D01*
X11757Y-6442D01*
X11747Y-6461D01*
X11738Y-6471D01*
X11719Y-6480D01*
X11700Y-6480D01*
X11680Y-6471D01*
X11671Y-6461D01*
X11661Y-6442D01*
X11652Y-6404D01*
X11652Y-6357D01*
X11661Y-6319D01*
X11671Y-6300D01*
X11680Y-6290D01*
X11700Y-6280D01*
X11890Y-6280D02*
X11909Y-6280D01*
X11928Y-6290D01*
X11938Y-6300D01*
X11947Y-6319D01*
X11957Y-6357D01*
X11957Y-6404D01*
X11947Y-6442D01*
X11938Y-6461D01*
X11928Y-6471D01*
X11909Y-6480D01*
X11890Y-6480D01*
X11871Y-6471D01*
X11861Y-6461D01*
X11852Y-6442D01*
X11842Y-6404D01*
X11842Y-6357D01*
X11852Y-6319D01*
X11861Y-6300D01*
X11871Y-6290D01*
X11890Y-6280D01*
X12128Y-6347D02*
X12128Y-6480D01*
X12042Y-6347D02*
X12042Y-6452D01*
X12052Y-6471D01*
X12071Y-6480D01*
X12100Y-6480D01*
X12119Y-6471D01*
X12128Y-6461D01*
G54D17*
X16480Y-8633D02*
X16385Y-8700D01*
X16480Y-8747D02*
X16280Y-8747D01*
X16280Y-8671D01*
X16290Y-8652D01*
X16300Y-8642D01*
X16319Y-8633D01*
X16347Y-8633D01*
X16366Y-8642D01*
X16376Y-8652D01*
X16385Y-8671D01*
X16385Y-8747D01*
X16366Y-8519D02*
X16357Y-8538D01*
X16347Y-8547D01*
X16328Y-8557D01*
X16319Y-8557D01*
X16300Y-8547D01*
X16290Y-8538D01*
X16280Y-8519D01*
X16280Y-8480D01*
X16290Y-8461D01*
X16300Y-8452D01*
X16319Y-8442D01*
X16328Y-8442D01*
X16347Y-8452D01*
X16357Y-8461D01*
X16366Y-8480D01*
X16366Y-8519D01*
X16376Y-8538D01*
X16385Y-8547D01*
X16404Y-8557D01*
X16442Y-8557D01*
X16461Y-8547D01*
X16471Y-8538D01*
X16480Y-8519D01*
X16480Y-8480D01*
X16471Y-8461D01*
X16461Y-8452D01*
X16442Y-8442D01*
X16404Y-8442D01*
X16385Y-8452D01*
X16376Y-8461D01*
X16366Y-8480D01*
X16716Y-18961D02*
X16707Y-18971D01*
X16678Y-18980D01*
X16659Y-18980D01*
X16630Y-18971D01*
X16611Y-18952D01*
X16602Y-18933D01*
X16592Y-18895D01*
X16592Y-18866D01*
X16602Y-18828D01*
X16611Y-18809D01*
X16630Y-18790D01*
X16659Y-18780D01*
X16678Y-18780D01*
X16707Y-18790D01*
X16716Y-18800D01*
X16830Y-18866D02*
X16811Y-18857D01*
X16802Y-18847D01*
X16792Y-18828D01*
X16792Y-18819D01*
X16802Y-18800D01*
X16811Y-18790D01*
X16830Y-18780D01*
X16869Y-18780D01*
X16888Y-18790D01*
X16897Y-18800D01*
X16907Y-18819D01*
X16907Y-18828D01*
X16897Y-18847D01*
X16888Y-18857D01*
X16869Y-18866D01*
X16830Y-18866D01*
X16811Y-18876D01*
X16802Y-18885D01*
X16792Y-18904D01*
X16792Y-18942D01*
X16802Y-18961D01*
X16811Y-18971D01*
X16830Y-18980D01*
X16869Y-18980D01*
X16888Y-18971D01*
X16897Y-18961D01*
X16907Y-18942D01*
X16907Y-18904D01*
X16897Y-18885D01*
X16888Y-18876D01*
X16869Y-18866D01*
X15380Y-8583D02*
X15285Y-8650D01*
X15380Y-8697D02*
X15180Y-8697D01*
X15180Y-8621D01*
X15190Y-8602D01*
X15200Y-8592D01*
X15219Y-8583D01*
X15247Y-8583D01*
X15266Y-8592D01*
X15276Y-8602D01*
X15285Y-8621D01*
X15285Y-8697D01*
X15380Y-8488D02*
X15380Y-8450D01*
X15371Y-8430D01*
X15361Y-8421D01*
X15333Y-8402D01*
X15295Y-8392D01*
X15219Y-8392D01*
X15200Y-8402D01*
X15190Y-8411D01*
X15180Y-8430D01*
X15180Y-8469D01*
X15190Y-8488D01*
X15200Y-8497D01*
X15219Y-8507D01*
X15266Y-8507D01*
X15285Y-8497D01*
X15295Y-8488D01*
X15304Y-8469D01*
X15304Y-8430D01*
X15295Y-8411D01*
X15285Y-8402D01*
X15266Y-8392D01*
X14380Y-8678D02*
X14285Y-8745D01*
X14380Y-8792D02*
X14180Y-8792D01*
X14180Y-8716D01*
X14190Y-8697D01*
X14200Y-8688D01*
X14219Y-8678D01*
X14247Y-8678D01*
X14266Y-8688D01*
X14276Y-8697D01*
X14285Y-8716D01*
X14285Y-8792D01*
X14380Y-8488D02*
X14380Y-8602D01*
X14380Y-8545D02*
X14180Y-8545D01*
X14209Y-8564D01*
X14228Y-8583D01*
X14238Y-8602D01*
X14180Y-8364D02*
X14180Y-8345D01*
X14190Y-8326D01*
X14200Y-8316D01*
X14219Y-8307D01*
X14257Y-8297D01*
X14304Y-8297D01*
X14342Y-8307D01*
X14361Y-8316D01*
X14371Y-8326D01*
X14380Y-8345D01*
X14380Y-8364D01*
X14371Y-8383D01*
X14361Y-8392D01*
X14342Y-8402D01*
X14304Y-8411D01*
X14257Y-8411D01*
X14219Y-8402D01*
X14200Y-8392D01*
X14190Y-8383D01*
X14180Y-8364D01*
X14671Y-6461D02*
X14661Y-6471D01*
X14633Y-6480D01*
X14614Y-6480D01*
X14585Y-6471D01*
X14566Y-6452D01*
X14557Y-6433D01*
X14547Y-6395D01*
X14547Y-6366D01*
X14557Y-6328D01*
X14566Y-6309D01*
X14585Y-6290D01*
X14614Y-6280D01*
X14633Y-6280D01*
X14661Y-6290D01*
X14671Y-6300D01*
X14861Y-6480D02*
X14747Y-6480D01*
X14804Y-6480D02*
X14804Y-6280D01*
X14785Y-6309D01*
X14766Y-6328D01*
X14747Y-6338D01*
X14928Y-6280D02*
X15061Y-6280D01*
X14976Y-6480D01*
X10716Y-18611D02*
X10707Y-18621D01*
X10678Y-18630D01*
X10659Y-18630D01*
X10630Y-18621D01*
X10611Y-18602D01*
X10602Y-18583D01*
X10592Y-18545D01*
X10592Y-18516D01*
X10602Y-18478D01*
X10611Y-18459D01*
X10630Y-18440D01*
X10659Y-18430D01*
X10678Y-18430D01*
X10707Y-18440D01*
X10716Y-18450D01*
X10783Y-18430D02*
X10907Y-18430D01*
X10840Y-18507D01*
X10869Y-18507D01*
X10888Y-18516D01*
X10897Y-18526D01*
X10907Y-18545D01*
X10907Y-18592D01*
X10897Y-18611D01*
X10888Y-18621D01*
X10869Y-18630D01*
X10811Y-18630D01*
X10792Y-18621D01*
X10783Y-18611D01*
X17080Y-11633D02*
X16985Y-11700D01*
X17080Y-11747D02*
X16880Y-11747D01*
X16880Y-11671D01*
X16890Y-11652D01*
X16900Y-11642D01*
X16919Y-11633D01*
X16947Y-11633D01*
X16966Y-11642D01*
X16976Y-11652D01*
X16985Y-11671D01*
X16985Y-11747D01*
X17080Y-11442D02*
X17080Y-11557D01*
X17080Y-11500D02*
X16880Y-11500D01*
X16909Y-11519D01*
X16928Y-11538D01*
X16938Y-11557D01*
X15671Y-6461D02*
X15661Y-6471D01*
X15633Y-6480D01*
X15614Y-6480D01*
X15585Y-6471D01*
X15566Y-6452D01*
X15557Y-6433D01*
X15547Y-6395D01*
X15547Y-6366D01*
X15557Y-6328D01*
X15566Y-6309D01*
X15585Y-6290D01*
X15614Y-6280D01*
X15633Y-6280D01*
X15661Y-6290D01*
X15671Y-6300D01*
X15861Y-6480D02*
X15747Y-6480D01*
X15804Y-6480D02*
X15804Y-6280D01*
X15785Y-6309D01*
X15766Y-6328D01*
X15747Y-6338D01*
X16033Y-6347D02*
X16033Y-6480D01*
X15985Y-6271D02*
X15938Y-6414D01*
X16061Y-6414D01*
X7230Y-7533D02*
X7135Y-7600D01*
X7230Y-7647D02*
X7030Y-7647D01*
X7030Y-7571D01*
X7040Y-7552D01*
X7050Y-7542D01*
X7069Y-7533D01*
X7097Y-7533D01*
X7116Y-7542D01*
X7126Y-7552D01*
X7135Y-7571D01*
X7135Y-7647D01*
X7097Y-7361D02*
X7230Y-7361D01*
X7021Y-7409D02*
X7164Y-7457D01*
X7164Y-7333D01*
X7230Y-10133D02*
X7135Y-10200D01*
X7230Y-10247D02*
X7030Y-10247D01*
X7030Y-10171D01*
X7040Y-10152D01*
X7050Y-10142D01*
X7069Y-10133D01*
X7097Y-10133D01*
X7116Y-10142D01*
X7126Y-10152D01*
X7135Y-10171D01*
X7135Y-10247D01*
X7030Y-9961D02*
X7030Y-10000D01*
X7040Y-10019D01*
X7050Y-10028D01*
X7078Y-10047D01*
X7116Y-10057D01*
X7192Y-10057D01*
X7211Y-10047D01*
X7221Y-10038D01*
X7230Y-10019D01*
X7230Y-9980D01*
X7221Y-9961D01*
X7211Y-9952D01*
X7192Y-9942D01*
X7145Y-9942D01*
X7126Y-9952D01*
X7116Y-9961D01*
X7107Y-9980D01*
X7107Y-10019D01*
X7116Y-10038D01*
X7126Y-10047D01*
X7145Y-10057D01*
X10461Y-12178D02*
X10471Y-12188D01*
X10480Y-12216D01*
X10480Y-12235D01*
X10471Y-12264D01*
X10452Y-12283D01*
X10433Y-12292D01*
X10395Y-12302D01*
X10366Y-12302D01*
X10328Y-12292D01*
X10309Y-12283D01*
X10290Y-12264D01*
X10280Y-12235D01*
X10280Y-12216D01*
X10290Y-12188D01*
X10300Y-12178D01*
X10480Y-11988D02*
X10480Y-12102D01*
X10480Y-12045D02*
X10280Y-12045D01*
X10309Y-12064D01*
X10328Y-12083D01*
X10338Y-12102D01*
X10280Y-11864D02*
X10280Y-11845D01*
X10290Y-11826D01*
X10300Y-11816D01*
X10319Y-11807D01*
X10357Y-11797D01*
X10404Y-11797D01*
X10442Y-11807D01*
X10461Y-11816D01*
X10471Y-11826D01*
X10480Y-11845D01*
X10480Y-11864D01*
X10471Y-11883D01*
X10461Y-11892D01*
X10442Y-11902D01*
X10404Y-11911D01*
X10357Y-11911D01*
X10319Y-11902D01*
X10300Y-11892D01*
X10290Y-11883D01*
X10280Y-11864D01*
X8171Y-11261D02*
X8161Y-11271D01*
X8133Y-11280D01*
X8114Y-11280D01*
X8085Y-11271D01*
X8066Y-11252D01*
X8057Y-11233D01*
X8047Y-11195D01*
X8047Y-11166D01*
X8057Y-11128D01*
X8066Y-11109D01*
X8085Y-11090D01*
X8114Y-11080D01*
X8133Y-11080D01*
X8161Y-11090D01*
X8171Y-11100D01*
X8361Y-11280D02*
X8247Y-11280D01*
X8304Y-11280D02*
X8304Y-11080D01*
X8285Y-11109D01*
X8266Y-11128D01*
X8247Y-11138D01*
X8552Y-11280D02*
X8438Y-11280D01*
X8495Y-11280D02*
X8495Y-11080D01*
X8476Y-11109D01*
X8457Y-11128D01*
X8438Y-11138D01*
X12121Y-10211D02*
X12111Y-10221D01*
X12083Y-10230D01*
X12064Y-10230D01*
X12035Y-10221D01*
X12016Y-10202D01*
X12007Y-10183D01*
X11997Y-10145D01*
X11997Y-10116D01*
X12007Y-10078D01*
X12016Y-10059D01*
X12035Y-10040D01*
X12064Y-10030D01*
X12083Y-10030D01*
X12111Y-10040D01*
X12121Y-10050D01*
X12311Y-10230D02*
X12197Y-10230D01*
X12254Y-10230D02*
X12254Y-10030D01*
X12235Y-10059D01*
X12216Y-10078D01*
X12197Y-10088D01*
X12388Y-10050D02*
X12397Y-10040D01*
X12416Y-10030D01*
X12464Y-10030D01*
X12483Y-10040D01*
X12492Y-10050D01*
X12502Y-10069D01*
X12502Y-10088D01*
X12492Y-10116D01*
X12378Y-10230D01*
X12502Y-10230D01*
X12116Y-9330D02*
X12050Y-9235D01*
X12002Y-9330D02*
X12002Y-9130D01*
X12078Y-9130D01*
X12097Y-9140D01*
X12107Y-9150D01*
X12116Y-9169D01*
X12116Y-9197D01*
X12107Y-9216D01*
X12097Y-9226D01*
X12078Y-9235D01*
X12002Y-9235D01*
X12183Y-9130D02*
X12316Y-9130D01*
X12230Y-9330D01*
X10616Y-7780D02*
X10550Y-7685D01*
X10502Y-7780D02*
X10502Y-7580D01*
X10578Y-7580D01*
X10597Y-7590D01*
X10607Y-7600D01*
X10616Y-7619D01*
X10616Y-7647D01*
X10607Y-7666D01*
X10597Y-7676D01*
X10578Y-7685D01*
X10502Y-7685D01*
X10683Y-7580D02*
X10807Y-7580D01*
X10740Y-7657D01*
X10769Y-7657D01*
X10788Y-7666D01*
X10797Y-7676D01*
X10807Y-7695D01*
X10807Y-7742D01*
X10797Y-7761D01*
X10788Y-7771D01*
X10769Y-7780D01*
X10711Y-7780D01*
X10692Y-7771D01*
X10683Y-7761D01*
X12916Y-8861D02*
X12907Y-8871D01*
X12878Y-8880D01*
X12859Y-8880D01*
X12830Y-8871D01*
X12811Y-8852D01*
X12802Y-8833D01*
X12792Y-8795D01*
X12792Y-8766D01*
X12802Y-8728D01*
X12811Y-8709D01*
X12830Y-8690D01*
X12859Y-8680D01*
X12878Y-8680D01*
X12907Y-8690D01*
X12916Y-8700D01*
X13107Y-8880D02*
X12992Y-8880D01*
X13050Y-8880D02*
X13050Y-8680D01*
X13030Y-8709D01*
X13011Y-8728D01*
X12992Y-8738D01*
X17616Y-18111D02*
X17607Y-18121D01*
X17578Y-18130D01*
X17559Y-18130D01*
X17530Y-18121D01*
X17511Y-18102D01*
X17502Y-18083D01*
X17492Y-18045D01*
X17492Y-18016D01*
X17502Y-17978D01*
X17511Y-17959D01*
X17530Y-17940D01*
X17559Y-17930D01*
X17578Y-17930D01*
X17607Y-17940D01*
X17616Y-17950D01*
X17692Y-17950D02*
X17702Y-17940D01*
X17721Y-17930D01*
X17769Y-17930D01*
X17788Y-17940D01*
X17797Y-17950D01*
X17807Y-17969D01*
X17807Y-17988D01*
X17797Y-18016D01*
X17683Y-18130D01*
X17807Y-18130D01*
X12061Y-13133D02*
X12071Y-13142D01*
X12080Y-13171D01*
X12080Y-13190D01*
X12071Y-13219D01*
X12052Y-13238D01*
X12033Y-13247D01*
X11995Y-13257D01*
X11966Y-13257D01*
X11928Y-13247D01*
X11909Y-13238D01*
X11890Y-13219D01*
X11880Y-13190D01*
X11880Y-13171D01*
X11890Y-13142D01*
X11900Y-13133D01*
X11880Y-12952D02*
X11880Y-13047D01*
X11976Y-13057D01*
X11966Y-13047D01*
X11957Y-13028D01*
X11957Y-12980D01*
X11966Y-12961D01*
X11976Y-12952D01*
X11995Y-12942D01*
X12042Y-12942D01*
X12061Y-12952D01*
X12071Y-12961D01*
X12080Y-12980D01*
X12080Y-13028D01*
X12071Y-13047D01*
X12061Y-13057D01*
X17611Y-13028D02*
X17621Y-13038D01*
X17630Y-13066D01*
X17630Y-13085D01*
X17621Y-13114D01*
X17602Y-13133D01*
X17583Y-13142D01*
X17545Y-13152D01*
X17516Y-13152D01*
X17478Y-13142D01*
X17459Y-13133D01*
X17440Y-13114D01*
X17430Y-13085D01*
X17430Y-13066D01*
X17440Y-13038D01*
X17450Y-13028D01*
X17450Y-12952D02*
X17440Y-12942D01*
X17430Y-12923D01*
X17430Y-12876D01*
X17440Y-12857D01*
X17450Y-12847D01*
X17469Y-12838D01*
X17488Y-12838D01*
X17516Y-12847D01*
X17630Y-12961D01*
X17630Y-12838D01*
X17430Y-12771D02*
X17430Y-12647D01*
X17507Y-12714D01*
X17507Y-12685D01*
X17516Y-12666D01*
X17526Y-12657D01*
X17545Y-12647D01*
X17592Y-12647D01*
X17611Y-12657D01*
X17621Y-12666D01*
X17630Y-12685D01*
X17630Y-12742D01*
X17621Y-12761D01*
X17611Y-12771D01*
X14511Y-11828D02*
X14521Y-11838D01*
X14530Y-11866D01*
X14530Y-11885D01*
X14521Y-11914D01*
X14502Y-11933D01*
X14483Y-11942D01*
X14445Y-11952D01*
X14416Y-11952D01*
X14378Y-11942D01*
X14359Y-11933D01*
X14340Y-11914D01*
X14330Y-11885D01*
X14330Y-11866D01*
X14340Y-11838D01*
X14350Y-11828D01*
X14530Y-11638D02*
X14530Y-11752D01*
X14530Y-11695D02*
X14330Y-11695D01*
X14359Y-11714D01*
X14378Y-11733D01*
X14388Y-11752D01*
X14530Y-11542D02*
X14530Y-11504D01*
X14521Y-11485D01*
X14511Y-11476D01*
X14483Y-11457D01*
X14445Y-11447D01*
X14369Y-11447D01*
X14350Y-11457D01*
X14340Y-11466D01*
X14330Y-11485D01*
X14330Y-11523D01*
X14340Y-11542D01*
X14350Y-11552D01*
X14369Y-11561D01*
X14416Y-11561D01*
X14435Y-11552D01*
X14445Y-11542D01*
X14454Y-11523D01*
X14454Y-11485D01*
X14445Y-11466D01*
X14435Y-11457D01*
X14416Y-11447D01*
X11311Y-13178D02*
X11321Y-13188D01*
X11330Y-13216D01*
X11330Y-13235D01*
X11321Y-13264D01*
X11302Y-13283D01*
X11283Y-13292D01*
X11245Y-13302D01*
X11216Y-13302D01*
X11178Y-13292D01*
X11159Y-13283D01*
X11140Y-13264D01*
X11130Y-13235D01*
X11130Y-13216D01*
X11140Y-13188D01*
X11150Y-13178D01*
X11330Y-12988D02*
X11330Y-13102D01*
X11330Y-13045D02*
X11130Y-13045D01*
X11159Y-13064D01*
X11178Y-13083D01*
X11188Y-13102D01*
X11216Y-12873D02*
X11207Y-12892D01*
X11197Y-12902D01*
X11178Y-12911D01*
X11169Y-12911D01*
X11150Y-12902D01*
X11140Y-12892D01*
X11130Y-12873D01*
X11130Y-12835D01*
X11140Y-12816D01*
X11150Y-12807D01*
X11169Y-12797D01*
X11178Y-12797D01*
X11197Y-12807D01*
X11207Y-12816D01*
X11216Y-12835D01*
X11216Y-12873D01*
X11226Y-12892D01*
X11235Y-12902D01*
X11254Y-12911D01*
X11292Y-12911D01*
X11311Y-12902D01*
X11321Y-12892D01*
X11330Y-12873D01*
X11330Y-12835D01*
X11321Y-12816D01*
X11311Y-12807D01*
X11292Y-12797D01*
X11254Y-12797D01*
X11235Y-12807D01*
X11226Y-12816D01*
X11216Y-12835D01*
X17571Y-16811D02*
X17561Y-16821D01*
X17533Y-16830D01*
X17514Y-16830D01*
X17485Y-16821D01*
X17466Y-16802D01*
X17457Y-16783D01*
X17447Y-16745D01*
X17447Y-16716D01*
X17457Y-16678D01*
X17466Y-16659D01*
X17485Y-16640D01*
X17514Y-16630D01*
X17533Y-16630D01*
X17561Y-16640D01*
X17571Y-16650D01*
X17647Y-16650D02*
X17657Y-16640D01*
X17676Y-16630D01*
X17723Y-16630D01*
X17742Y-16640D01*
X17752Y-16650D01*
X17761Y-16669D01*
X17761Y-16688D01*
X17752Y-16716D01*
X17638Y-16830D01*
X17761Y-16830D01*
X17838Y-16650D02*
X17847Y-16640D01*
X17866Y-16630D01*
X17914Y-16630D01*
X17933Y-16640D01*
X17942Y-16650D01*
X17952Y-16669D01*
X17952Y-16688D01*
X17942Y-16716D01*
X17828Y-16830D01*
X17952Y-16830D01*
X13671Y-6461D02*
X13661Y-6471D01*
X13633Y-6480D01*
X13614Y-6480D01*
X13585Y-6471D01*
X13566Y-6452D01*
X13557Y-6433D01*
X13547Y-6395D01*
X13547Y-6366D01*
X13557Y-6328D01*
X13566Y-6309D01*
X13585Y-6290D01*
X13614Y-6280D01*
X13633Y-6280D01*
X13661Y-6290D01*
X13671Y-6300D01*
X13747Y-6300D02*
X13757Y-6290D01*
X13776Y-6280D01*
X13823Y-6280D01*
X13842Y-6290D01*
X13852Y-6300D01*
X13861Y-6319D01*
X13861Y-6338D01*
X13852Y-6366D01*
X13738Y-6480D01*
X13861Y-6480D01*
X13985Y-6280D02*
X14004Y-6280D01*
X14023Y-6290D01*
X14033Y-6300D01*
X14042Y-6319D01*
X14052Y-6357D01*
X14052Y-6404D01*
X14042Y-6442D01*
X14033Y-6461D01*
X14023Y-6471D01*
X14004Y-6480D01*
X13985Y-6480D01*
X13966Y-6471D01*
X13957Y-6461D01*
X13947Y-6442D01*
X13938Y-6404D01*
X13938Y-6357D01*
X13947Y-6319D01*
X13957Y-6300D01*
X13966Y-6290D01*
X13985Y-6280D01*
X11716Y-16980D02*
X11650Y-16885D01*
X11602Y-16980D02*
X11602Y-16780D01*
X11678Y-16780D01*
X11697Y-16790D01*
X11707Y-16800D01*
X11716Y-16819D01*
X11716Y-16847D01*
X11707Y-16866D01*
X11697Y-16876D01*
X11678Y-16885D01*
X11602Y-16885D01*
X11897Y-16780D02*
X11802Y-16780D01*
X11792Y-16876D01*
X11802Y-16866D01*
X11821Y-16857D01*
X11869Y-16857D01*
X11888Y-16866D01*
X11897Y-16876D01*
X11907Y-16895D01*
X11907Y-16942D01*
X11897Y-16961D01*
X11888Y-16971D01*
X11869Y-16980D01*
X11821Y-16980D01*
X11802Y-16971D01*
X11792Y-16961D01*
X15471Y-10911D02*
X15461Y-10921D01*
X15433Y-10930D01*
X15414Y-10930D01*
X15385Y-10921D01*
X15366Y-10902D01*
X15357Y-10883D01*
X15347Y-10845D01*
X15347Y-10816D01*
X15357Y-10778D01*
X15366Y-10759D01*
X15385Y-10740D01*
X15414Y-10730D01*
X15433Y-10730D01*
X15461Y-10740D01*
X15471Y-10750D01*
X15661Y-10930D02*
X15547Y-10930D01*
X15604Y-10930D02*
X15604Y-10730D01*
X15585Y-10759D01*
X15566Y-10778D01*
X15547Y-10788D01*
X15842Y-10730D02*
X15747Y-10730D01*
X15738Y-10826D01*
X15747Y-10816D01*
X15766Y-10807D01*
X15814Y-10807D01*
X15833Y-10816D01*
X15842Y-10826D01*
X15852Y-10845D01*
X15852Y-10892D01*
X15842Y-10911D01*
X15833Y-10921D01*
X15814Y-10930D01*
X15766Y-10930D01*
X15747Y-10921D01*
X15738Y-10911D01*
X14416Y-18630D02*
X14350Y-18535D01*
X14302Y-18630D02*
X14302Y-18430D01*
X14378Y-18430D01*
X14397Y-18440D01*
X14407Y-18450D01*
X14416Y-18469D01*
X14416Y-18497D01*
X14407Y-18516D01*
X14397Y-18526D01*
X14378Y-18535D01*
X14302Y-18535D01*
X14492Y-18450D02*
X14502Y-18440D01*
X14521Y-18430D01*
X14569Y-18430D01*
X14588Y-18440D01*
X14597Y-18450D01*
X14607Y-18469D01*
X14607Y-18488D01*
X14597Y-18516D01*
X14483Y-18630D01*
X14607Y-18630D01*
X12116Y-18611D02*
X12107Y-18621D01*
X12078Y-18630D01*
X12059Y-18630D01*
X12030Y-18621D01*
X12011Y-18602D01*
X12002Y-18583D01*
X11992Y-18545D01*
X11992Y-18516D01*
X12002Y-18478D01*
X12011Y-18459D01*
X12030Y-18440D01*
X12059Y-18430D01*
X12078Y-18430D01*
X12107Y-18440D01*
X12116Y-18450D01*
X12211Y-18630D02*
X12250Y-18630D01*
X12269Y-18621D01*
X12278Y-18611D01*
X12297Y-18583D01*
X12307Y-18545D01*
X12307Y-18469D01*
X12297Y-18450D01*
X12288Y-18440D01*
X12269Y-18430D01*
X12230Y-18430D01*
X12211Y-18440D01*
X12202Y-18450D01*
X12192Y-18469D01*
X12192Y-18516D01*
X12202Y-18535D01*
X12211Y-18545D01*
X12230Y-18554D01*
X12269Y-18554D01*
X12288Y-18545D01*
X12297Y-18535D01*
X12307Y-18516D01*
G54D19*
X19634Y-17226D02*
X19634Y-16543D01*
X19797Y-16543D01*
X19837Y-16575D01*
X19858Y-16608D01*
X19878Y-16673D01*
X19878Y-16771D01*
X19858Y-16836D01*
X19837Y-16868D01*
X19797Y-16901D01*
X19634Y-16901D01*
X20286Y-17226D02*
X20041Y-17226D01*
X20164Y-17226D02*
X20164Y-16543D01*
X20123Y-16641D01*
X20082Y-16706D01*
X20041Y-16738D01*
G54D13*
G54D20*
X6287Y-6985D02*
X6287Y-6280D01*
X6529Y-6985D02*
X6347Y-6582D01*
X6529Y-6280D02*
X6287Y-6683D01*
X6933Y-6985D02*
X6690Y-6985D01*
X6812Y-6985D02*
X6812Y-6280D01*
X6771Y-6381D01*
X6731Y-6448D01*
X6690Y-6481D01*
G54D13*
G54D20*
X16637Y-9885D02*
X16637Y-9180D01*
X16879Y-9885D02*
X16697Y-9482D01*
X16879Y-9180D02*
X16637Y-9583D01*
X17020Y-9180D02*
X17283Y-9180D01*
X17141Y-9448D01*
X17202Y-9448D01*
X17242Y-9482D01*
X17262Y-9516D01*
X17283Y-9583D01*
X17283Y-9751D01*
X17262Y-9818D01*
X17242Y-9851D01*
X17202Y-9885D01*
X17081Y-9885D01*
X17040Y-9851D01*
X17020Y-9818D01*
G54D13*
G54D20*
X7885Y-12612D02*
X7180Y-12612D01*
X7885Y-12370D02*
X7482Y-12552D01*
X7180Y-12370D02*
X7583Y-12612D01*
X7247Y-12209D02*
X7213Y-12188D01*
X7180Y-12148D01*
X7180Y-12047D01*
X7213Y-12007D01*
X7247Y-11987D01*
X7314Y-11966D01*
X7381Y-11966D01*
X7482Y-11987D01*
X7885Y-12229D01*
X7885Y-11966D01*
G54D13*
G54D19*
X22909Y-17225D02*
X22909Y-16544D01*
X23072Y-16544D01*
X23112Y-16577D01*
X23133Y-16609D01*
X23153Y-16674D01*
X23153Y-16771D01*
X23133Y-16836D01*
X23112Y-16868D01*
X23072Y-16901D01*
X22909Y-16901D01*
X23316Y-16609D02*
X23337Y-16577D01*
X23377Y-16544D01*
X23479Y-16544D01*
X23520Y-16577D01*
X23540Y-16609D01*
X23561Y-16674D01*
X23561Y-16739D01*
X23540Y-16836D01*
X23296Y-17225D01*
X23561Y-17225D01*
G54D13*
G54D12*
X9595Y-9982D02*
X9595Y-10346D01*
X9614Y-10389D01*
X9633Y-10410D01*
X9671Y-10432D01*
X9747Y-10432D01*
X9785Y-10410D01*
X9804Y-10389D01*
X9823Y-10346D01*
X9823Y-9982D01*
X10204Y-9982D02*
X10014Y-9982D01*
X9995Y-10196D01*
X10014Y-10175D01*
X10052Y-10153D01*
X10147Y-10153D01*
X10185Y-10175D01*
X10204Y-10196D01*
X10223Y-10239D01*
X10223Y-10346D01*
X10204Y-10389D01*
X10185Y-10410D01*
X10147Y-10432D01*
X10052Y-10432D01*
X10014Y-10410D01*
X9995Y-10389D01*
X8361Y-9757D02*
X7961Y-9757D01*
X8361Y-9528D01*
X7961Y-9528D01*
X8152Y-9338D02*
X8152Y-9204D01*
X8361Y-9147D02*
X8361Y-9338D01*
X7961Y-9338D01*
X7961Y-9147D01*
X7961Y-8785D02*
X7961Y-8976D01*
X8152Y-8995D01*
X8133Y-8976D01*
X8114Y-8938D01*
X8114Y-8842D01*
X8133Y-8804D01*
X8152Y-8785D01*
X8190Y-8766D01*
X8285Y-8766D01*
X8323Y-8785D01*
X8342Y-8804D01*
X8361Y-8842D01*
X8361Y-8938D01*
X8342Y-8976D01*
X8323Y-8995D01*
X7961Y-8404D02*
X7961Y-8595D01*
X8152Y-8614D01*
X8133Y-8595D01*
X8114Y-8557D01*
X8114Y-8461D01*
X8133Y-8423D01*
X8152Y-8404D01*
X8190Y-8385D01*
X8285Y-8385D01*
X8323Y-8404D01*
X8342Y-8423D01*
X8361Y-8461D01*
X8361Y-8557D01*
X8342Y-8595D01*
X8323Y-8614D01*
X7961Y-8252D02*
X7961Y-8004D01*
X8114Y-8138D01*
X8114Y-8080D01*
X8133Y-8042D01*
X8152Y-8023D01*
X8190Y-8004D01*
X8285Y-8004D01*
X8323Y-8023D01*
X8342Y-8042D01*
X8361Y-8080D01*
X8361Y-8195D01*
X8342Y-8233D01*
X8323Y-8252D01*
X8000Y-7852D02*
X7980Y-7833D01*
X7961Y-7795D01*
X7961Y-7700D01*
X7980Y-7661D01*
X8000Y-7642D01*
X8038Y-7623D01*
X8076Y-7623D01*
X8133Y-7642D01*
X8361Y-7871D01*
X8361Y-7623D01*
G54D14*
X24850Y-6265D02*
X24850Y-6584D01*
X24868Y-6621D01*
X24887Y-6640D01*
X24925Y-6659D01*
X25000Y-6659D01*
X25037Y-6640D01*
X25056Y-6621D01*
X25075Y-6584D01*
X25075Y-6265D01*
X25431Y-6396D02*
X25431Y-6659D01*
X25337Y-6246D02*
X25243Y-6528D01*
X25487Y-6528D01*
X17700Y-6453D02*
X17831Y-6453D01*
X17887Y-6659D02*
X17700Y-6659D01*
X17700Y-6265D01*
X17887Y-6265D01*
X18037Y-6640D02*
X18094Y-6659D01*
X18187Y-6659D01*
X18225Y-6640D01*
X18244Y-6621D01*
X18262Y-6584D01*
X18262Y-6546D01*
X18244Y-6509D01*
X18225Y-6490D01*
X18187Y-6471D01*
X18112Y-6453D01*
X18075Y-6434D01*
X18056Y-6415D01*
X18037Y-6378D01*
X18037Y-6340D01*
X18056Y-6303D01*
X18075Y-6284D01*
X18112Y-6265D01*
X18206Y-6265D01*
X18262Y-6284D01*
X18431Y-6659D02*
X18431Y-6265D01*
X18581Y-6265D01*
X18618Y-6284D01*
X18637Y-6303D01*
X18656Y-6340D01*
X18656Y-6396D01*
X18637Y-6434D01*
X18618Y-6453D01*
X18581Y-6471D01*
X18431Y-6471D01*
X18881Y-6434D02*
X18843Y-6415D01*
X18825Y-6396D01*
X18806Y-6359D01*
X18806Y-6340D01*
X18825Y-6303D01*
X18843Y-6284D01*
X18881Y-6265D01*
X18956Y-6265D01*
X18993Y-6284D01*
X19012Y-6303D01*
X19031Y-6340D01*
X19031Y-6359D01*
X19012Y-6396D01*
X18993Y-6415D01*
X18956Y-6434D01*
X18881Y-6434D01*
X18843Y-6453D01*
X18825Y-6471D01*
X18806Y-6509D01*
X18806Y-6584D01*
X18825Y-6621D01*
X18843Y-6640D01*
X18881Y-6659D01*
X18956Y-6659D01*
X18993Y-6640D01*
X19012Y-6621D01*
X19031Y-6584D01*
X19031Y-6509D01*
X19012Y-6471D01*
X18993Y-6453D01*
X18956Y-6434D01*
X19181Y-6303D02*
X19200Y-6284D01*
X19237Y-6265D01*
X19331Y-6265D01*
X19368Y-6284D01*
X19387Y-6303D01*
X19406Y-6340D01*
X19406Y-6378D01*
X19387Y-6434D01*
X19162Y-6659D01*
X19406Y-6659D01*
X19743Y-6265D02*
X19668Y-6265D01*
X19631Y-6284D01*
X19612Y-6303D01*
X19575Y-6359D01*
X19556Y-6434D01*
X19556Y-6584D01*
X19575Y-6621D01*
X19593Y-6640D01*
X19631Y-6659D01*
X19706Y-6659D01*
X19743Y-6640D01*
X19762Y-6621D01*
X19781Y-6584D01*
X19781Y-6490D01*
X19762Y-6453D01*
X19743Y-6434D01*
X19706Y-6415D01*
X19631Y-6415D01*
X19593Y-6434D01*
X19575Y-6453D01*
X19556Y-6490D01*
X20118Y-6265D02*
X20043Y-6265D01*
X20006Y-6284D01*
X19987Y-6303D01*
X19950Y-6359D01*
X19931Y-6434D01*
X19931Y-6584D01*
X19950Y-6621D01*
X19968Y-6640D01*
X20006Y-6659D01*
X20081Y-6659D01*
X20118Y-6640D01*
X20137Y-6621D01*
X20156Y-6584D01*
X20156Y-6490D01*
X20137Y-6453D01*
X20118Y-6434D01*
X20081Y-6415D01*
X20006Y-6415D01*
X19968Y-6434D01*
X19950Y-6453D01*
X19931Y-6490D01*
X20231Y-6696D02*
X20531Y-6696D01*
X20624Y-6453D02*
X20756Y-6453D01*
X20812Y-6659D02*
X20624Y-6659D01*
X20624Y-6265D01*
X20812Y-6265D01*
X20962Y-6640D02*
X21018Y-6659D01*
X21112Y-6659D01*
X21149Y-6640D01*
X21168Y-6621D01*
X21187Y-6584D01*
X21187Y-6546D01*
X21168Y-6509D01*
X21149Y-6490D01*
X21112Y-6471D01*
X21037Y-6453D01*
X20999Y-6434D01*
X20981Y-6415D01*
X20962Y-6378D01*
X20962Y-6340D01*
X20981Y-6303D01*
X20999Y-6284D01*
X21037Y-6265D01*
X21131Y-6265D01*
X21187Y-6284D01*
X21356Y-6659D02*
X21356Y-6265D01*
X21506Y-6265D01*
X21543Y-6284D01*
X21562Y-6303D01*
X21581Y-6340D01*
X21581Y-6396D01*
X21562Y-6434D01*
X21543Y-6453D01*
X21506Y-6471D01*
X21356Y-6471D01*
X21749Y-6509D02*
X22049Y-6509D01*
X22443Y-6659D02*
X22218Y-6659D01*
X22330Y-6659D02*
X22330Y-6265D01*
X22293Y-6321D01*
X22255Y-6359D01*
X22218Y-6378D01*
X22593Y-6303D02*
X22612Y-6284D01*
X22649Y-6265D01*
X22743Y-6265D01*
X22780Y-6284D01*
X22799Y-6303D01*
X22818Y-6340D01*
X22818Y-6378D01*
X22799Y-6434D01*
X22574Y-6659D01*
X22818Y-6659D01*
G54D21*
X10333Y-16642D02*
X10900Y-16642D01*
X10966Y-16621D01*
X11000Y-16600D01*
X11033Y-16557D01*
X11033Y-16471D01*
X11000Y-16428D01*
X10966Y-16407D01*
X10900Y-16385D01*
X10333Y-16385D01*
X10333Y-16214D02*
X10333Y-15935D01*
X10600Y-16085D01*
X10600Y-16021D01*
X10633Y-15978D01*
X10666Y-15957D01*
X10733Y-15935D01*
X10900Y-15935D01*
X10966Y-15957D01*
X11000Y-15978D01*
X11033Y-16021D01*
X11033Y-16150D01*
X11000Y-16192D01*
X10966Y-16214D01*
G54D13*
G54D11*
X6500Y-15950D02*
X6519Y-15916D01*
X6557Y-15883D01*
X6652Y-15883D01*
X6690Y-15916D01*
X6709Y-15950D01*
X6728Y-16016D01*
X6728Y-16083D01*
X6709Y-16183D01*
X6480Y-16583D01*
X6728Y-16583D01*
X6861Y-15883D02*
X7109Y-15883D01*
X6976Y-16150D01*
X7033Y-16150D01*
X7071Y-16183D01*
X7090Y-16216D01*
X7109Y-16283D01*
X7109Y-16450D01*
X7090Y-16516D01*
X7071Y-16550D01*
X7033Y-16583D01*
X6919Y-16583D01*
X6880Y-16550D01*
X6861Y-16516D01*
X7471Y-16583D02*
X7280Y-16583D01*
X7280Y-15883D01*
X7833Y-16516D02*
X7814Y-16550D01*
X7757Y-16583D01*
X7719Y-16583D01*
X7661Y-16550D01*
X7623Y-16483D01*
X7604Y-16416D01*
X7585Y-16283D01*
X7585Y-16183D01*
X7604Y-16050D01*
X7623Y-15983D01*
X7661Y-15916D01*
X7719Y-15883D01*
X7757Y-15883D01*
X7814Y-15916D01*
X7833Y-15950D01*
X7947Y-15883D02*
X8080Y-16583D01*
X8214Y-15883D01*
X8557Y-16583D02*
X8328Y-16583D01*
X8442Y-16583D02*
X8442Y-15883D01*
X8404Y-15983D01*
X8366Y-16050D01*
X8328Y-16083D01*
X8804Y-15883D02*
X8842Y-15883D01*
X8880Y-15916D01*
X8900Y-15950D01*
X8919Y-16016D01*
X8938Y-16150D01*
X8938Y-16316D01*
X8919Y-16450D01*
X8900Y-16516D01*
X8880Y-16550D01*
X8842Y-16583D01*
X8804Y-16583D01*
X8766Y-16550D01*
X8747Y-16516D01*
X8728Y-16450D01*
X8709Y-16316D01*
X8709Y-16150D01*
X8728Y-16016D01*
X8747Y-15950D01*
X8766Y-15916D01*
X8804Y-15883D01*
X9090Y-15950D02*
X9109Y-15916D01*
X9147Y-15883D01*
X9242Y-15883D01*
X9280Y-15916D01*
X9300Y-15950D01*
X9319Y-16016D01*
X9319Y-16083D01*
X9300Y-16183D01*
X9071Y-16583D01*
X9319Y-16583D01*
X9661Y-16116D02*
X9661Y-16583D01*
X9566Y-15850D02*
X9471Y-16350D01*
X9719Y-16350D01*
G54D13*
G54D11*
G54D17*
X18696Y-19205D02*
X18629Y-19110D01*
X18582Y-19205D02*
X18582Y-19005D01*
X18658Y-19005D01*
X18677Y-19015D01*
X18686Y-19025D01*
X18696Y-19044D01*
X18696Y-19072D01*
X18686Y-19091D01*
X18677Y-19101D01*
X18658Y-19110D01*
X18582Y-19110D01*
X18886Y-19205D02*
X18772Y-19205D01*
X18829Y-19205D02*
X18829Y-19005D01*
X18810Y-19034D01*
X18791Y-19053D01*
X18772Y-19063D01*
X19077Y-19205D02*
X18963Y-19205D01*
X19020Y-19205D02*
X19020Y-19005D01*
X19001Y-19034D01*
X18982Y-19053D01*
X18963Y-19063D01*
M02*
