G04 (created by PCBNEW (2013-jul-07)-stable) date nie, 17 kwi 2016, 11:46:30*
%MOIN*%
G04 Gerber Fmt 3.4, Leading zero omitted, Abs format*
%FSLAX34Y34*%
G01*
G70*
G90*
G04 APERTURE LIST*
%ADD10C,0.001*%
%ADD11R,0.159748X0.095748*%
%ADD12R,0.055748X0.095748*%
%ADD13R,0.070748X0.050748*%
%ADD14R,0.050748X0.070748*%
%ADD15R,0.078748X0.078748*%
%ADD16C,0.082648*%
%ADD17R,0.074848X0.074848*%
%ADD18C,0.085748*%
%ADD19R,0.077748X0.105748*%
%ADD20O,0.077748X0.105748*%
%ADD21C,0.141732*%
G04 APERTURE END LIST*
G54D10*
G54D11*
X11700Y-9400D03*
G54D12*
X11700Y-12000D03*
X10800Y-12000D03*
X12600Y-12000D03*
G54D13*
X11700Y-8475D03*
X11700Y-7725D03*
G54D14*
X14175Y-14050D03*
X14925Y-14050D03*
G54D13*
X8700Y-8525D03*
X8700Y-7775D03*
G54D14*
X14825Y-15250D03*
X14075Y-15250D03*
G54D15*
X18450Y-17950D03*
G54D16*
X19450Y-17950D03*
X20450Y-17950D03*
X21450Y-17950D03*
G54D17*
X9700Y-6700D03*
G54D16*
X8700Y-6700D03*
X7700Y-6700D03*
G54D17*
X13800Y-10100D03*
G54D16*
X14800Y-10100D03*
X15800Y-10100D03*
G54D17*
X6600Y-11300D03*
G54D16*
X6600Y-12300D03*
X6600Y-13300D03*
G54D17*
X22750Y-17950D03*
G54D16*
X23750Y-17950D03*
G54D18*
X13450Y-17950D03*
X15450Y-17950D03*
G54D11*
X8700Y-9400D03*
G54D12*
X8700Y-12000D03*
X7800Y-12000D03*
X9600Y-12000D03*
G54D19*
X9600Y-14800D03*
G54D20*
X8600Y-14800D03*
X7600Y-14800D03*
X6600Y-14800D03*
X6600Y-17800D03*
X7600Y-17800D03*
X8600Y-17800D03*
X9600Y-17800D03*
G54D21*
X25025Y-19150D03*
X7150Y-19125D03*
X17300Y-7350D03*
G54D14*
X22815Y-16865D03*
X23565Y-16865D03*
G54D13*
X22825Y-15425D03*
X22825Y-14675D03*
M02*
