G04 (created by PCBNEW (2013-jul-07)-stable) date nie, 17 kwi 2016, 11:46:30*
%MOIN*%
G04 Gerber Fmt 3.4, Leading zero omitted, Abs format*
%FSLAX34Y34*%
G01*
G70*
G90*
G04 APERTURE LIST*
%ADD10C,0.001*%
%ADD11R,0.0394X0.0984*%
%ADD12R,0.0984X0.0394*%
%ADD13R,0.055X0.035*%
%ADD14R,0.035X0.055*%
%ADD15R,0.063X0.063*%
%ADD16C,0.0669*%
%ADD17R,0.0591X0.0591*%
%ADD18C,0.07*%
%ADD19R,0.045X0.02*%
%ADD20R,0.11811X0.0393701*%
%ADD21R,0.062X0.09*%
%ADD22O,0.062X0.09*%
%ADD23C,0.125984*%
%ADD24R,0.0472441X0.0098*%
%ADD25R,0.0472441X0.0099*%
%ADD26R,0.0098X0.0472441*%
%ADD27R,0.0099X0.0472441*%
%ADD28C,0.0305118*%
%ADD29C,0.01*%
%ADD30C,0.015*%
%ADD31C,0.008*%
G04 APERTURE END LIST*
G54D10*
G54D11*
X9050Y-13337D03*
X9050Y-11763D03*
G54D12*
X11013Y-6850D03*
X12587Y-6850D03*
G54D13*
X15800Y-8975D03*
X15800Y-8225D03*
G54D14*
X17125Y-18300D03*
X16375Y-18300D03*
G54D13*
X14800Y-8975D03*
X14800Y-8225D03*
X13800Y-8975D03*
X13800Y-8225D03*
X14800Y-7575D03*
X14800Y-6825D03*
G54D14*
X10375Y-17950D03*
X11125Y-17950D03*
G54D13*
X16400Y-11975D03*
X16400Y-11225D03*
X15800Y-7575D03*
X15800Y-6825D03*
X6500Y-8275D03*
X6500Y-7525D03*
X6500Y-8925D03*
X6500Y-9675D03*
X10400Y-13375D03*
X10400Y-12625D03*
G54D14*
X8325Y-10600D03*
X9075Y-10600D03*
X10825Y-10100D03*
X11575Y-10100D03*
X11575Y-9200D03*
X10825Y-9200D03*
X10825Y-8200D03*
X11575Y-8200D03*
X12275Y-8200D03*
X13025Y-8200D03*
X17625Y-17500D03*
X16875Y-17500D03*
G54D13*
X12000Y-14425D03*
X12000Y-13675D03*
X17000Y-13275D03*
X17000Y-12525D03*
X13900Y-11325D03*
X13900Y-12075D03*
X11250Y-13675D03*
X11250Y-14425D03*
G54D14*
X16375Y-16700D03*
X17125Y-16700D03*
G54D13*
X13800Y-7575D03*
X13800Y-6825D03*
G54D14*
X12125Y-16350D03*
X11375Y-16350D03*
G54D13*
X15600Y-11225D03*
X15600Y-11975D03*
G54D14*
X14825Y-17950D03*
X14075Y-17950D03*
X11775Y-17950D03*
X12525Y-17950D03*
G54D15*
X18450Y-17950D03*
G54D16*
X19450Y-17950D03*
X20450Y-17950D03*
X21450Y-17950D03*
G54D17*
X9700Y-6700D03*
G54D16*
X8700Y-6700D03*
X7700Y-6700D03*
G54D17*
X13800Y-10100D03*
G54D16*
X14800Y-10100D03*
X15800Y-10100D03*
G54D17*
X6600Y-11300D03*
G54D16*
X6600Y-12300D03*
X6600Y-13300D03*
G54D17*
X22750Y-17950D03*
G54D16*
X23750Y-17950D03*
G54D18*
X13450Y-17950D03*
X15450Y-17950D03*
G54D19*
X9950Y-7950D03*
X9950Y-8450D03*
X9950Y-8950D03*
X9950Y-9450D03*
X7450Y-9450D03*
X7450Y-8950D03*
X7450Y-8450D03*
X7450Y-7950D03*
G54D20*
X18450Y-9944D03*
X18450Y-10731D03*
X18450Y-11518D03*
X18450Y-12306D03*
X18450Y-13093D03*
X18450Y-13881D03*
X18450Y-14668D03*
X18450Y-15455D03*
X24749Y-15455D03*
X24749Y-14668D03*
X24749Y-13881D03*
X24749Y-13093D03*
X24749Y-12306D03*
X24749Y-11518D03*
X24749Y-10731D03*
X24749Y-9944D03*
G54D21*
X9600Y-14800D03*
G54D22*
X8600Y-14800D03*
X7600Y-14800D03*
X6600Y-14800D03*
X6600Y-17800D03*
X7600Y-17800D03*
X8600Y-17800D03*
X9600Y-17800D03*
G54D23*
X25025Y-19150D03*
X7150Y-19125D03*
X17300Y-7350D03*
G54D24*
X12757Y-15832D03*
G54D25*
X12757Y-15635D03*
X12757Y-15438D03*
X12757Y-15242D03*
G54D24*
X12757Y-15045D03*
X12757Y-14848D03*
X12757Y-14651D03*
X12757Y-14454D03*
G54D25*
X12757Y-14257D03*
X12757Y-14061D03*
X12757Y-13864D03*
G54D24*
X12757Y-13667D03*
G54D26*
X13367Y-13057D03*
G54D27*
X13564Y-13057D03*
X13761Y-13057D03*
X13957Y-13057D03*
G54D26*
X14154Y-13057D03*
X14351Y-13057D03*
X14548Y-13057D03*
X14745Y-13057D03*
G54D27*
X14942Y-13057D03*
X15138Y-13057D03*
X15335Y-13057D03*
G54D26*
X15532Y-13057D03*
G54D24*
X16142Y-15832D03*
G54D25*
X16142Y-15645D03*
X16142Y-15438D03*
X16142Y-15242D03*
G54D24*
X16142Y-15045D03*
X16142Y-14848D03*
X16142Y-14651D03*
X16142Y-14454D03*
G54D25*
X16142Y-14257D03*
X16142Y-14061D03*
X16142Y-13864D03*
G54D24*
X16142Y-13667D03*
G54D26*
X13367Y-16442D03*
G54D27*
X13564Y-16442D03*
X13761Y-16442D03*
X13957Y-16442D03*
G54D26*
X14154Y-16442D03*
X14351Y-16442D03*
X14548Y-16442D03*
X14745Y-16442D03*
G54D27*
X14942Y-16442D03*
X15138Y-16442D03*
X15335Y-16442D03*
G54D26*
X15532Y-16442D03*
G54D14*
X19200Y-19025D03*
X18450Y-19025D03*
G54D28*
X11900Y-14800D03*
X15200Y-12300D03*
X13900Y-12450D03*
X11900Y-15700D03*
X10650Y-14250D03*
X14050Y-15800D03*
X14950Y-13600D03*
X16100Y-12625D03*
X14900Y-15800D03*
X12750Y-17350D03*
X15050Y-17300D03*
X12350Y-13000D03*
X16950Y-9550D03*
X16950Y-10150D03*
X16950Y-10700D03*
X17350Y-11900D03*
X10100Y-16850D03*
X19600Y-15350D03*
X9300Y-16600D03*
X19600Y-14700D03*
X23525Y-13875D03*
X14900Y-11600D03*
X13200Y-12450D03*
X20050Y-12300D03*
X22000Y-12350D03*
X13400Y-13850D03*
X16050Y-13150D03*
X12250Y-16950D03*
X17900Y-16250D03*
X15950Y-17350D03*
X22150Y-14650D03*
X23350Y-11500D03*
X13400Y-17100D03*
X13450Y-15400D03*
X22650Y-12350D03*
X14150Y-13600D03*
X7800Y-10700D03*
X6500Y-10400D03*
X17000Y-15400D03*
X17000Y-14500D03*
G54D29*
X15532Y-16125D02*
X15532Y-16442D01*
X15532Y-16442D02*
X15789Y-16700D01*
X15789Y-16700D02*
X16375Y-16700D01*
X15532Y-16125D02*
X15532Y-15882D01*
X14150Y-14650D02*
X14150Y-14652D01*
X14300Y-14650D02*
X14150Y-14650D01*
X15532Y-15882D02*
X14300Y-14650D01*
X16400Y-14652D02*
X16448Y-14652D01*
X16448Y-14652D02*
X16819Y-14280D01*
X16819Y-14280D02*
X16819Y-13880D01*
X16819Y-13880D02*
X17000Y-13700D01*
X17000Y-13700D02*
X17000Y-13275D01*
X16063Y-14652D02*
X16400Y-14652D01*
X16400Y-14652D02*
X16448Y-14652D01*
X16063Y-14652D02*
X15152Y-14652D01*
X15152Y-14652D02*
X14150Y-14652D01*
X11900Y-14800D02*
X12000Y-14700D01*
X12000Y-14700D02*
X12000Y-14425D01*
X12837Y-14455D02*
X13205Y-14455D01*
X13250Y-14500D02*
X13250Y-14652D01*
X13205Y-14455D02*
X13250Y-14500D01*
X12837Y-14455D02*
X12030Y-14455D01*
X12030Y-14455D02*
X12000Y-14425D01*
X14150Y-14652D02*
X13250Y-14652D01*
X13250Y-14652D02*
X13250Y-14650D01*
X13250Y-14800D02*
X13202Y-14848D01*
X13250Y-14650D02*
X13250Y-14800D01*
X13202Y-14848D02*
X12837Y-14848D01*
G54D30*
X18450Y-19025D02*
X18450Y-17950D01*
G54D29*
X12100Y-15350D02*
X12200Y-15250D01*
X12757Y-14651D02*
X12448Y-14651D01*
X12448Y-14651D02*
X12200Y-14900D01*
X12200Y-14900D02*
X12200Y-15250D01*
X16142Y-15645D02*
X16645Y-15645D01*
X16645Y-15645D02*
X16675Y-15675D01*
X15525Y-11975D02*
X15200Y-12300D01*
X15600Y-11975D02*
X15525Y-11975D01*
X13900Y-12075D02*
X13900Y-12450D01*
X14352Y-13137D02*
X14352Y-12752D01*
X14352Y-12752D02*
X13959Y-12359D01*
X13959Y-13137D02*
X13959Y-12359D01*
X13959Y-12359D02*
X13959Y-12134D01*
X13959Y-12134D02*
X13900Y-12075D01*
G54D30*
X11900Y-15700D02*
X11900Y-15350D01*
G54D29*
X15600Y-11975D02*
X16400Y-11975D01*
X15335Y-13137D02*
X15335Y-12240D01*
X15335Y-12240D02*
X15600Y-11975D01*
X16063Y-14455D02*
X15605Y-14455D01*
X15605Y-14455D02*
X15335Y-14185D01*
X15335Y-14185D02*
X15335Y-13137D01*
G54D30*
X17625Y-17500D02*
X18000Y-17500D01*
X18000Y-17500D02*
X18450Y-17950D01*
X10375Y-17950D02*
X10375Y-17475D01*
G54D29*
X10700Y-14300D02*
X10650Y-14250D01*
G54D30*
X10700Y-17150D02*
X10700Y-14300D01*
X10375Y-17475D02*
X10700Y-17150D01*
G54D29*
X12200Y-15250D02*
X12100Y-15350D01*
X12100Y-15350D02*
X11900Y-15350D01*
G54D30*
X11900Y-15350D02*
X11700Y-15350D01*
X11700Y-15350D02*
X11250Y-14900D01*
X11250Y-14900D02*
X11250Y-14425D01*
X10375Y-17950D02*
X9750Y-17950D01*
X9750Y-17950D02*
X9600Y-17800D01*
G54D29*
X17744Y-15455D02*
X18450Y-15455D01*
X17400Y-15800D02*
X17744Y-15455D01*
X16800Y-15800D02*
X17400Y-15800D01*
X16675Y-15675D02*
X16800Y-15800D01*
G54D30*
X18450Y-17950D02*
X18450Y-15456D01*
G54D29*
X18450Y-15456D02*
X18450Y-15455D01*
G54D30*
X11250Y-14425D02*
X10825Y-14425D01*
X10825Y-14425D02*
X10650Y-14250D01*
G54D29*
X14050Y-15800D02*
X14350Y-15800D01*
X14548Y-15998D02*
X14548Y-16363D01*
X14350Y-15800D02*
X14548Y-15998D01*
X13565Y-15985D02*
X13565Y-16363D01*
X13750Y-15800D02*
X13565Y-15985D01*
X14050Y-15800D02*
X13750Y-15800D01*
G54D30*
X7450Y-9450D02*
X7450Y-10150D01*
X7450Y-10150D02*
X7300Y-10300D01*
X7300Y-10300D02*
X7300Y-11050D01*
X7300Y-11050D02*
X7450Y-11200D01*
X7450Y-11200D02*
X7450Y-12450D01*
X7450Y-12450D02*
X6600Y-13300D01*
X9050Y-13337D02*
X10362Y-13337D01*
G54D29*
X10362Y-13337D02*
X10400Y-13375D01*
G54D30*
X6600Y-13300D02*
X8350Y-13300D01*
X8350Y-13300D02*
X9013Y-13300D01*
G54D29*
X9013Y-13300D02*
X9050Y-13337D01*
X14942Y-13057D02*
X14942Y-13592D01*
X14942Y-13592D02*
X14950Y-13600D01*
X14942Y-13057D02*
X14745Y-13057D01*
X15532Y-13057D02*
X15542Y-13057D01*
X15542Y-13057D02*
X15975Y-12625D01*
X15975Y-12625D02*
X16100Y-12625D01*
X12757Y-14257D02*
X13642Y-14257D01*
X13642Y-14257D02*
X13775Y-14125D01*
X13775Y-14125D02*
X13775Y-13675D01*
X13775Y-13675D02*
X13564Y-13464D01*
X13564Y-13464D02*
X13564Y-13057D01*
X15138Y-16363D02*
X15138Y-16038D01*
X14941Y-16363D02*
X15138Y-16363D01*
X15138Y-16038D02*
X14900Y-15800D01*
X15900Y-12800D02*
X15789Y-12800D01*
X15789Y-12800D02*
X15532Y-13057D01*
X16142Y-13864D02*
X16560Y-13864D01*
X16560Y-13864D02*
X16650Y-13775D01*
X16650Y-13775D02*
X16650Y-13575D01*
X16650Y-13575D02*
X16500Y-13425D01*
X16500Y-13425D02*
X16500Y-13100D01*
G54D31*
X13959Y-17241D02*
X13800Y-17400D01*
X13800Y-17400D02*
X12800Y-17400D01*
X12800Y-17400D02*
X12750Y-17350D01*
X13959Y-17241D02*
X13959Y-16363D01*
G54D29*
X14941Y-16363D02*
X14941Y-17191D01*
X14941Y-17191D02*
X15050Y-17300D01*
X12350Y-13000D02*
X12450Y-12900D01*
X15600Y-11225D02*
X15600Y-10900D01*
X16950Y-10150D02*
X16950Y-9550D01*
X15800Y-10700D02*
X16950Y-10700D01*
X15600Y-10900D02*
X15800Y-10700D01*
X17000Y-12525D02*
X17000Y-12250D01*
X17000Y-12250D02*
X17350Y-11900D01*
X16450Y-12950D02*
X16400Y-13000D01*
X17000Y-12525D02*
X16875Y-12525D01*
X16875Y-12525D02*
X16450Y-12950D01*
X15900Y-12800D02*
X16200Y-12800D01*
X16200Y-12800D02*
X16400Y-13000D01*
X16400Y-13000D02*
X16500Y-13100D01*
X16875Y-17500D02*
X16875Y-17275D01*
G54D30*
X16875Y-17275D02*
X17125Y-17025D01*
G54D29*
X17125Y-17025D02*
X17125Y-16700D01*
G54D30*
X17125Y-18300D02*
X17125Y-18075D01*
X17125Y-18075D02*
X16875Y-17825D01*
X16875Y-17825D02*
X16875Y-17500D01*
G54D29*
X14745Y-16363D02*
X14941Y-16363D01*
X11250Y-13675D02*
X12000Y-13675D01*
G54D30*
X15800Y-6825D02*
X14800Y-6825D01*
X12587Y-6850D02*
X13775Y-6850D01*
G54D29*
X13775Y-6850D02*
X13800Y-6825D01*
G54D30*
X13025Y-8200D02*
X13025Y-7288D01*
X13025Y-7288D02*
X12587Y-6850D01*
X9950Y-9450D02*
X9750Y-9450D01*
X9750Y-9450D02*
X8700Y-8400D01*
X7450Y-8950D02*
X8150Y-8950D01*
X8700Y-8400D02*
X8700Y-6700D01*
X8150Y-8950D02*
X8700Y-8400D01*
X8600Y-14800D02*
X8600Y-15350D01*
X8600Y-15350D02*
X10100Y-16850D01*
X19600Y-15350D02*
X20300Y-14650D01*
X20300Y-14650D02*
X20300Y-14200D01*
X20300Y-14200D02*
X19981Y-13881D01*
X19981Y-13881D02*
X18450Y-13881D01*
G54D29*
X17768Y-13881D02*
X18450Y-13881D01*
X17400Y-14250D02*
X17768Y-13881D01*
X17400Y-14600D02*
X17400Y-14250D01*
X17152Y-14848D02*
X17400Y-14600D01*
X16063Y-14848D02*
X17152Y-14848D01*
G54D30*
X6600Y-17800D02*
X6600Y-17300D01*
X6600Y-17300D02*
X7300Y-16600D01*
X7300Y-16600D02*
X9300Y-16600D01*
G54D29*
X19600Y-14700D02*
X19568Y-14668D01*
G54D30*
X19568Y-14668D02*
X18450Y-14668D01*
G54D29*
X16063Y-15045D02*
X17455Y-15045D01*
X17831Y-14668D02*
X18450Y-14668D01*
X17455Y-15045D02*
X17831Y-14668D01*
G54D30*
X16375Y-18300D02*
X15800Y-18300D01*
X15800Y-18300D02*
X15450Y-17950D01*
G54D29*
X14352Y-16363D02*
X14352Y-17202D01*
X14825Y-17675D02*
X14825Y-17950D01*
X14352Y-17202D02*
X14825Y-17675D01*
G54D30*
X14825Y-17950D02*
X15450Y-17950D01*
X7450Y-8450D02*
X6675Y-8450D01*
X6675Y-8450D02*
X6500Y-8275D01*
X6500Y-8925D02*
X6500Y-8275D01*
G54D29*
X9950Y-8950D02*
X10200Y-8950D01*
X10450Y-8700D02*
X11575Y-8700D01*
X10200Y-8950D02*
X10450Y-8700D01*
G54D30*
X11575Y-9200D02*
X11575Y-8700D01*
X11575Y-8700D02*
X11575Y-8200D01*
X9950Y-8450D02*
X9650Y-8450D01*
X9400Y-7000D02*
X9700Y-6700D01*
X9400Y-8200D02*
X9400Y-7000D01*
X9650Y-8450D02*
X9400Y-8200D01*
X9950Y-8450D02*
X10250Y-8450D01*
X10500Y-8200D02*
X10825Y-8200D01*
X10250Y-8450D02*
X10500Y-8200D01*
X6500Y-7525D02*
X7450Y-7525D01*
X7450Y-7525D02*
X7450Y-7500D01*
X7450Y-7950D02*
X7450Y-7500D01*
X7450Y-7500D02*
X7450Y-6950D01*
X7450Y-6950D02*
X7700Y-6700D01*
G54D29*
X23531Y-13881D02*
X24749Y-13881D01*
X23525Y-13875D02*
X23531Y-13881D01*
X14155Y-16363D02*
X14155Y-17870D01*
X14155Y-17870D02*
X14075Y-17950D01*
G54D30*
X14075Y-17950D02*
X13450Y-17950D01*
X12525Y-17950D02*
X13450Y-17950D01*
X19450Y-17950D02*
X19450Y-17500D01*
X23055Y-9944D02*
X24749Y-9944D01*
X21150Y-11850D02*
X23055Y-9944D01*
X21150Y-15800D02*
X21150Y-11850D01*
X19450Y-17500D02*
X21150Y-15800D01*
X20450Y-17950D02*
X20450Y-17000D01*
X22768Y-10731D02*
X24749Y-10731D01*
X21500Y-12000D02*
X22768Y-10731D01*
X21500Y-15950D02*
X21500Y-12000D01*
X20450Y-17000D02*
X21500Y-15950D01*
X14800Y-8225D02*
X14800Y-7575D01*
G54D29*
X14548Y-13137D02*
X14548Y-11352D01*
X14548Y-11352D02*
X15800Y-10100D01*
G54D30*
X15800Y-10100D02*
X15800Y-8975D01*
G54D29*
X15138Y-13057D02*
X15138Y-12688D01*
X15138Y-12688D02*
X14750Y-12300D01*
X14750Y-11750D02*
X14900Y-11600D01*
X14750Y-12300D02*
X14750Y-11750D01*
G54D30*
X9075Y-10600D02*
X10150Y-10600D01*
X10150Y-10600D02*
X10250Y-10700D01*
X14000Y-10900D02*
X14800Y-10100D01*
X10450Y-10900D02*
X14000Y-10900D01*
X10250Y-10700D02*
X10450Y-10900D01*
X14800Y-10100D02*
X14800Y-8975D01*
G54D29*
X13761Y-13057D02*
X13761Y-12736D01*
X13761Y-12736D02*
X13475Y-12450D01*
X13475Y-12450D02*
X13200Y-12450D01*
G54D30*
X11575Y-10100D02*
X13800Y-10100D01*
X13800Y-10100D02*
X13800Y-8975D01*
X15800Y-8225D02*
X15800Y-7575D01*
X13800Y-8225D02*
X13800Y-7575D01*
X20043Y-12306D02*
X18450Y-12306D01*
G54D29*
X20050Y-12300D02*
X20043Y-12306D01*
G54D30*
X19200Y-19025D02*
X21675Y-19025D01*
X21675Y-19025D02*
X22750Y-17950D01*
X22750Y-17950D02*
X22750Y-17450D01*
X25568Y-13093D02*
X24749Y-13093D01*
X25800Y-13325D02*
X25568Y-13093D01*
X25800Y-16125D02*
X25800Y-13325D01*
X25025Y-16900D02*
X25800Y-16125D01*
X23300Y-16900D02*
X25025Y-16900D01*
X22750Y-17450D02*
X23300Y-16900D01*
X22000Y-12350D02*
X22743Y-13093D01*
X22743Y-13093D02*
X24749Y-13093D01*
G54D29*
X12837Y-14062D02*
X13188Y-14062D01*
X13188Y-14062D02*
X13400Y-13850D01*
X16063Y-13163D02*
X16050Y-13150D01*
X16063Y-13668D02*
X16063Y-13163D01*
G54D30*
X12125Y-16350D02*
X12125Y-16825D01*
X12125Y-16825D02*
X12250Y-16950D01*
G54D29*
X17900Y-16250D02*
X17700Y-16050D01*
X17700Y-16050D02*
X16600Y-16050D01*
X16600Y-16050D02*
X16382Y-15832D01*
X16382Y-15832D02*
X16063Y-15832D01*
X12125Y-16350D02*
X12650Y-16350D01*
X12650Y-16350D02*
X12837Y-16163D01*
X12837Y-16163D02*
X12837Y-15832D01*
X12837Y-15635D02*
X12837Y-15832D01*
X12837Y-15438D02*
X12837Y-15635D01*
X12837Y-15241D02*
X12837Y-15438D01*
X16063Y-14062D02*
X16063Y-14259D01*
X16063Y-13668D02*
X15732Y-13668D01*
X15762Y-14062D02*
X16063Y-14062D01*
X15650Y-13950D02*
X15762Y-14062D01*
X15650Y-13750D02*
X15650Y-13950D01*
X15732Y-13668D02*
X15650Y-13750D01*
G54D30*
X18450Y-11518D02*
X17318Y-11518D01*
X17318Y-11518D02*
X17025Y-11225D01*
X17025Y-11225D02*
X16400Y-11225D01*
G54D29*
X15335Y-16363D02*
X15335Y-16735D01*
X15335Y-16735D02*
X15950Y-17350D01*
X22150Y-14650D02*
X22168Y-14668D01*
G54D30*
X22168Y-14668D02*
X24749Y-14668D01*
G54D29*
X13368Y-16363D02*
X13368Y-17068D01*
G54D30*
X23368Y-11518D02*
X24749Y-11518D01*
G54D29*
X23350Y-11500D02*
X23368Y-11518D01*
X13368Y-17068D02*
X13400Y-17100D01*
X13095Y-15045D02*
X13450Y-15400D01*
X12837Y-15045D02*
X13095Y-15045D01*
G54D30*
X22693Y-12306D02*
X24749Y-12306D01*
G54D29*
X22650Y-12350D02*
X22693Y-12306D01*
X14155Y-13137D02*
X14155Y-13595D01*
X14155Y-13595D02*
X14150Y-13600D01*
G54D30*
X10825Y-10100D02*
X10825Y-9200D01*
X8325Y-10600D02*
X7900Y-10600D01*
X7900Y-10600D02*
X7800Y-10700D01*
X6500Y-10400D02*
X6500Y-9675D01*
G54D29*
X18450Y-13093D02*
X17906Y-13093D01*
X16841Y-15241D02*
X16063Y-15241D01*
X17000Y-15400D02*
X16841Y-15241D01*
X17000Y-14000D02*
X17000Y-14500D01*
X17906Y-13093D02*
X17000Y-14000D01*
G54D30*
X6600Y-11300D02*
X6250Y-11300D01*
X6250Y-11300D02*
X5950Y-11000D01*
X5950Y-11000D02*
X5950Y-7050D01*
X5950Y-7050D02*
X6950Y-6050D01*
X6950Y-6050D02*
X10213Y-6050D01*
X10213Y-6050D02*
X11013Y-6850D01*
X12275Y-8200D02*
X12275Y-7775D01*
G54D29*
X11350Y-6850D02*
X11013Y-6850D01*
G54D30*
X12275Y-7775D02*
X11350Y-6850D01*
G54D29*
X9950Y-7950D02*
X9950Y-7913D01*
G54D30*
X9950Y-7913D02*
X11013Y-6850D01*
G54D10*
G36*
X10471Y-9649D02*
X10438Y-9683D01*
X10400Y-9775D01*
X10399Y-9874D01*
X10399Y-10390D01*
X10379Y-10370D01*
X10274Y-10299D01*
X10150Y-10275D01*
X9900Y-10275D01*
X9900Y-9737D01*
X9900Y-9500D01*
X9537Y-9500D01*
X9475Y-9562D01*
X9474Y-9599D01*
X9512Y-9691D01*
X9583Y-9761D01*
X9675Y-9799D01*
X9774Y-9800D01*
X9837Y-9800D01*
X9900Y-9737D01*
X9900Y-10275D01*
X9499Y-10275D01*
X9462Y-10183D01*
X9391Y-10113D01*
X9299Y-10075D01*
X9200Y-10074D01*
X9040Y-10074D01*
X8850Y-10074D01*
X8758Y-10112D01*
X8699Y-10171D01*
X8641Y-10113D01*
X8549Y-10075D01*
X8450Y-10074D01*
X8100Y-10074D01*
X8008Y-10112D01*
X7938Y-10183D01*
X7900Y-10275D01*
X7900Y-10275D01*
X7787Y-10297D01*
X7787Y-10297D01*
X7734Y-10297D01*
X7750Y-10274D01*
X7750Y-10274D01*
X7775Y-10150D01*
X7775Y-9779D01*
X7816Y-9762D01*
X7886Y-9691D01*
X7924Y-9599D01*
X7925Y-9500D01*
X7925Y-9300D01*
X7887Y-9208D01*
X7878Y-9200D01*
X7887Y-9191D01*
X7925Y-9099D01*
X7925Y-9062D01*
X7862Y-9000D01*
X7500Y-9000D01*
X7500Y-9007D01*
X7400Y-9007D01*
X7400Y-9000D01*
X7392Y-9000D01*
X7392Y-8900D01*
X7400Y-8900D01*
X7400Y-8892D01*
X7500Y-8892D01*
X7500Y-8900D01*
X7862Y-8900D01*
X7925Y-8837D01*
X7925Y-8800D01*
X7887Y-8708D01*
X7878Y-8700D01*
X7886Y-8691D01*
X7924Y-8599D01*
X7925Y-8500D01*
X7925Y-8300D01*
X7887Y-8208D01*
X7878Y-8200D01*
X7886Y-8191D01*
X7924Y-8099D01*
X7925Y-8000D01*
X7925Y-7800D01*
X7887Y-7708D01*
X7816Y-7638D01*
X7775Y-7620D01*
X7775Y-7525D01*
X7775Y-7500D01*
X7775Y-7284D01*
X7815Y-7284D01*
X8030Y-7195D01*
X8195Y-7031D01*
X8203Y-7012D01*
X8289Y-7040D01*
X8629Y-6700D01*
X8623Y-6694D01*
X8694Y-6623D01*
X8700Y-6629D01*
X8705Y-6623D01*
X8776Y-6694D01*
X8770Y-6700D01*
X8776Y-6705D01*
X8705Y-6776D01*
X8700Y-6770D01*
X8359Y-7110D01*
X8391Y-7209D01*
X8609Y-7289D01*
X8842Y-7278D01*
X9008Y-7209D01*
X9040Y-7110D01*
X9040Y-7110D01*
X9075Y-7145D01*
X9075Y-8200D01*
X9099Y-8324D01*
X9170Y-8429D01*
X9420Y-8679D01*
X9420Y-8679D01*
X9502Y-8734D01*
X9475Y-8800D01*
X9474Y-8899D01*
X9474Y-9099D01*
X9512Y-9191D01*
X9521Y-9200D01*
X9512Y-9208D01*
X9474Y-9300D01*
X9475Y-9337D01*
X9537Y-9400D01*
X9900Y-9400D01*
X9900Y-9392D01*
X10000Y-9392D01*
X10000Y-9400D01*
X10007Y-9400D01*
X10007Y-9500D01*
X10000Y-9500D01*
X10000Y-9737D01*
X10062Y-9800D01*
X10125Y-9800D01*
X10224Y-9799D01*
X10316Y-9761D01*
X10387Y-9691D01*
X10425Y-9599D01*
X10425Y-9585D01*
X10437Y-9616D01*
X10471Y-9649D01*
X10471Y-9649D01*
G37*
G54D29*
X10471Y-9649D02*
X10438Y-9683D01*
X10400Y-9775D01*
X10399Y-9874D01*
X10399Y-10390D01*
X10379Y-10370D01*
X10274Y-10299D01*
X10150Y-10275D01*
X9900Y-10275D01*
X9900Y-9737D01*
X9900Y-9500D01*
X9537Y-9500D01*
X9475Y-9562D01*
X9474Y-9599D01*
X9512Y-9691D01*
X9583Y-9761D01*
X9675Y-9799D01*
X9774Y-9800D01*
X9837Y-9800D01*
X9900Y-9737D01*
X9900Y-10275D01*
X9499Y-10275D01*
X9462Y-10183D01*
X9391Y-10113D01*
X9299Y-10075D01*
X9200Y-10074D01*
X9040Y-10074D01*
X8850Y-10074D01*
X8758Y-10112D01*
X8699Y-10171D01*
X8641Y-10113D01*
X8549Y-10075D01*
X8450Y-10074D01*
X8100Y-10074D01*
X8008Y-10112D01*
X7938Y-10183D01*
X7900Y-10275D01*
X7900Y-10275D01*
X7787Y-10297D01*
X7787Y-10297D01*
X7734Y-10297D01*
X7750Y-10274D01*
X7750Y-10274D01*
X7775Y-10150D01*
X7775Y-9779D01*
X7816Y-9762D01*
X7886Y-9691D01*
X7924Y-9599D01*
X7925Y-9500D01*
X7925Y-9300D01*
X7887Y-9208D01*
X7878Y-9200D01*
X7887Y-9191D01*
X7925Y-9099D01*
X7925Y-9062D01*
X7862Y-9000D01*
X7500Y-9000D01*
X7500Y-9007D01*
X7400Y-9007D01*
X7400Y-9000D01*
X7392Y-9000D01*
X7392Y-8900D01*
X7400Y-8900D01*
X7400Y-8892D01*
X7500Y-8892D01*
X7500Y-8900D01*
X7862Y-8900D01*
X7925Y-8837D01*
X7925Y-8800D01*
X7887Y-8708D01*
X7878Y-8700D01*
X7886Y-8691D01*
X7924Y-8599D01*
X7925Y-8500D01*
X7925Y-8300D01*
X7887Y-8208D01*
X7878Y-8200D01*
X7886Y-8191D01*
X7924Y-8099D01*
X7925Y-8000D01*
X7925Y-7800D01*
X7887Y-7708D01*
X7816Y-7638D01*
X7775Y-7620D01*
X7775Y-7525D01*
X7775Y-7500D01*
X7775Y-7284D01*
X7815Y-7284D01*
X8030Y-7195D01*
X8195Y-7031D01*
X8203Y-7012D01*
X8289Y-7040D01*
X8629Y-6700D01*
X8623Y-6694D01*
X8694Y-6623D01*
X8700Y-6629D01*
X8705Y-6623D01*
X8776Y-6694D01*
X8770Y-6700D01*
X8776Y-6705D01*
X8705Y-6776D01*
X8700Y-6770D01*
X8359Y-7110D01*
X8391Y-7209D01*
X8609Y-7289D01*
X8842Y-7278D01*
X9008Y-7209D01*
X9040Y-7110D01*
X9040Y-7110D01*
X9075Y-7145D01*
X9075Y-8200D01*
X9099Y-8324D01*
X9170Y-8429D01*
X9420Y-8679D01*
X9420Y-8679D01*
X9502Y-8734D01*
X9475Y-8800D01*
X9474Y-8899D01*
X9474Y-9099D01*
X9512Y-9191D01*
X9521Y-9200D01*
X9512Y-9208D01*
X9474Y-9300D01*
X9475Y-9337D01*
X9537Y-9400D01*
X9900Y-9400D01*
X9900Y-9392D01*
X10000Y-9392D01*
X10000Y-9400D01*
X10007Y-9400D01*
X10007Y-9500D01*
X10000Y-9500D01*
X10000Y-9737D01*
X10062Y-9800D01*
X10125Y-9800D01*
X10224Y-9799D01*
X10316Y-9761D01*
X10387Y-9691D01*
X10425Y-9599D01*
X10425Y-9585D01*
X10437Y-9616D01*
X10471Y-9649D01*
G54D10*
G36*
X13855Y-17424D02*
X13850Y-17424D01*
X13796Y-17447D01*
X13790Y-17441D01*
X13675Y-17393D01*
X13741Y-17328D01*
X13802Y-17180D01*
X13802Y-17020D01*
X13764Y-16929D01*
X13855Y-16929D01*
X13855Y-17424D01*
X13855Y-17424D01*
G37*
G54D29*
X13855Y-17424D02*
X13850Y-17424D01*
X13796Y-17447D01*
X13790Y-17441D01*
X13675Y-17393D01*
X13741Y-17328D01*
X13802Y-17180D01*
X13802Y-17020D01*
X13764Y-16929D01*
X13855Y-16929D01*
X13855Y-17424D01*
G54D10*
G36*
X13957Y-11375D02*
X13950Y-11375D01*
X13950Y-11382D01*
X13850Y-11382D01*
X13850Y-11375D01*
X13437Y-11375D01*
X13375Y-11437D01*
X13374Y-11549D01*
X13412Y-11641D01*
X13471Y-11700D01*
X13413Y-11758D01*
X13375Y-11850D01*
X13374Y-11949D01*
X13374Y-12086D01*
X13280Y-12047D01*
X13120Y-12047D01*
X12972Y-12108D01*
X12858Y-12221D01*
X12797Y-12369D01*
X12797Y-12529D01*
X12858Y-12677D01*
X12971Y-12791D01*
X13068Y-12831D01*
X13068Y-12870D01*
X13068Y-13342D01*
X13086Y-13386D01*
X13043Y-13368D01*
X12943Y-13368D01*
X12491Y-13368D01*
X12487Y-13358D01*
X12416Y-13288D01*
X12324Y-13250D01*
X12225Y-13249D01*
X12112Y-13250D01*
X12050Y-13312D01*
X12050Y-13625D01*
X12057Y-13625D01*
X12057Y-13725D01*
X12050Y-13725D01*
X12050Y-13732D01*
X11950Y-13732D01*
X11950Y-13725D01*
X11950Y-13625D01*
X11950Y-13312D01*
X11887Y-13250D01*
X11774Y-13249D01*
X11675Y-13250D01*
X11625Y-13270D01*
X11574Y-13250D01*
X11475Y-13249D01*
X11362Y-13250D01*
X11300Y-13312D01*
X11300Y-13625D01*
X11537Y-13625D01*
X11712Y-13625D01*
X11950Y-13625D01*
X11950Y-13725D01*
X11712Y-13725D01*
X11537Y-13725D01*
X11300Y-13725D01*
X11300Y-13732D01*
X11200Y-13732D01*
X11200Y-13725D01*
X11192Y-13725D01*
X11192Y-13625D01*
X11200Y-13625D01*
X11200Y-13312D01*
X11137Y-13250D01*
X11024Y-13249D01*
X10925Y-13250D01*
X10925Y-13250D01*
X10925Y-13150D01*
X10887Y-13058D01*
X10828Y-13000D01*
X10887Y-12941D01*
X10925Y-12849D01*
X10925Y-12400D01*
X10887Y-12308D01*
X10816Y-12238D01*
X10724Y-12200D01*
X10625Y-12199D01*
X10512Y-12200D01*
X10450Y-12262D01*
X10450Y-12575D01*
X10862Y-12575D01*
X10925Y-12512D01*
X10925Y-12400D01*
X10925Y-12849D01*
X10925Y-12737D01*
X10862Y-12675D01*
X10450Y-12675D01*
X10450Y-12682D01*
X10350Y-12682D01*
X10350Y-12675D01*
X10350Y-12575D01*
X10350Y-12262D01*
X10287Y-12200D01*
X10174Y-12199D01*
X10075Y-12200D01*
X9983Y-12238D01*
X9912Y-12308D01*
X9874Y-12400D01*
X9875Y-12512D01*
X9937Y-12575D01*
X10350Y-12575D01*
X10350Y-12675D01*
X9937Y-12675D01*
X9875Y-12737D01*
X9874Y-12849D01*
X9912Y-12941D01*
X9971Y-13000D01*
X9959Y-13012D01*
X9497Y-13012D01*
X9497Y-12795D01*
X9497Y-12304D01*
X9497Y-11875D01*
X9434Y-11813D01*
X9100Y-11813D01*
X9100Y-12442D01*
X9162Y-12505D01*
X9197Y-12505D01*
X9296Y-12504D01*
X9388Y-12466D01*
X9459Y-12396D01*
X9497Y-12304D01*
X9497Y-12795D01*
X9459Y-12703D01*
X9388Y-12633D01*
X9296Y-12595D01*
X9197Y-12594D01*
X9000Y-12594D01*
X9000Y-12442D01*
X9000Y-11813D01*
X8665Y-11813D01*
X8603Y-11875D01*
X8602Y-12304D01*
X8640Y-12396D01*
X8711Y-12466D01*
X8803Y-12504D01*
X8902Y-12505D01*
X8937Y-12505D01*
X9000Y-12442D01*
X9000Y-12594D01*
X8803Y-12594D01*
X8711Y-12632D01*
X8641Y-12703D01*
X8603Y-12795D01*
X8602Y-12894D01*
X8602Y-12975D01*
X8350Y-12975D01*
X7384Y-12975D01*
X7679Y-12679D01*
X7750Y-12574D01*
X7750Y-12574D01*
X7775Y-12450D01*
X7775Y-11200D01*
X7755Y-11102D01*
X7879Y-11102D01*
X7981Y-11060D01*
X8008Y-11086D01*
X8100Y-11124D01*
X8199Y-11125D01*
X8549Y-11125D01*
X8641Y-11087D01*
X8700Y-11028D01*
X8724Y-11053D01*
X8711Y-11059D01*
X8640Y-11129D01*
X8602Y-11221D01*
X8603Y-11650D01*
X8665Y-11713D01*
X9000Y-11713D01*
X9000Y-11705D01*
X9100Y-11705D01*
X9100Y-11713D01*
X9434Y-11713D01*
X9497Y-11650D01*
X9497Y-11221D01*
X9459Y-11129D01*
X9404Y-11074D01*
X9461Y-11016D01*
X9499Y-10925D01*
X10015Y-10925D01*
X10020Y-10929D01*
X10020Y-10929D01*
X10220Y-11129D01*
X10220Y-11129D01*
X10325Y-11200D01*
X10325Y-11200D01*
X10450Y-11225D01*
X13387Y-11225D01*
X13437Y-11275D01*
X13850Y-11275D01*
X13850Y-11267D01*
X13950Y-11267D01*
X13950Y-11275D01*
X13957Y-11275D01*
X13957Y-11375D01*
X13957Y-11375D01*
G37*
G54D29*
X13957Y-11375D02*
X13950Y-11375D01*
X13950Y-11382D01*
X13850Y-11382D01*
X13850Y-11375D01*
X13437Y-11375D01*
X13375Y-11437D01*
X13374Y-11549D01*
X13412Y-11641D01*
X13471Y-11700D01*
X13413Y-11758D01*
X13375Y-11850D01*
X13374Y-11949D01*
X13374Y-12086D01*
X13280Y-12047D01*
X13120Y-12047D01*
X12972Y-12108D01*
X12858Y-12221D01*
X12797Y-12369D01*
X12797Y-12529D01*
X12858Y-12677D01*
X12971Y-12791D01*
X13068Y-12831D01*
X13068Y-12870D01*
X13068Y-13342D01*
X13086Y-13386D01*
X13043Y-13368D01*
X12943Y-13368D01*
X12491Y-13368D01*
X12487Y-13358D01*
X12416Y-13288D01*
X12324Y-13250D01*
X12225Y-13249D01*
X12112Y-13250D01*
X12050Y-13312D01*
X12050Y-13625D01*
X12057Y-13625D01*
X12057Y-13725D01*
X12050Y-13725D01*
X12050Y-13732D01*
X11950Y-13732D01*
X11950Y-13725D01*
X11950Y-13625D01*
X11950Y-13312D01*
X11887Y-13250D01*
X11774Y-13249D01*
X11675Y-13250D01*
X11625Y-13270D01*
X11574Y-13250D01*
X11475Y-13249D01*
X11362Y-13250D01*
X11300Y-13312D01*
X11300Y-13625D01*
X11537Y-13625D01*
X11712Y-13625D01*
X11950Y-13625D01*
X11950Y-13725D01*
X11712Y-13725D01*
X11537Y-13725D01*
X11300Y-13725D01*
X11300Y-13732D01*
X11200Y-13732D01*
X11200Y-13725D01*
X11192Y-13725D01*
X11192Y-13625D01*
X11200Y-13625D01*
X11200Y-13312D01*
X11137Y-13250D01*
X11024Y-13249D01*
X10925Y-13250D01*
X10925Y-13250D01*
X10925Y-13150D01*
X10887Y-13058D01*
X10828Y-13000D01*
X10887Y-12941D01*
X10925Y-12849D01*
X10925Y-12400D01*
X10887Y-12308D01*
X10816Y-12238D01*
X10724Y-12200D01*
X10625Y-12199D01*
X10512Y-12200D01*
X10450Y-12262D01*
X10450Y-12575D01*
X10862Y-12575D01*
X10925Y-12512D01*
X10925Y-12400D01*
X10925Y-12849D01*
X10925Y-12737D01*
X10862Y-12675D01*
X10450Y-12675D01*
X10450Y-12682D01*
X10350Y-12682D01*
X10350Y-12675D01*
X10350Y-12575D01*
X10350Y-12262D01*
X10287Y-12200D01*
X10174Y-12199D01*
X10075Y-12200D01*
X9983Y-12238D01*
X9912Y-12308D01*
X9874Y-12400D01*
X9875Y-12512D01*
X9937Y-12575D01*
X10350Y-12575D01*
X10350Y-12675D01*
X9937Y-12675D01*
X9875Y-12737D01*
X9874Y-12849D01*
X9912Y-12941D01*
X9971Y-13000D01*
X9959Y-13012D01*
X9497Y-13012D01*
X9497Y-12795D01*
X9497Y-12304D01*
X9497Y-11875D01*
X9434Y-11813D01*
X9100Y-11813D01*
X9100Y-12442D01*
X9162Y-12505D01*
X9197Y-12505D01*
X9296Y-12504D01*
X9388Y-12466D01*
X9459Y-12396D01*
X9497Y-12304D01*
X9497Y-12795D01*
X9459Y-12703D01*
X9388Y-12633D01*
X9296Y-12595D01*
X9197Y-12594D01*
X9000Y-12594D01*
X9000Y-12442D01*
X9000Y-11813D01*
X8665Y-11813D01*
X8603Y-11875D01*
X8602Y-12304D01*
X8640Y-12396D01*
X8711Y-12466D01*
X8803Y-12504D01*
X8902Y-12505D01*
X8937Y-12505D01*
X9000Y-12442D01*
X9000Y-12594D01*
X8803Y-12594D01*
X8711Y-12632D01*
X8641Y-12703D01*
X8603Y-12795D01*
X8602Y-12894D01*
X8602Y-12975D01*
X8350Y-12975D01*
X7384Y-12975D01*
X7679Y-12679D01*
X7750Y-12574D01*
X7750Y-12574D01*
X7775Y-12450D01*
X7775Y-11200D01*
X7755Y-11102D01*
X7879Y-11102D01*
X7981Y-11060D01*
X8008Y-11086D01*
X8100Y-11124D01*
X8199Y-11125D01*
X8549Y-11125D01*
X8641Y-11087D01*
X8700Y-11028D01*
X8724Y-11053D01*
X8711Y-11059D01*
X8640Y-11129D01*
X8602Y-11221D01*
X8603Y-11650D01*
X8665Y-11713D01*
X9000Y-11713D01*
X9000Y-11705D01*
X9100Y-11705D01*
X9100Y-11713D01*
X9434Y-11713D01*
X9497Y-11650D01*
X9497Y-11221D01*
X9459Y-11129D01*
X9404Y-11074D01*
X9461Y-11016D01*
X9499Y-10925D01*
X10015Y-10925D01*
X10020Y-10929D01*
X10020Y-10929D01*
X10220Y-11129D01*
X10220Y-11129D01*
X10325Y-11200D01*
X10325Y-11200D01*
X10450Y-11225D01*
X13387Y-11225D01*
X13437Y-11275D01*
X13850Y-11275D01*
X13850Y-11267D01*
X13950Y-11267D01*
X13950Y-11275D01*
X13957Y-11275D01*
X13957Y-11375D01*
G54D10*
G36*
X15092Y-14352D02*
X14310Y-14352D01*
X14300Y-14350D01*
X14150Y-14350D01*
X14139Y-14352D01*
X13504Y-14352D01*
X13462Y-14287D01*
X13462Y-14287D01*
X13426Y-14252D01*
X13479Y-14252D01*
X13627Y-14191D01*
X13741Y-14078D01*
X13802Y-13930D01*
X13802Y-13813D01*
X13808Y-13827D01*
X13921Y-13941D01*
X14069Y-14002D01*
X14229Y-14002D01*
X14377Y-13941D01*
X14491Y-13828D01*
X14552Y-13680D01*
X14552Y-13543D01*
X14646Y-13543D01*
X14646Y-13543D01*
X14646Y-13543D01*
X14658Y-13543D01*
X14666Y-13535D01*
X14738Y-13505D01*
X14745Y-13499D01*
X14751Y-13505D01*
X14824Y-13535D01*
X14832Y-13543D01*
X14843Y-13543D01*
X14843Y-13543D01*
X14843Y-13543D01*
X14843Y-13543D01*
X14843Y-13543D01*
X14854Y-13543D01*
X14862Y-13535D01*
X14935Y-13505D01*
X14941Y-13499D01*
X14947Y-13505D01*
X15022Y-13536D01*
X15029Y-13543D01*
X15035Y-13543D01*
X15035Y-14185D01*
X15057Y-14299D01*
X15092Y-14352D01*
X15092Y-14352D01*
G37*
G54D29*
X15092Y-14352D02*
X14310Y-14352D01*
X14300Y-14350D01*
X14150Y-14350D01*
X14139Y-14352D01*
X13504Y-14352D01*
X13462Y-14287D01*
X13462Y-14287D01*
X13426Y-14252D01*
X13479Y-14252D01*
X13627Y-14191D01*
X13741Y-14078D01*
X13802Y-13930D01*
X13802Y-13813D01*
X13808Y-13827D01*
X13921Y-13941D01*
X14069Y-14002D01*
X14229Y-14002D01*
X14377Y-13941D01*
X14491Y-13828D01*
X14552Y-13680D01*
X14552Y-13543D01*
X14646Y-13543D01*
X14646Y-13543D01*
X14646Y-13543D01*
X14658Y-13543D01*
X14666Y-13535D01*
X14738Y-13505D01*
X14745Y-13499D01*
X14751Y-13505D01*
X14824Y-13535D01*
X14832Y-13543D01*
X14843Y-13543D01*
X14843Y-13543D01*
X14843Y-13543D01*
X14843Y-13543D01*
X14843Y-13543D01*
X14854Y-13543D01*
X14862Y-13535D01*
X14935Y-13505D01*
X14941Y-13499D01*
X14947Y-13505D01*
X15022Y-13536D01*
X15029Y-13543D01*
X15035Y-13543D01*
X15035Y-14185D01*
X15057Y-14299D01*
X15092Y-14352D01*
G54D10*
G36*
X15198Y-15972D02*
X15144Y-15994D01*
X15138Y-16000D01*
X15133Y-15994D01*
X15059Y-15964D01*
X15051Y-15956D01*
X15041Y-15956D01*
X15041Y-15956D01*
X15040Y-15956D01*
X15039Y-15956D01*
X15039Y-15956D01*
X15029Y-15956D01*
X15021Y-15964D01*
X14948Y-15994D01*
X14941Y-16000D01*
X14935Y-15994D01*
X14862Y-15964D01*
X14854Y-15956D01*
X14843Y-15956D01*
X14843Y-15956D01*
X14843Y-15956D01*
X14843Y-15956D01*
X14843Y-15956D01*
X14839Y-15956D01*
X14825Y-15883D01*
X14760Y-15785D01*
X14760Y-15785D01*
X14562Y-15587D01*
X14464Y-15522D01*
X14350Y-15500D01*
X14319Y-15500D01*
X14278Y-15458D01*
X14130Y-15397D01*
X13970Y-15397D01*
X13852Y-15446D01*
X13852Y-15320D01*
X13791Y-15172D01*
X13678Y-15058D01*
X13530Y-14997D01*
X13471Y-14997D01*
X13502Y-14952D01*
X14150Y-14952D01*
X14177Y-14952D01*
X15198Y-15972D01*
X15198Y-15972D01*
G37*
G54D29*
X15198Y-15972D02*
X15144Y-15994D01*
X15138Y-16000D01*
X15133Y-15994D01*
X15059Y-15964D01*
X15051Y-15956D01*
X15041Y-15956D01*
X15041Y-15956D01*
X15040Y-15956D01*
X15039Y-15956D01*
X15039Y-15956D01*
X15029Y-15956D01*
X15021Y-15964D01*
X14948Y-15994D01*
X14941Y-16000D01*
X14935Y-15994D01*
X14862Y-15964D01*
X14854Y-15956D01*
X14843Y-15956D01*
X14843Y-15956D01*
X14843Y-15956D01*
X14843Y-15956D01*
X14843Y-15956D01*
X14839Y-15956D01*
X14825Y-15883D01*
X14760Y-15785D01*
X14760Y-15785D01*
X14562Y-15587D01*
X14464Y-15522D01*
X14350Y-15500D01*
X14319Y-15500D01*
X14278Y-15458D01*
X14130Y-15397D01*
X13970Y-15397D01*
X13852Y-15446D01*
X13852Y-15320D01*
X13791Y-15172D01*
X13678Y-15058D01*
X13530Y-14997D01*
X13471Y-14997D01*
X13502Y-14952D01*
X14150Y-14952D01*
X14177Y-14952D01*
X15198Y-15972D01*
G54D10*
G36*
X15525Y-17350D02*
X15331Y-17349D01*
X15110Y-17441D01*
X15104Y-17447D01*
X15049Y-17425D01*
X14999Y-17424D01*
X14652Y-17077D01*
X14652Y-16929D01*
X14658Y-16929D01*
X14666Y-16921D01*
X14738Y-16891D01*
X14745Y-16885D01*
X14751Y-16891D01*
X14824Y-16921D01*
X14832Y-16929D01*
X14843Y-16929D01*
X14843Y-16929D01*
X14843Y-16929D01*
X14843Y-16929D01*
X14843Y-16929D01*
X14854Y-16929D01*
X14862Y-16921D01*
X14935Y-16891D01*
X14941Y-16885D01*
X14948Y-16891D01*
X15021Y-16921D01*
X15029Y-16929D01*
X15039Y-16929D01*
X15039Y-16929D01*
X15040Y-16929D01*
X15041Y-16929D01*
X15041Y-16929D01*
X15051Y-16929D01*
X15059Y-16921D01*
X15088Y-16909D01*
X15088Y-16929D01*
X15110Y-16929D01*
X15122Y-16947D01*
X15525Y-17350D01*
X15525Y-17350D01*
G37*
G54D29*
X15525Y-17350D02*
X15331Y-17349D01*
X15110Y-17441D01*
X15104Y-17447D01*
X15049Y-17425D01*
X14999Y-17424D01*
X14652Y-17077D01*
X14652Y-16929D01*
X14658Y-16929D01*
X14666Y-16921D01*
X14738Y-16891D01*
X14745Y-16885D01*
X14751Y-16891D01*
X14824Y-16921D01*
X14832Y-16929D01*
X14843Y-16929D01*
X14843Y-16929D01*
X14843Y-16929D01*
X14843Y-16929D01*
X14843Y-16929D01*
X14854Y-16929D01*
X14862Y-16921D01*
X14935Y-16891D01*
X14941Y-16885D01*
X14948Y-16891D01*
X15021Y-16921D01*
X15029Y-16929D01*
X15039Y-16929D01*
X15039Y-16929D01*
X15040Y-16929D01*
X15041Y-16929D01*
X15041Y-16929D01*
X15051Y-16929D01*
X15059Y-16921D01*
X15088Y-16909D01*
X15088Y-16929D01*
X15110Y-16929D01*
X15122Y-16947D01*
X15525Y-17350D01*
G54D10*
G36*
X16932Y-17550D02*
X16925Y-17550D01*
X16925Y-17557D01*
X16825Y-17557D01*
X16825Y-17550D01*
X16512Y-17550D01*
X16450Y-17612D01*
X16449Y-17725D01*
X16449Y-17774D01*
X16150Y-17774D01*
X16058Y-17812D01*
X16047Y-17824D01*
X16017Y-17752D01*
X16029Y-17752D01*
X16177Y-17691D01*
X16291Y-17578D01*
X16352Y-17430D01*
X16352Y-17270D01*
X16333Y-17225D01*
X16449Y-17225D01*
X16449Y-17274D01*
X16450Y-17387D01*
X16512Y-17450D01*
X16825Y-17450D01*
X16825Y-17442D01*
X16925Y-17442D01*
X16925Y-17450D01*
X16932Y-17450D01*
X16932Y-17550D01*
X16932Y-17550D01*
G37*
G54D29*
X16932Y-17550D02*
X16925Y-17550D01*
X16925Y-17557D01*
X16825Y-17557D01*
X16825Y-17550D01*
X16512Y-17550D01*
X16450Y-17612D01*
X16449Y-17725D01*
X16449Y-17774D01*
X16150Y-17774D01*
X16058Y-17812D01*
X16047Y-17824D01*
X16017Y-17752D01*
X16029Y-17752D01*
X16177Y-17691D01*
X16291Y-17578D01*
X16352Y-17430D01*
X16352Y-17270D01*
X16333Y-17225D01*
X16449Y-17225D01*
X16449Y-17274D01*
X16450Y-17387D01*
X16512Y-17450D01*
X16825Y-17450D01*
X16825Y-17442D01*
X16925Y-17442D01*
X16925Y-17450D01*
X16932Y-17450D01*
X16932Y-17550D01*
G54D10*
G36*
X17703Y-11125D02*
X17648Y-11180D01*
X17642Y-11193D01*
X17453Y-11193D01*
X17254Y-10995D01*
X17149Y-10924D01*
X17025Y-10900D01*
X16878Y-10900D01*
X16816Y-10838D01*
X16724Y-10800D01*
X16625Y-10799D01*
X16075Y-10799D01*
X15999Y-10831D01*
X15924Y-10800D01*
X15825Y-10799D01*
X15712Y-10800D01*
X15650Y-10862D01*
X15650Y-11175D01*
X15657Y-11175D01*
X15657Y-11275D01*
X15650Y-11275D01*
X15650Y-11282D01*
X15550Y-11282D01*
X15550Y-11275D01*
X15542Y-11275D01*
X15542Y-11175D01*
X15550Y-11175D01*
X15550Y-10862D01*
X15505Y-10818D01*
X15652Y-10671D01*
X15683Y-10684D01*
X15915Y-10684D01*
X16130Y-10595D01*
X16295Y-10431D01*
X16384Y-10216D01*
X16384Y-9984D01*
X16295Y-9769D01*
X16131Y-9604D01*
X16125Y-9602D01*
X16125Y-9399D01*
X16216Y-9362D01*
X16286Y-9291D01*
X16324Y-9199D01*
X16325Y-9100D01*
X16325Y-8750D01*
X16287Y-8658D01*
X16228Y-8599D01*
X16286Y-8541D01*
X16324Y-8449D01*
X16325Y-8350D01*
X16325Y-8000D01*
X16287Y-7908D01*
X16278Y-7900D01*
X16286Y-7891D01*
X16324Y-7799D01*
X16325Y-7700D01*
X16325Y-7350D01*
X16287Y-7258D01*
X16228Y-7200D01*
X16287Y-7141D01*
X16325Y-7049D01*
X16325Y-6600D01*
X16287Y-6508D01*
X16216Y-6438D01*
X16124Y-6400D01*
X16025Y-6399D01*
X15912Y-6400D01*
X15850Y-6462D01*
X15850Y-6775D01*
X16262Y-6775D01*
X16325Y-6712D01*
X16325Y-6600D01*
X16325Y-7049D01*
X16325Y-6937D01*
X16262Y-6875D01*
X15850Y-6875D01*
X15850Y-6882D01*
X15750Y-6882D01*
X15750Y-6875D01*
X15750Y-6775D01*
X15750Y-6462D01*
X15687Y-6400D01*
X15574Y-6399D01*
X15475Y-6400D01*
X15383Y-6438D01*
X15312Y-6508D01*
X15300Y-6539D01*
X15287Y-6508D01*
X15216Y-6438D01*
X15124Y-6400D01*
X15025Y-6399D01*
X14912Y-6400D01*
X14850Y-6462D01*
X14850Y-6775D01*
X15262Y-6775D01*
X15300Y-6737D01*
X15337Y-6775D01*
X15750Y-6775D01*
X15750Y-6875D01*
X15337Y-6875D01*
X15300Y-6912D01*
X15262Y-6875D01*
X14850Y-6875D01*
X14850Y-6882D01*
X14750Y-6882D01*
X14750Y-6875D01*
X14750Y-6775D01*
X14750Y-6462D01*
X14687Y-6400D01*
X14574Y-6399D01*
X14475Y-6400D01*
X14383Y-6438D01*
X14312Y-6508D01*
X14300Y-6539D01*
X14287Y-6508D01*
X14216Y-6438D01*
X14124Y-6400D01*
X14025Y-6399D01*
X13912Y-6400D01*
X13850Y-6462D01*
X13850Y-6775D01*
X14262Y-6775D01*
X14300Y-6737D01*
X14337Y-6775D01*
X14750Y-6775D01*
X14750Y-6875D01*
X14337Y-6875D01*
X14300Y-6912D01*
X14262Y-6875D01*
X13850Y-6875D01*
X13850Y-6882D01*
X13750Y-6882D01*
X13750Y-6875D01*
X13750Y-6775D01*
X13750Y-6462D01*
X13687Y-6400D01*
X13574Y-6399D01*
X13475Y-6400D01*
X13383Y-6438D01*
X13312Y-6508D01*
X13301Y-6536D01*
X13290Y-6511D01*
X13220Y-6440D01*
X13128Y-6402D01*
X12699Y-6403D01*
X12637Y-6465D01*
X12637Y-6800D01*
X13266Y-6800D01*
X13314Y-6752D01*
X13337Y-6775D01*
X13750Y-6775D01*
X13750Y-6875D01*
X13337Y-6875D01*
X13289Y-6923D01*
X13266Y-6900D01*
X12637Y-6900D01*
X12637Y-7234D01*
X12699Y-7297D01*
X13128Y-7297D01*
X13220Y-7259D01*
X13290Y-7188D01*
X13311Y-7138D01*
X13312Y-7141D01*
X13371Y-7200D01*
X13313Y-7258D01*
X13275Y-7350D01*
X13274Y-7449D01*
X13274Y-7685D01*
X13249Y-7674D01*
X13137Y-7675D01*
X13075Y-7737D01*
X13075Y-8150D01*
X13082Y-8150D01*
X13082Y-8250D01*
X13075Y-8250D01*
X13075Y-8662D01*
X13137Y-8725D01*
X13249Y-8725D01*
X13292Y-8707D01*
X13275Y-8750D01*
X13274Y-8849D01*
X13274Y-9199D01*
X13312Y-9291D01*
X13383Y-9361D01*
X13475Y-9399D01*
X13475Y-9554D01*
X13454Y-9554D01*
X13363Y-9592D01*
X13292Y-9662D01*
X13254Y-9754D01*
X13254Y-9775D01*
X11999Y-9775D01*
X11962Y-9683D01*
X11928Y-9650D01*
X11961Y-9616D01*
X11999Y-9524D01*
X12000Y-9425D01*
X12000Y-8875D01*
X11962Y-8783D01*
X11900Y-8721D01*
X11900Y-8700D01*
X11900Y-8678D01*
X11924Y-8653D01*
X11958Y-8686D01*
X12050Y-8724D01*
X12149Y-8725D01*
X12499Y-8725D01*
X12591Y-8687D01*
X12650Y-8628D01*
X12708Y-8687D01*
X12800Y-8725D01*
X12912Y-8725D01*
X12975Y-8662D01*
X12975Y-8250D01*
X12967Y-8250D01*
X12967Y-8150D01*
X12975Y-8150D01*
X12975Y-7737D01*
X12912Y-7675D01*
X12800Y-7674D01*
X12708Y-7712D01*
X12649Y-7771D01*
X12591Y-7713D01*
X12587Y-7711D01*
X12587Y-7711D01*
X12575Y-7650D01*
X12575Y-7650D01*
X12504Y-7545D01*
X12504Y-7545D01*
X12256Y-7297D01*
X12474Y-7297D01*
X12537Y-7234D01*
X12537Y-6900D01*
X12537Y-6800D01*
X12537Y-6465D01*
X12474Y-6403D01*
X12045Y-6402D01*
X11953Y-6440D01*
X11883Y-6511D01*
X11845Y-6603D01*
X11844Y-6702D01*
X11845Y-6737D01*
X11907Y-6800D01*
X12537Y-6800D01*
X12537Y-6900D01*
X11907Y-6900D01*
X11883Y-6923D01*
X11755Y-6795D01*
X11755Y-6603D01*
X11717Y-6511D01*
X11646Y-6441D01*
X11554Y-6403D01*
X11455Y-6402D01*
X11025Y-6402D01*
X10774Y-6151D01*
X17500Y-6151D01*
X17500Y-6482D01*
X17460Y-6467D01*
X17110Y-6473D01*
X16813Y-6595D01*
X16746Y-6725D01*
X17300Y-7279D01*
X17305Y-7273D01*
X17376Y-7344D01*
X17370Y-7350D01*
X17376Y-7355D01*
X17305Y-7426D01*
X17300Y-7420D01*
X17229Y-7491D01*
X17229Y-7350D01*
X16675Y-6796D01*
X16545Y-6863D01*
X16417Y-7189D01*
X16423Y-7539D01*
X16545Y-7836D01*
X16675Y-7903D01*
X17229Y-7350D01*
X17229Y-7491D01*
X16746Y-7974D01*
X16813Y-8104D01*
X17139Y-8232D01*
X17489Y-8226D01*
X17500Y-8222D01*
X17500Y-10150D01*
X17609Y-10150D01*
X17609Y-10190D01*
X17647Y-10282D01*
X17703Y-10337D01*
X17648Y-10392D01*
X17609Y-10484D01*
X17609Y-10584D01*
X17609Y-10977D01*
X17647Y-11069D01*
X17703Y-11125D01*
X17703Y-11125D01*
G37*
G54D29*
X17703Y-11125D02*
X17648Y-11180D01*
X17642Y-11193D01*
X17453Y-11193D01*
X17254Y-10995D01*
X17149Y-10924D01*
X17025Y-10900D01*
X16878Y-10900D01*
X16816Y-10838D01*
X16724Y-10800D01*
X16625Y-10799D01*
X16075Y-10799D01*
X15999Y-10831D01*
X15924Y-10800D01*
X15825Y-10799D01*
X15712Y-10800D01*
X15650Y-10862D01*
X15650Y-11175D01*
X15657Y-11175D01*
X15657Y-11275D01*
X15650Y-11275D01*
X15650Y-11282D01*
X15550Y-11282D01*
X15550Y-11275D01*
X15542Y-11275D01*
X15542Y-11175D01*
X15550Y-11175D01*
X15550Y-10862D01*
X15505Y-10818D01*
X15652Y-10671D01*
X15683Y-10684D01*
X15915Y-10684D01*
X16130Y-10595D01*
X16295Y-10431D01*
X16384Y-10216D01*
X16384Y-9984D01*
X16295Y-9769D01*
X16131Y-9604D01*
X16125Y-9602D01*
X16125Y-9399D01*
X16216Y-9362D01*
X16286Y-9291D01*
X16324Y-9199D01*
X16325Y-9100D01*
X16325Y-8750D01*
X16287Y-8658D01*
X16228Y-8599D01*
X16286Y-8541D01*
X16324Y-8449D01*
X16325Y-8350D01*
X16325Y-8000D01*
X16287Y-7908D01*
X16278Y-7900D01*
X16286Y-7891D01*
X16324Y-7799D01*
X16325Y-7700D01*
X16325Y-7350D01*
X16287Y-7258D01*
X16228Y-7200D01*
X16287Y-7141D01*
X16325Y-7049D01*
X16325Y-6600D01*
X16287Y-6508D01*
X16216Y-6438D01*
X16124Y-6400D01*
X16025Y-6399D01*
X15912Y-6400D01*
X15850Y-6462D01*
X15850Y-6775D01*
X16262Y-6775D01*
X16325Y-6712D01*
X16325Y-6600D01*
X16325Y-7049D01*
X16325Y-6937D01*
X16262Y-6875D01*
X15850Y-6875D01*
X15850Y-6882D01*
X15750Y-6882D01*
X15750Y-6875D01*
X15750Y-6775D01*
X15750Y-6462D01*
X15687Y-6400D01*
X15574Y-6399D01*
X15475Y-6400D01*
X15383Y-6438D01*
X15312Y-6508D01*
X15300Y-6539D01*
X15287Y-6508D01*
X15216Y-6438D01*
X15124Y-6400D01*
X15025Y-6399D01*
X14912Y-6400D01*
X14850Y-6462D01*
X14850Y-6775D01*
X15262Y-6775D01*
X15300Y-6737D01*
X15337Y-6775D01*
X15750Y-6775D01*
X15750Y-6875D01*
X15337Y-6875D01*
X15300Y-6912D01*
X15262Y-6875D01*
X14850Y-6875D01*
X14850Y-6882D01*
X14750Y-6882D01*
X14750Y-6875D01*
X14750Y-6775D01*
X14750Y-6462D01*
X14687Y-6400D01*
X14574Y-6399D01*
X14475Y-6400D01*
X14383Y-6438D01*
X14312Y-6508D01*
X14300Y-6539D01*
X14287Y-6508D01*
X14216Y-6438D01*
X14124Y-6400D01*
X14025Y-6399D01*
X13912Y-6400D01*
X13850Y-6462D01*
X13850Y-6775D01*
X14262Y-6775D01*
X14300Y-6737D01*
X14337Y-6775D01*
X14750Y-6775D01*
X14750Y-6875D01*
X14337Y-6875D01*
X14300Y-6912D01*
X14262Y-6875D01*
X13850Y-6875D01*
X13850Y-6882D01*
X13750Y-6882D01*
X13750Y-6875D01*
X13750Y-6775D01*
X13750Y-6462D01*
X13687Y-6400D01*
X13574Y-6399D01*
X13475Y-6400D01*
X13383Y-6438D01*
X13312Y-6508D01*
X13301Y-6536D01*
X13290Y-6511D01*
X13220Y-6440D01*
X13128Y-6402D01*
X12699Y-6403D01*
X12637Y-6465D01*
X12637Y-6800D01*
X13266Y-6800D01*
X13314Y-6752D01*
X13337Y-6775D01*
X13750Y-6775D01*
X13750Y-6875D01*
X13337Y-6875D01*
X13289Y-6923D01*
X13266Y-6900D01*
X12637Y-6900D01*
X12637Y-7234D01*
X12699Y-7297D01*
X13128Y-7297D01*
X13220Y-7259D01*
X13290Y-7188D01*
X13311Y-7138D01*
X13312Y-7141D01*
X13371Y-7200D01*
X13313Y-7258D01*
X13275Y-7350D01*
X13274Y-7449D01*
X13274Y-7685D01*
X13249Y-7674D01*
X13137Y-7675D01*
X13075Y-7737D01*
X13075Y-8150D01*
X13082Y-8150D01*
X13082Y-8250D01*
X13075Y-8250D01*
X13075Y-8662D01*
X13137Y-8725D01*
X13249Y-8725D01*
X13292Y-8707D01*
X13275Y-8750D01*
X13274Y-8849D01*
X13274Y-9199D01*
X13312Y-9291D01*
X13383Y-9361D01*
X13475Y-9399D01*
X13475Y-9554D01*
X13454Y-9554D01*
X13363Y-9592D01*
X13292Y-9662D01*
X13254Y-9754D01*
X13254Y-9775D01*
X11999Y-9775D01*
X11962Y-9683D01*
X11928Y-9650D01*
X11961Y-9616D01*
X11999Y-9524D01*
X12000Y-9425D01*
X12000Y-8875D01*
X11962Y-8783D01*
X11900Y-8721D01*
X11900Y-8700D01*
X11900Y-8678D01*
X11924Y-8653D01*
X11958Y-8686D01*
X12050Y-8724D01*
X12149Y-8725D01*
X12499Y-8725D01*
X12591Y-8687D01*
X12650Y-8628D01*
X12708Y-8687D01*
X12800Y-8725D01*
X12912Y-8725D01*
X12975Y-8662D01*
X12975Y-8250D01*
X12967Y-8250D01*
X12967Y-8150D01*
X12975Y-8150D01*
X12975Y-7737D01*
X12912Y-7675D01*
X12800Y-7674D01*
X12708Y-7712D01*
X12649Y-7771D01*
X12591Y-7713D01*
X12587Y-7711D01*
X12587Y-7711D01*
X12575Y-7650D01*
X12575Y-7650D01*
X12504Y-7545D01*
X12504Y-7545D01*
X12256Y-7297D01*
X12474Y-7297D01*
X12537Y-7234D01*
X12537Y-6900D01*
X12537Y-6800D01*
X12537Y-6465D01*
X12474Y-6403D01*
X12045Y-6402D01*
X11953Y-6440D01*
X11883Y-6511D01*
X11845Y-6603D01*
X11844Y-6702D01*
X11845Y-6737D01*
X11907Y-6800D01*
X12537Y-6800D01*
X12537Y-6900D01*
X11907Y-6900D01*
X11883Y-6923D01*
X11755Y-6795D01*
X11755Y-6603D01*
X11717Y-6511D01*
X11646Y-6441D01*
X11554Y-6403D01*
X11455Y-6402D01*
X11025Y-6402D01*
X10774Y-6151D01*
X17500Y-6151D01*
X17500Y-6482D01*
X17460Y-6467D01*
X17110Y-6473D01*
X16813Y-6595D01*
X16746Y-6725D01*
X17300Y-7279D01*
X17305Y-7273D01*
X17376Y-7344D01*
X17370Y-7350D01*
X17376Y-7355D01*
X17305Y-7426D01*
X17300Y-7420D01*
X17229Y-7491D01*
X17229Y-7350D01*
X16675Y-6796D01*
X16545Y-6863D01*
X16417Y-7189D01*
X16423Y-7539D01*
X16545Y-7836D01*
X16675Y-7903D01*
X17229Y-7350D01*
X17229Y-7491D01*
X16746Y-7974D01*
X16813Y-8104D01*
X17139Y-8232D01*
X17489Y-8226D01*
X17500Y-8222D01*
X17500Y-10150D01*
X17609Y-10150D01*
X17609Y-10190D01*
X17647Y-10282D01*
X17703Y-10337D01*
X17648Y-10392D01*
X17609Y-10484D01*
X17609Y-10584D01*
X17609Y-10977D01*
X17647Y-11069D01*
X17703Y-11125D01*
G54D10*
G36*
X17703Y-12700D02*
X17648Y-12755D01*
X17609Y-12846D01*
X17609Y-12946D01*
X17609Y-12965D01*
X17525Y-13050D01*
X17525Y-13050D01*
X17487Y-12958D01*
X17428Y-12900D01*
X17487Y-12841D01*
X17525Y-12749D01*
X17525Y-12300D01*
X17487Y-12208D01*
X17416Y-12138D01*
X17324Y-12100D01*
X17225Y-12099D01*
X17112Y-12100D01*
X17050Y-12162D01*
X17050Y-12475D01*
X17462Y-12475D01*
X17525Y-12412D01*
X17525Y-12300D01*
X17525Y-12749D01*
X17525Y-12637D01*
X17462Y-12575D01*
X17050Y-12575D01*
X17050Y-12582D01*
X16950Y-12582D01*
X16950Y-12575D01*
X16537Y-12575D01*
X16475Y-12637D01*
X16474Y-12749D01*
X16512Y-12841D01*
X16571Y-12900D01*
X16513Y-12958D01*
X16475Y-13050D01*
X16474Y-13149D01*
X16474Y-13387D01*
X16429Y-13368D01*
X16395Y-13368D01*
X16452Y-13230D01*
X16452Y-13070D01*
X16391Y-12922D01*
X16278Y-12808D01*
X16130Y-12747D01*
X15970Y-12747D01*
X15831Y-12804D01*
X15831Y-12770D01*
X15793Y-12679D01*
X15723Y-12608D01*
X15635Y-12572D01*
X15635Y-12400D01*
X15924Y-12400D01*
X16000Y-12368D01*
X16075Y-12399D01*
X16174Y-12400D01*
X16474Y-12400D01*
X16475Y-12412D01*
X16537Y-12475D01*
X16950Y-12475D01*
X16950Y-12162D01*
X16925Y-12137D01*
X16925Y-12100D01*
X16925Y-11750D01*
X16887Y-11658D01*
X16828Y-11599D01*
X16878Y-11550D01*
X16890Y-11550D01*
X17089Y-11748D01*
X17089Y-11748D01*
X17194Y-11819D01*
X17194Y-11819D01*
X17318Y-11843D01*
X17642Y-11843D01*
X17647Y-11857D01*
X17703Y-11912D01*
X17648Y-11967D01*
X17609Y-12059D01*
X17609Y-12158D01*
X17609Y-12552D01*
X17647Y-12644D01*
X17703Y-12700D01*
X17703Y-12700D01*
G37*
G54D29*
X17703Y-12700D02*
X17648Y-12755D01*
X17609Y-12846D01*
X17609Y-12946D01*
X17609Y-12965D01*
X17525Y-13050D01*
X17525Y-13050D01*
X17487Y-12958D01*
X17428Y-12900D01*
X17487Y-12841D01*
X17525Y-12749D01*
X17525Y-12300D01*
X17487Y-12208D01*
X17416Y-12138D01*
X17324Y-12100D01*
X17225Y-12099D01*
X17112Y-12100D01*
X17050Y-12162D01*
X17050Y-12475D01*
X17462Y-12475D01*
X17525Y-12412D01*
X17525Y-12300D01*
X17525Y-12749D01*
X17525Y-12637D01*
X17462Y-12575D01*
X17050Y-12575D01*
X17050Y-12582D01*
X16950Y-12582D01*
X16950Y-12575D01*
X16537Y-12575D01*
X16475Y-12637D01*
X16474Y-12749D01*
X16512Y-12841D01*
X16571Y-12900D01*
X16513Y-12958D01*
X16475Y-13050D01*
X16474Y-13149D01*
X16474Y-13387D01*
X16429Y-13368D01*
X16395Y-13368D01*
X16452Y-13230D01*
X16452Y-13070D01*
X16391Y-12922D01*
X16278Y-12808D01*
X16130Y-12747D01*
X15970Y-12747D01*
X15831Y-12804D01*
X15831Y-12770D01*
X15793Y-12679D01*
X15723Y-12608D01*
X15635Y-12572D01*
X15635Y-12400D01*
X15924Y-12400D01*
X16000Y-12368D01*
X16075Y-12399D01*
X16174Y-12400D01*
X16474Y-12400D01*
X16475Y-12412D01*
X16537Y-12475D01*
X16950Y-12475D01*
X16950Y-12162D01*
X16925Y-12137D01*
X16925Y-12100D01*
X16925Y-11750D01*
X16887Y-11658D01*
X16828Y-11599D01*
X16878Y-11550D01*
X16890Y-11550D01*
X17089Y-11748D01*
X17089Y-11748D01*
X17194Y-11819D01*
X17194Y-11819D01*
X17318Y-11843D01*
X17642Y-11843D01*
X17647Y-11857D01*
X17703Y-11912D01*
X17648Y-11967D01*
X17609Y-12059D01*
X17609Y-12158D01*
X17609Y-12552D01*
X17647Y-12644D01*
X17703Y-12700D01*
G54D10*
G36*
X18125Y-17200D02*
X18124Y-17199D01*
X18050Y-17184D01*
X18050Y-17175D01*
X18012Y-17083D01*
X17941Y-17013D01*
X17849Y-16975D01*
X17750Y-16974D01*
X17550Y-16974D01*
X17550Y-16925D01*
X17550Y-16812D01*
X17487Y-16750D01*
X17175Y-16750D01*
X17175Y-16757D01*
X17075Y-16757D01*
X17075Y-16750D01*
X17067Y-16750D01*
X17067Y-16650D01*
X17075Y-16650D01*
X17075Y-16642D01*
X17175Y-16642D01*
X17175Y-16650D01*
X17487Y-16650D01*
X17550Y-16587D01*
X17550Y-16474D01*
X17550Y-16457D01*
X17558Y-16477D01*
X17671Y-16591D01*
X17819Y-16652D01*
X17979Y-16652D01*
X18125Y-16592D01*
X18125Y-17200D01*
X18125Y-17200D01*
G37*
G54D29*
X18125Y-17200D02*
X18124Y-17199D01*
X18050Y-17184D01*
X18050Y-17175D01*
X18012Y-17083D01*
X17941Y-17013D01*
X17849Y-16975D01*
X17750Y-16974D01*
X17550Y-16974D01*
X17550Y-16925D01*
X17550Y-16812D01*
X17487Y-16750D01*
X17175Y-16750D01*
X17175Y-16757D01*
X17075Y-16757D01*
X17075Y-16750D01*
X17067Y-16750D01*
X17067Y-16650D01*
X17075Y-16650D01*
X17075Y-16642D01*
X17175Y-16642D01*
X17175Y-16650D01*
X17487Y-16650D01*
X17550Y-16587D01*
X17550Y-16474D01*
X17550Y-16457D01*
X17558Y-16477D01*
X17671Y-16591D01*
X17819Y-16652D01*
X17979Y-16652D01*
X18125Y-16592D01*
X18125Y-17200D01*
G54D10*
G36*
X25475Y-15990D02*
X24890Y-16575D01*
X24699Y-16575D01*
X24699Y-15840D01*
X24699Y-15505D01*
X23971Y-15505D01*
X23909Y-15568D01*
X23909Y-15603D01*
X23909Y-15702D01*
X23947Y-15794D01*
X24017Y-15864D01*
X24109Y-15902D01*
X24637Y-15902D01*
X24699Y-15840D01*
X24699Y-16575D01*
X23300Y-16575D01*
X23175Y-16599D01*
X23133Y-16627D01*
X23070Y-16670D01*
X23070Y-16670D01*
X22520Y-17220D01*
X22449Y-17325D01*
X22434Y-17404D01*
X22404Y-17404D01*
X22313Y-17442D01*
X22242Y-17512D01*
X22204Y-17604D01*
X22204Y-17704D01*
X22204Y-18035D01*
X22039Y-18201D01*
X21905Y-18334D01*
X21860Y-18290D01*
X21959Y-18258D01*
X22039Y-18040D01*
X22028Y-17807D01*
X21959Y-17641D01*
X21860Y-17609D01*
X21790Y-17680D01*
X21790Y-17539D01*
X21758Y-17440D01*
X21540Y-17360D01*
X21307Y-17371D01*
X21141Y-17440D01*
X21109Y-17539D01*
X21450Y-17879D01*
X21790Y-17539D01*
X21790Y-17680D01*
X21520Y-17950D01*
X21526Y-17955D01*
X21455Y-18026D01*
X21450Y-18020D01*
X21109Y-18360D01*
X21141Y-18459D01*
X21359Y-18539D01*
X21592Y-18528D01*
X21758Y-18459D01*
X21790Y-18360D01*
X21790Y-18360D01*
X21834Y-18405D01*
X21790Y-18450D01*
X21540Y-18700D01*
X19624Y-18700D01*
X19587Y-18608D01*
X19516Y-18538D01*
X19508Y-18534D01*
X19565Y-18534D01*
X19780Y-18445D01*
X19945Y-18281D01*
X19949Y-18270D01*
X19954Y-18280D01*
X20118Y-18445D01*
X20333Y-18534D01*
X20565Y-18534D01*
X20780Y-18445D01*
X20945Y-18281D01*
X20953Y-18262D01*
X21039Y-18290D01*
X21379Y-17950D01*
X21039Y-17609D01*
X20953Y-17637D01*
X20945Y-17619D01*
X20781Y-17454D01*
X20775Y-17452D01*
X20775Y-17134D01*
X21729Y-16179D01*
X21729Y-16179D01*
X21729Y-16179D01*
X21800Y-16074D01*
X21800Y-16074D01*
X21825Y-15950D01*
X21825Y-14894D01*
X21921Y-14991D01*
X22069Y-15052D01*
X22229Y-15052D01*
X22372Y-14993D01*
X23941Y-14993D01*
X23946Y-15006D01*
X24002Y-15062D01*
X23947Y-15117D01*
X23909Y-15209D01*
X23909Y-15308D01*
X23909Y-15343D01*
X23971Y-15405D01*
X24699Y-15405D01*
X24699Y-15398D01*
X24799Y-15398D01*
X24799Y-15405D01*
X24807Y-15405D01*
X24807Y-15505D01*
X24799Y-15505D01*
X24799Y-15840D01*
X24862Y-15902D01*
X25389Y-15902D01*
X25475Y-15867D01*
X25475Y-15990D01*
X25475Y-15990D01*
G37*
G54D29*
X25475Y-15990D02*
X24890Y-16575D01*
X24699Y-16575D01*
X24699Y-15840D01*
X24699Y-15505D01*
X23971Y-15505D01*
X23909Y-15568D01*
X23909Y-15603D01*
X23909Y-15702D01*
X23947Y-15794D01*
X24017Y-15864D01*
X24109Y-15902D01*
X24637Y-15902D01*
X24699Y-15840D01*
X24699Y-16575D01*
X23300Y-16575D01*
X23175Y-16599D01*
X23133Y-16627D01*
X23070Y-16670D01*
X23070Y-16670D01*
X22520Y-17220D01*
X22449Y-17325D01*
X22434Y-17404D01*
X22404Y-17404D01*
X22313Y-17442D01*
X22242Y-17512D01*
X22204Y-17604D01*
X22204Y-17704D01*
X22204Y-18035D01*
X22039Y-18201D01*
X21905Y-18334D01*
X21860Y-18290D01*
X21959Y-18258D01*
X22039Y-18040D01*
X22028Y-17807D01*
X21959Y-17641D01*
X21860Y-17609D01*
X21790Y-17680D01*
X21790Y-17539D01*
X21758Y-17440D01*
X21540Y-17360D01*
X21307Y-17371D01*
X21141Y-17440D01*
X21109Y-17539D01*
X21450Y-17879D01*
X21790Y-17539D01*
X21790Y-17680D01*
X21520Y-17950D01*
X21526Y-17955D01*
X21455Y-18026D01*
X21450Y-18020D01*
X21109Y-18360D01*
X21141Y-18459D01*
X21359Y-18539D01*
X21592Y-18528D01*
X21758Y-18459D01*
X21790Y-18360D01*
X21790Y-18360D01*
X21834Y-18405D01*
X21790Y-18450D01*
X21540Y-18700D01*
X19624Y-18700D01*
X19587Y-18608D01*
X19516Y-18538D01*
X19508Y-18534D01*
X19565Y-18534D01*
X19780Y-18445D01*
X19945Y-18281D01*
X19949Y-18270D01*
X19954Y-18280D01*
X20118Y-18445D01*
X20333Y-18534D01*
X20565Y-18534D01*
X20780Y-18445D01*
X20945Y-18281D01*
X20953Y-18262D01*
X21039Y-18290D01*
X21379Y-17950D01*
X21039Y-17609D01*
X20953Y-17637D01*
X20945Y-17619D01*
X20781Y-17454D01*
X20775Y-17452D01*
X20775Y-17134D01*
X21729Y-16179D01*
X21729Y-16179D01*
X21729Y-16179D01*
X21800Y-16074D01*
X21800Y-16074D01*
X21825Y-15950D01*
X21825Y-14894D01*
X21921Y-14991D01*
X22069Y-15052D01*
X22229Y-15052D01*
X22372Y-14993D01*
X23941Y-14993D01*
X23946Y-15006D01*
X24002Y-15062D01*
X23947Y-15117D01*
X23909Y-15209D01*
X23909Y-15308D01*
X23909Y-15343D01*
X23971Y-15405D01*
X24699Y-15405D01*
X24699Y-15398D01*
X24799Y-15398D01*
X24799Y-15405D01*
X24807Y-15405D01*
X24807Y-15505D01*
X24799Y-15505D01*
X24799Y-15840D01*
X24862Y-15902D01*
X25389Y-15902D01*
X25475Y-15867D01*
X25475Y-15990D01*
G54D10*
G36*
X26148Y-20048D02*
X25907Y-20048D01*
X25907Y-19310D01*
X25901Y-18960D01*
X25779Y-18663D01*
X25649Y-18596D01*
X25578Y-18666D01*
X25578Y-18525D01*
X25511Y-18395D01*
X25185Y-18267D01*
X24835Y-18273D01*
X24538Y-18395D01*
X24471Y-18525D01*
X25025Y-19079D01*
X25578Y-18525D01*
X25578Y-18666D01*
X25095Y-19150D01*
X25649Y-19703D01*
X25779Y-19636D01*
X25907Y-19310D01*
X25907Y-20048D01*
X25578Y-20048D01*
X25578Y-19774D01*
X25025Y-19220D01*
X24954Y-19291D01*
X24954Y-19150D01*
X24400Y-18596D01*
X24339Y-18628D01*
X24339Y-18040D01*
X24328Y-17807D01*
X24259Y-17641D01*
X24160Y-17609D01*
X24090Y-17680D01*
X24090Y-17539D01*
X24058Y-17440D01*
X23840Y-17360D01*
X23607Y-17371D01*
X23441Y-17440D01*
X23409Y-17539D01*
X23750Y-17879D01*
X24090Y-17539D01*
X24090Y-17680D01*
X23820Y-17950D01*
X24160Y-18290D01*
X24259Y-18258D01*
X24339Y-18040D01*
X24339Y-18628D01*
X24270Y-18663D01*
X24142Y-18989D01*
X24148Y-19339D01*
X24270Y-19636D01*
X24400Y-19703D01*
X24954Y-19150D01*
X24954Y-19291D01*
X24471Y-19774D01*
X24538Y-19904D01*
X24864Y-20032D01*
X25214Y-20026D01*
X25511Y-19904D01*
X25578Y-19774D01*
X25578Y-20048D01*
X24090Y-20048D01*
X24090Y-18360D01*
X23750Y-18020D01*
X23409Y-18360D01*
X23441Y-18459D01*
X23659Y-18539D01*
X23892Y-18528D01*
X24058Y-18459D01*
X24090Y-18360D01*
X24090Y-20048D01*
X17550Y-20048D01*
X17550Y-18525D01*
X17550Y-18412D01*
X17487Y-18350D01*
X17175Y-18350D01*
X17175Y-18762D01*
X17237Y-18825D01*
X17349Y-18825D01*
X17441Y-18787D01*
X17511Y-18716D01*
X17549Y-18624D01*
X17550Y-18525D01*
X17550Y-20048D01*
X11725Y-20048D01*
X11725Y-18412D01*
X11725Y-18000D01*
X11725Y-17900D01*
X11725Y-17487D01*
X11662Y-17425D01*
X11550Y-17424D01*
X11458Y-17462D01*
X11450Y-17471D01*
X11441Y-17462D01*
X11349Y-17424D01*
X11237Y-17425D01*
X11175Y-17487D01*
X11175Y-17900D01*
X11412Y-17900D01*
X11487Y-17900D01*
X11725Y-17900D01*
X11725Y-18000D01*
X11487Y-18000D01*
X11412Y-18000D01*
X11175Y-18000D01*
X11175Y-18412D01*
X11237Y-18475D01*
X11349Y-18475D01*
X11441Y-18437D01*
X11450Y-18428D01*
X11458Y-18437D01*
X11550Y-18475D01*
X11662Y-18475D01*
X11725Y-18412D01*
X11725Y-20048D01*
X8032Y-20048D01*
X8032Y-19285D01*
X8026Y-18935D01*
X7904Y-18638D01*
X7774Y-18571D01*
X7220Y-19125D01*
X7774Y-19678D01*
X7904Y-19611D01*
X8032Y-19285D01*
X8032Y-20048D01*
X7703Y-20048D01*
X7703Y-19749D01*
X7150Y-19195D01*
X7079Y-19266D01*
X6596Y-19749D01*
X6663Y-19879D01*
X6989Y-20007D01*
X7339Y-20001D01*
X7636Y-19879D01*
X7703Y-19749D01*
X7703Y-20048D01*
X6001Y-20048D01*
X6001Y-19975D01*
X6001Y-19300D01*
X6001Y-19250D01*
X6001Y-11511D01*
X6020Y-11529D01*
X6020Y-11529D01*
X6054Y-11552D01*
X6054Y-11645D01*
X6092Y-11736D01*
X6162Y-11807D01*
X6254Y-11845D01*
X6273Y-11845D01*
X6259Y-11889D01*
X6600Y-12229D01*
X6940Y-11889D01*
X6926Y-11845D01*
X6945Y-11845D01*
X7036Y-11807D01*
X7107Y-11737D01*
X7125Y-11694D01*
X7125Y-12028D01*
X7109Y-11991D01*
X7010Y-11959D01*
X6670Y-12300D01*
X6676Y-12305D01*
X6605Y-12376D01*
X6600Y-12370D01*
X6529Y-12441D01*
X6529Y-12300D01*
X6189Y-11959D01*
X6090Y-11991D01*
X6010Y-12209D01*
X6021Y-12442D01*
X6090Y-12608D01*
X6189Y-12640D01*
X6529Y-12300D01*
X6529Y-12441D01*
X6259Y-12710D01*
X6287Y-12796D01*
X6269Y-12804D01*
X6104Y-12968D01*
X6015Y-13183D01*
X6015Y-13415D01*
X6104Y-13630D01*
X6268Y-13795D01*
X6483Y-13884D01*
X6715Y-13884D01*
X6930Y-13795D01*
X7095Y-13631D01*
X7097Y-13625D01*
X8350Y-13625D01*
X8602Y-13625D01*
X8602Y-13878D01*
X8640Y-13970D01*
X8711Y-14040D01*
X8803Y-14078D01*
X8902Y-14079D01*
X9296Y-14079D01*
X9388Y-14041D01*
X9458Y-13970D01*
X9496Y-13878D01*
X9497Y-13779D01*
X9497Y-13662D01*
X9900Y-13662D01*
X9912Y-13691D01*
X9983Y-13761D01*
X10075Y-13799D01*
X10174Y-13800D01*
X10724Y-13800D01*
X10724Y-13799D01*
X10724Y-13847D01*
X10570Y-13847D01*
X10422Y-13908D01*
X10308Y-14021D01*
X10247Y-14169D01*
X10247Y-14329D01*
X10308Y-14477D01*
X10375Y-14544D01*
X10375Y-16555D01*
X10328Y-16508D01*
X10180Y-16447D01*
X10157Y-16447D01*
X9187Y-15478D01*
X9240Y-15499D01*
X9339Y-15500D01*
X9959Y-15500D01*
X10051Y-15462D01*
X10121Y-15391D01*
X10159Y-15299D01*
X10160Y-15200D01*
X10160Y-14300D01*
X10122Y-14208D01*
X10051Y-14138D01*
X9959Y-14100D01*
X9860Y-14099D01*
X9240Y-14099D01*
X9148Y-14137D01*
X9078Y-14208D01*
X9040Y-14300D01*
X9040Y-14316D01*
X8995Y-14250D01*
X8814Y-14128D01*
X8600Y-14086D01*
X8385Y-14128D01*
X8204Y-14250D01*
X8100Y-14405D01*
X7995Y-14250D01*
X7814Y-14128D01*
X7600Y-14086D01*
X7385Y-14128D01*
X7204Y-14250D01*
X7100Y-14405D01*
X7098Y-14399D01*
X6960Y-14228D01*
X6768Y-14123D01*
X6736Y-14116D01*
X6650Y-14165D01*
X6650Y-14750D01*
X6657Y-14750D01*
X6657Y-14850D01*
X6650Y-14850D01*
X6650Y-15434D01*
X6736Y-15483D01*
X6768Y-15476D01*
X6960Y-15371D01*
X7098Y-15200D01*
X7100Y-15194D01*
X7204Y-15349D01*
X7385Y-15471D01*
X7600Y-15513D01*
X7814Y-15471D01*
X7995Y-15349D01*
X8100Y-15194D01*
X8204Y-15349D01*
X8285Y-15404D01*
X8299Y-15474D01*
X8370Y-15579D01*
X9060Y-16270D01*
X9055Y-16275D01*
X7300Y-16275D01*
X7299Y-16275D01*
X7275Y-16279D01*
X7175Y-16299D01*
X7070Y-16370D01*
X7070Y-16370D01*
X6550Y-16890D01*
X6550Y-15434D01*
X6550Y-14850D01*
X6550Y-14750D01*
X6550Y-14165D01*
X6463Y-14116D01*
X6431Y-14123D01*
X6239Y-14228D01*
X6101Y-14399D01*
X6040Y-14610D01*
X6040Y-14750D01*
X6550Y-14750D01*
X6550Y-14850D01*
X6040Y-14850D01*
X6040Y-14990D01*
X6101Y-15200D01*
X6239Y-15371D01*
X6431Y-15476D01*
X6463Y-15483D01*
X6550Y-15434D01*
X6550Y-16890D01*
X6370Y-17070D01*
X6299Y-17175D01*
X6297Y-17187D01*
X6297Y-17187D01*
X6204Y-17250D01*
X6082Y-17431D01*
X6040Y-17646D01*
X6040Y-17953D01*
X6082Y-18168D01*
X6204Y-18349D01*
X6385Y-18471D01*
X6511Y-18496D01*
X6480Y-18526D01*
X6525Y-18571D01*
X6395Y-18638D01*
X6267Y-18964D01*
X6273Y-19314D01*
X6395Y-19611D01*
X6525Y-19678D01*
X7079Y-19125D01*
X7073Y-19119D01*
X7144Y-19048D01*
X7150Y-19054D01*
X7703Y-18500D01*
X7700Y-18493D01*
X7814Y-18471D01*
X7995Y-18349D01*
X8099Y-18194D01*
X8101Y-18200D01*
X8239Y-18371D01*
X8431Y-18476D01*
X8463Y-18483D01*
X8550Y-18434D01*
X8550Y-17850D01*
X8542Y-17850D01*
X8542Y-17750D01*
X8550Y-17750D01*
X8550Y-17165D01*
X8463Y-17116D01*
X8431Y-17123D01*
X8239Y-17228D01*
X8101Y-17399D01*
X8099Y-17405D01*
X7995Y-17250D01*
X7814Y-17128D01*
X7600Y-17086D01*
X7385Y-17128D01*
X7204Y-17250D01*
X7100Y-17405D01*
X7041Y-17318D01*
X7434Y-16925D01*
X9055Y-16925D01*
X9071Y-16941D01*
X9219Y-17002D01*
X9379Y-17002D01*
X9527Y-16941D01*
X9629Y-16839D01*
X9697Y-16907D01*
X9697Y-16929D01*
X9758Y-17077D01*
X9808Y-17127D01*
X9600Y-17086D01*
X9385Y-17128D01*
X9204Y-17250D01*
X9100Y-17405D01*
X9098Y-17399D01*
X8960Y-17228D01*
X8768Y-17123D01*
X8736Y-17116D01*
X8650Y-17165D01*
X8650Y-17750D01*
X8657Y-17750D01*
X8657Y-17850D01*
X8650Y-17850D01*
X8650Y-18434D01*
X8736Y-18483D01*
X8768Y-18476D01*
X8960Y-18371D01*
X9098Y-18200D01*
X9100Y-18194D01*
X9204Y-18349D01*
X9385Y-18471D01*
X9600Y-18513D01*
X9814Y-18471D01*
X9984Y-18357D01*
X9987Y-18366D01*
X10058Y-18436D01*
X10150Y-18474D01*
X10249Y-18475D01*
X10599Y-18475D01*
X10691Y-18437D01*
X10750Y-18378D01*
X10808Y-18437D01*
X10900Y-18475D01*
X11012Y-18475D01*
X11075Y-18412D01*
X11075Y-18000D01*
X11067Y-18000D01*
X11067Y-17900D01*
X11075Y-17900D01*
X11075Y-17487D01*
X11012Y-17425D01*
X10900Y-17424D01*
X10873Y-17436D01*
X10929Y-17379D01*
X10929Y-17379D01*
X10929Y-17379D01*
X10972Y-17316D01*
X11000Y-17274D01*
X11000Y-17274D01*
X11025Y-17150D01*
X11025Y-16803D01*
X11058Y-16837D01*
X11150Y-16875D01*
X11262Y-16875D01*
X11325Y-16812D01*
X11325Y-16400D01*
X11317Y-16400D01*
X11317Y-16300D01*
X11325Y-16300D01*
X11325Y-15887D01*
X11262Y-15825D01*
X11150Y-15824D01*
X11058Y-15862D01*
X11025Y-15896D01*
X11025Y-15134D01*
X11470Y-15579D01*
X11504Y-15602D01*
X11497Y-15619D01*
X11497Y-15779D01*
X11516Y-15824D01*
X11487Y-15825D01*
X11425Y-15887D01*
X11425Y-16300D01*
X11432Y-16300D01*
X11432Y-16400D01*
X11425Y-16400D01*
X11425Y-16812D01*
X11487Y-16875D01*
X11599Y-16875D01*
X11691Y-16837D01*
X11750Y-16778D01*
X11800Y-16829D01*
X11824Y-16949D01*
X11847Y-16983D01*
X11847Y-16983D01*
X11847Y-17029D01*
X11908Y-17177D01*
X12021Y-17291D01*
X12169Y-17352D01*
X12329Y-17352D01*
X12477Y-17291D01*
X12591Y-17178D01*
X12652Y-17030D01*
X12652Y-16870D01*
X12591Y-16722D01*
X12548Y-16678D01*
X12549Y-16674D01*
X12549Y-16650D01*
X12650Y-16650D01*
X12650Y-16649D01*
X12764Y-16627D01*
X12764Y-16627D01*
X12862Y-16562D01*
X13049Y-16375D01*
X13068Y-16346D01*
X13068Y-16361D01*
X13068Y-16363D01*
X13068Y-16862D01*
X13058Y-16871D01*
X12997Y-17019D01*
X12997Y-17179D01*
X13058Y-17327D01*
X13153Y-17423D01*
X13110Y-17441D01*
X12942Y-17608D01*
X12912Y-17533D01*
X12841Y-17463D01*
X12749Y-17425D01*
X12650Y-17424D01*
X12300Y-17424D01*
X12208Y-17462D01*
X12150Y-17521D01*
X12091Y-17462D01*
X11999Y-17424D01*
X11887Y-17425D01*
X11825Y-17487D01*
X11825Y-17900D01*
X11832Y-17900D01*
X11832Y-18000D01*
X11825Y-18000D01*
X11825Y-18412D01*
X11887Y-18475D01*
X11999Y-18475D01*
X12091Y-18437D01*
X12150Y-18378D01*
X12208Y-18436D01*
X12300Y-18474D01*
X12399Y-18475D01*
X12749Y-18475D01*
X12841Y-18437D01*
X12911Y-18366D01*
X12943Y-18291D01*
X13109Y-18458D01*
X13330Y-18549D01*
X13568Y-18550D01*
X13789Y-18458D01*
X13795Y-18452D01*
X13850Y-18474D01*
X13949Y-18475D01*
X14299Y-18475D01*
X14391Y-18437D01*
X14450Y-18378D01*
X14508Y-18436D01*
X14600Y-18474D01*
X14699Y-18475D01*
X15049Y-18475D01*
X15103Y-18452D01*
X15109Y-18458D01*
X15330Y-18549D01*
X15568Y-18550D01*
X15588Y-18542D01*
X15675Y-18600D01*
X15675Y-18600D01*
X15775Y-18620D01*
X15799Y-18625D01*
X15799Y-18624D01*
X15800Y-18625D01*
X15950Y-18625D01*
X15987Y-18716D01*
X16058Y-18786D01*
X16150Y-18824D01*
X16249Y-18825D01*
X16599Y-18825D01*
X16691Y-18787D01*
X16750Y-18728D01*
X16808Y-18787D01*
X16900Y-18825D01*
X17012Y-18825D01*
X17075Y-18762D01*
X17075Y-18350D01*
X17067Y-18350D01*
X17067Y-18250D01*
X17075Y-18250D01*
X17075Y-18242D01*
X17175Y-18242D01*
X17175Y-18250D01*
X17487Y-18250D01*
X17550Y-18187D01*
X17550Y-18074D01*
X17550Y-18025D01*
X17849Y-18025D01*
X17884Y-18010D01*
X17884Y-18314D01*
X17922Y-18406D01*
X17993Y-18476D01*
X18085Y-18514D01*
X18125Y-18514D01*
X18125Y-18546D01*
X18063Y-18608D01*
X18025Y-18700D01*
X18024Y-18799D01*
X18024Y-19349D01*
X18062Y-19441D01*
X18133Y-19511D01*
X18225Y-19549D01*
X18324Y-19550D01*
X18674Y-19550D01*
X18766Y-19512D01*
X18825Y-19453D01*
X18883Y-19511D01*
X18975Y-19549D01*
X19074Y-19550D01*
X19424Y-19550D01*
X19516Y-19512D01*
X19586Y-19441D01*
X19624Y-19350D01*
X21675Y-19350D01*
X21799Y-19325D01*
X21799Y-19325D01*
X21904Y-19254D01*
X22664Y-18495D01*
X23095Y-18495D01*
X23186Y-18457D01*
X23257Y-18387D01*
X23295Y-18295D01*
X23295Y-18276D01*
X23339Y-18290D01*
X23679Y-17950D01*
X23339Y-17609D01*
X23295Y-17623D01*
X23295Y-17604D01*
X23257Y-17513D01*
X23202Y-17457D01*
X23434Y-17225D01*
X25025Y-17225D01*
X25149Y-17200D01*
X25149Y-17200D01*
X25254Y-17129D01*
X26029Y-16354D01*
X26029Y-16354D01*
X26029Y-16354D01*
X26100Y-16249D01*
X26100Y-16249D01*
X26125Y-16125D01*
X26125Y-13325D01*
X26100Y-13200D01*
X26100Y-13200D01*
X26029Y-13095D01*
X26029Y-13095D01*
X25798Y-12863D01*
X25693Y-12793D01*
X25568Y-12768D01*
X25557Y-12768D01*
X25552Y-12755D01*
X25496Y-12699D01*
X25551Y-12644D01*
X25590Y-12553D01*
X25590Y-12453D01*
X25590Y-12059D01*
X25552Y-11968D01*
X25496Y-11912D01*
X25551Y-11857D01*
X25590Y-11765D01*
X25590Y-11666D01*
X25590Y-11272D01*
X25552Y-11180D01*
X25496Y-11125D01*
X25551Y-11070D01*
X25590Y-10978D01*
X25590Y-10878D01*
X25590Y-10485D01*
X25552Y-10393D01*
X25496Y-10337D01*
X25551Y-10282D01*
X25590Y-10190D01*
X25590Y-10150D01*
X26148Y-10150D01*
X26148Y-19175D01*
X26148Y-19300D01*
X26148Y-19875D01*
X26148Y-20048D01*
X26148Y-20048D01*
G37*
G54D29*
X26148Y-20048D02*
X25907Y-20048D01*
X25907Y-19310D01*
X25901Y-18960D01*
X25779Y-18663D01*
X25649Y-18596D01*
X25578Y-18666D01*
X25578Y-18525D01*
X25511Y-18395D01*
X25185Y-18267D01*
X24835Y-18273D01*
X24538Y-18395D01*
X24471Y-18525D01*
X25025Y-19079D01*
X25578Y-18525D01*
X25578Y-18666D01*
X25095Y-19150D01*
X25649Y-19703D01*
X25779Y-19636D01*
X25907Y-19310D01*
X25907Y-20048D01*
X25578Y-20048D01*
X25578Y-19774D01*
X25025Y-19220D01*
X24954Y-19291D01*
X24954Y-19150D01*
X24400Y-18596D01*
X24339Y-18628D01*
X24339Y-18040D01*
X24328Y-17807D01*
X24259Y-17641D01*
X24160Y-17609D01*
X24090Y-17680D01*
X24090Y-17539D01*
X24058Y-17440D01*
X23840Y-17360D01*
X23607Y-17371D01*
X23441Y-17440D01*
X23409Y-17539D01*
X23750Y-17879D01*
X24090Y-17539D01*
X24090Y-17680D01*
X23820Y-17950D01*
X24160Y-18290D01*
X24259Y-18258D01*
X24339Y-18040D01*
X24339Y-18628D01*
X24270Y-18663D01*
X24142Y-18989D01*
X24148Y-19339D01*
X24270Y-19636D01*
X24400Y-19703D01*
X24954Y-19150D01*
X24954Y-19291D01*
X24471Y-19774D01*
X24538Y-19904D01*
X24864Y-20032D01*
X25214Y-20026D01*
X25511Y-19904D01*
X25578Y-19774D01*
X25578Y-20048D01*
X24090Y-20048D01*
X24090Y-18360D01*
X23750Y-18020D01*
X23409Y-18360D01*
X23441Y-18459D01*
X23659Y-18539D01*
X23892Y-18528D01*
X24058Y-18459D01*
X24090Y-18360D01*
X24090Y-20048D01*
X17550Y-20048D01*
X17550Y-18525D01*
X17550Y-18412D01*
X17487Y-18350D01*
X17175Y-18350D01*
X17175Y-18762D01*
X17237Y-18825D01*
X17349Y-18825D01*
X17441Y-18787D01*
X17511Y-18716D01*
X17549Y-18624D01*
X17550Y-18525D01*
X17550Y-20048D01*
X11725Y-20048D01*
X11725Y-18412D01*
X11725Y-18000D01*
X11725Y-17900D01*
X11725Y-17487D01*
X11662Y-17425D01*
X11550Y-17424D01*
X11458Y-17462D01*
X11450Y-17471D01*
X11441Y-17462D01*
X11349Y-17424D01*
X11237Y-17425D01*
X11175Y-17487D01*
X11175Y-17900D01*
X11412Y-17900D01*
X11487Y-17900D01*
X11725Y-17900D01*
X11725Y-18000D01*
X11487Y-18000D01*
X11412Y-18000D01*
X11175Y-18000D01*
X11175Y-18412D01*
X11237Y-18475D01*
X11349Y-18475D01*
X11441Y-18437D01*
X11450Y-18428D01*
X11458Y-18437D01*
X11550Y-18475D01*
X11662Y-18475D01*
X11725Y-18412D01*
X11725Y-20048D01*
X8032Y-20048D01*
X8032Y-19285D01*
X8026Y-18935D01*
X7904Y-18638D01*
X7774Y-18571D01*
X7220Y-19125D01*
X7774Y-19678D01*
X7904Y-19611D01*
X8032Y-19285D01*
X8032Y-20048D01*
X7703Y-20048D01*
X7703Y-19749D01*
X7150Y-19195D01*
X7079Y-19266D01*
X6596Y-19749D01*
X6663Y-19879D01*
X6989Y-20007D01*
X7339Y-20001D01*
X7636Y-19879D01*
X7703Y-19749D01*
X7703Y-20048D01*
X6001Y-20048D01*
X6001Y-19975D01*
X6001Y-19300D01*
X6001Y-19250D01*
X6001Y-11511D01*
X6020Y-11529D01*
X6020Y-11529D01*
X6054Y-11552D01*
X6054Y-11645D01*
X6092Y-11736D01*
X6162Y-11807D01*
X6254Y-11845D01*
X6273Y-11845D01*
X6259Y-11889D01*
X6600Y-12229D01*
X6940Y-11889D01*
X6926Y-11845D01*
X6945Y-11845D01*
X7036Y-11807D01*
X7107Y-11737D01*
X7125Y-11694D01*
X7125Y-12028D01*
X7109Y-11991D01*
X7010Y-11959D01*
X6670Y-12300D01*
X6676Y-12305D01*
X6605Y-12376D01*
X6600Y-12370D01*
X6529Y-12441D01*
X6529Y-12300D01*
X6189Y-11959D01*
X6090Y-11991D01*
X6010Y-12209D01*
X6021Y-12442D01*
X6090Y-12608D01*
X6189Y-12640D01*
X6529Y-12300D01*
X6529Y-12441D01*
X6259Y-12710D01*
X6287Y-12796D01*
X6269Y-12804D01*
X6104Y-12968D01*
X6015Y-13183D01*
X6015Y-13415D01*
X6104Y-13630D01*
X6268Y-13795D01*
X6483Y-13884D01*
X6715Y-13884D01*
X6930Y-13795D01*
X7095Y-13631D01*
X7097Y-13625D01*
X8350Y-13625D01*
X8602Y-13625D01*
X8602Y-13878D01*
X8640Y-13970D01*
X8711Y-14040D01*
X8803Y-14078D01*
X8902Y-14079D01*
X9296Y-14079D01*
X9388Y-14041D01*
X9458Y-13970D01*
X9496Y-13878D01*
X9497Y-13779D01*
X9497Y-13662D01*
X9900Y-13662D01*
X9912Y-13691D01*
X9983Y-13761D01*
X10075Y-13799D01*
X10174Y-13800D01*
X10724Y-13800D01*
X10724Y-13799D01*
X10724Y-13847D01*
X10570Y-13847D01*
X10422Y-13908D01*
X10308Y-14021D01*
X10247Y-14169D01*
X10247Y-14329D01*
X10308Y-14477D01*
X10375Y-14544D01*
X10375Y-16555D01*
X10328Y-16508D01*
X10180Y-16447D01*
X10157Y-16447D01*
X9187Y-15478D01*
X9240Y-15499D01*
X9339Y-15500D01*
X9959Y-15500D01*
X10051Y-15462D01*
X10121Y-15391D01*
X10159Y-15299D01*
X10160Y-15200D01*
X10160Y-14300D01*
X10122Y-14208D01*
X10051Y-14138D01*
X9959Y-14100D01*
X9860Y-14099D01*
X9240Y-14099D01*
X9148Y-14137D01*
X9078Y-14208D01*
X9040Y-14300D01*
X9040Y-14316D01*
X8995Y-14250D01*
X8814Y-14128D01*
X8600Y-14086D01*
X8385Y-14128D01*
X8204Y-14250D01*
X8100Y-14405D01*
X7995Y-14250D01*
X7814Y-14128D01*
X7600Y-14086D01*
X7385Y-14128D01*
X7204Y-14250D01*
X7100Y-14405D01*
X7098Y-14399D01*
X6960Y-14228D01*
X6768Y-14123D01*
X6736Y-14116D01*
X6650Y-14165D01*
X6650Y-14750D01*
X6657Y-14750D01*
X6657Y-14850D01*
X6650Y-14850D01*
X6650Y-15434D01*
X6736Y-15483D01*
X6768Y-15476D01*
X6960Y-15371D01*
X7098Y-15200D01*
X7100Y-15194D01*
X7204Y-15349D01*
X7385Y-15471D01*
X7600Y-15513D01*
X7814Y-15471D01*
X7995Y-15349D01*
X8100Y-15194D01*
X8204Y-15349D01*
X8285Y-15404D01*
X8299Y-15474D01*
X8370Y-15579D01*
X9060Y-16270D01*
X9055Y-16275D01*
X7300Y-16275D01*
X7299Y-16275D01*
X7275Y-16279D01*
X7175Y-16299D01*
X7070Y-16370D01*
X7070Y-16370D01*
X6550Y-16890D01*
X6550Y-15434D01*
X6550Y-14850D01*
X6550Y-14750D01*
X6550Y-14165D01*
X6463Y-14116D01*
X6431Y-14123D01*
X6239Y-14228D01*
X6101Y-14399D01*
X6040Y-14610D01*
X6040Y-14750D01*
X6550Y-14750D01*
X6550Y-14850D01*
X6040Y-14850D01*
X6040Y-14990D01*
X6101Y-15200D01*
X6239Y-15371D01*
X6431Y-15476D01*
X6463Y-15483D01*
X6550Y-15434D01*
X6550Y-16890D01*
X6370Y-17070D01*
X6299Y-17175D01*
X6297Y-17187D01*
X6297Y-17187D01*
X6204Y-17250D01*
X6082Y-17431D01*
X6040Y-17646D01*
X6040Y-17953D01*
X6082Y-18168D01*
X6204Y-18349D01*
X6385Y-18471D01*
X6511Y-18496D01*
X6480Y-18526D01*
X6525Y-18571D01*
X6395Y-18638D01*
X6267Y-18964D01*
X6273Y-19314D01*
X6395Y-19611D01*
X6525Y-19678D01*
X7079Y-19125D01*
X7073Y-19119D01*
X7144Y-19048D01*
X7150Y-19054D01*
X7703Y-18500D01*
X7700Y-18493D01*
X7814Y-18471D01*
X7995Y-18349D01*
X8099Y-18194D01*
X8101Y-18200D01*
X8239Y-18371D01*
X8431Y-18476D01*
X8463Y-18483D01*
X8550Y-18434D01*
X8550Y-17850D01*
X8542Y-17850D01*
X8542Y-17750D01*
X8550Y-17750D01*
X8550Y-17165D01*
X8463Y-17116D01*
X8431Y-17123D01*
X8239Y-17228D01*
X8101Y-17399D01*
X8099Y-17405D01*
X7995Y-17250D01*
X7814Y-17128D01*
X7600Y-17086D01*
X7385Y-17128D01*
X7204Y-17250D01*
X7100Y-17405D01*
X7041Y-17318D01*
X7434Y-16925D01*
X9055Y-16925D01*
X9071Y-16941D01*
X9219Y-17002D01*
X9379Y-17002D01*
X9527Y-16941D01*
X9629Y-16839D01*
X9697Y-16907D01*
X9697Y-16929D01*
X9758Y-17077D01*
X9808Y-17127D01*
X9600Y-17086D01*
X9385Y-17128D01*
X9204Y-17250D01*
X9100Y-17405D01*
X9098Y-17399D01*
X8960Y-17228D01*
X8768Y-17123D01*
X8736Y-17116D01*
X8650Y-17165D01*
X8650Y-17750D01*
X8657Y-17750D01*
X8657Y-17850D01*
X8650Y-17850D01*
X8650Y-18434D01*
X8736Y-18483D01*
X8768Y-18476D01*
X8960Y-18371D01*
X9098Y-18200D01*
X9100Y-18194D01*
X9204Y-18349D01*
X9385Y-18471D01*
X9600Y-18513D01*
X9814Y-18471D01*
X9984Y-18357D01*
X9987Y-18366D01*
X10058Y-18436D01*
X10150Y-18474D01*
X10249Y-18475D01*
X10599Y-18475D01*
X10691Y-18437D01*
X10750Y-18378D01*
X10808Y-18437D01*
X10900Y-18475D01*
X11012Y-18475D01*
X11075Y-18412D01*
X11075Y-18000D01*
X11067Y-18000D01*
X11067Y-17900D01*
X11075Y-17900D01*
X11075Y-17487D01*
X11012Y-17425D01*
X10900Y-17424D01*
X10873Y-17436D01*
X10929Y-17379D01*
X10929Y-17379D01*
X10929Y-17379D01*
X10972Y-17316D01*
X11000Y-17274D01*
X11000Y-17274D01*
X11025Y-17150D01*
X11025Y-16803D01*
X11058Y-16837D01*
X11150Y-16875D01*
X11262Y-16875D01*
X11325Y-16812D01*
X11325Y-16400D01*
X11317Y-16400D01*
X11317Y-16300D01*
X11325Y-16300D01*
X11325Y-15887D01*
X11262Y-15825D01*
X11150Y-15824D01*
X11058Y-15862D01*
X11025Y-15896D01*
X11025Y-15134D01*
X11470Y-15579D01*
X11504Y-15602D01*
X11497Y-15619D01*
X11497Y-15779D01*
X11516Y-15824D01*
X11487Y-15825D01*
X11425Y-15887D01*
X11425Y-16300D01*
X11432Y-16300D01*
X11432Y-16400D01*
X11425Y-16400D01*
X11425Y-16812D01*
X11487Y-16875D01*
X11599Y-16875D01*
X11691Y-16837D01*
X11750Y-16778D01*
X11800Y-16829D01*
X11824Y-16949D01*
X11847Y-16983D01*
X11847Y-16983D01*
X11847Y-17029D01*
X11908Y-17177D01*
X12021Y-17291D01*
X12169Y-17352D01*
X12329Y-17352D01*
X12477Y-17291D01*
X12591Y-17178D01*
X12652Y-17030D01*
X12652Y-16870D01*
X12591Y-16722D01*
X12548Y-16678D01*
X12549Y-16674D01*
X12549Y-16650D01*
X12650Y-16650D01*
X12650Y-16649D01*
X12764Y-16627D01*
X12764Y-16627D01*
X12862Y-16562D01*
X13049Y-16375D01*
X13068Y-16346D01*
X13068Y-16361D01*
X13068Y-16363D01*
X13068Y-16862D01*
X13058Y-16871D01*
X12997Y-17019D01*
X12997Y-17179D01*
X13058Y-17327D01*
X13153Y-17423D01*
X13110Y-17441D01*
X12942Y-17608D01*
X12912Y-17533D01*
X12841Y-17463D01*
X12749Y-17425D01*
X12650Y-17424D01*
X12300Y-17424D01*
X12208Y-17462D01*
X12150Y-17521D01*
X12091Y-17462D01*
X11999Y-17424D01*
X11887Y-17425D01*
X11825Y-17487D01*
X11825Y-17900D01*
X11832Y-17900D01*
X11832Y-18000D01*
X11825Y-18000D01*
X11825Y-18412D01*
X11887Y-18475D01*
X11999Y-18475D01*
X12091Y-18437D01*
X12150Y-18378D01*
X12208Y-18436D01*
X12300Y-18474D01*
X12399Y-18475D01*
X12749Y-18475D01*
X12841Y-18437D01*
X12911Y-18366D01*
X12943Y-18291D01*
X13109Y-18458D01*
X13330Y-18549D01*
X13568Y-18550D01*
X13789Y-18458D01*
X13795Y-18452D01*
X13850Y-18474D01*
X13949Y-18475D01*
X14299Y-18475D01*
X14391Y-18437D01*
X14450Y-18378D01*
X14508Y-18436D01*
X14600Y-18474D01*
X14699Y-18475D01*
X15049Y-18475D01*
X15103Y-18452D01*
X15109Y-18458D01*
X15330Y-18549D01*
X15568Y-18550D01*
X15588Y-18542D01*
X15675Y-18600D01*
X15675Y-18600D01*
X15775Y-18620D01*
X15799Y-18625D01*
X15799Y-18624D01*
X15800Y-18625D01*
X15950Y-18625D01*
X15987Y-18716D01*
X16058Y-18786D01*
X16150Y-18824D01*
X16249Y-18825D01*
X16599Y-18825D01*
X16691Y-18787D01*
X16750Y-18728D01*
X16808Y-18787D01*
X16900Y-18825D01*
X17012Y-18825D01*
X17075Y-18762D01*
X17075Y-18350D01*
X17067Y-18350D01*
X17067Y-18250D01*
X17075Y-18250D01*
X17075Y-18242D01*
X17175Y-18242D01*
X17175Y-18250D01*
X17487Y-18250D01*
X17550Y-18187D01*
X17550Y-18074D01*
X17550Y-18025D01*
X17849Y-18025D01*
X17884Y-18010D01*
X17884Y-18314D01*
X17922Y-18406D01*
X17993Y-18476D01*
X18085Y-18514D01*
X18125Y-18514D01*
X18125Y-18546D01*
X18063Y-18608D01*
X18025Y-18700D01*
X18024Y-18799D01*
X18024Y-19349D01*
X18062Y-19441D01*
X18133Y-19511D01*
X18225Y-19549D01*
X18324Y-19550D01*
X18674Y-19550D01*
X18766Y-19512D01*
X18825Y-19453D01*
X18883Y-19511D01*
X18975Y-19549D01*
X19074Y-19550D01*
X19424Y-19550D01*
X19516Y-19512D01*
X19586Y-19441D01*
X19624Y-19350D01*
X21675Y-19350D01*
X21799Y-19325D01*
X21799Y-19325D01*
X21904Y-19254D01*
X22664Y-18495D01*
X23095Y-18495D01*
X23186Y-18457D01*
X23257Y-18387D01*
X23295Y-18295D01*
X23295Y-18276D01*
X23339Y-18290D01*
X23679Y-17950D01*
X23339Y-17609D01*
X23295Y-17623D01*
X23295Y-17604D01*
X23257Y-17513D01*
X23202Y-17457D01*
X23434Y-17225D01*
X25025Y-17225D01*
X25149Y-17200D01*
X25149Y-17200D01*
X25254Y-17129D01*
X26029Y-16354D01*
X26029Y-16354D01*
X26029Y-16354D01*
X26100Y-16249D01*
X26100Y-16249D01*
X26125Y-16125D01*
X26125Y-13325D01*
X26100Y-13200D01*
X26100Y-13200D01*
X26029Y-13095D01*
X26029Y-13095D01*
X25798Y-12863D01*
X25693Y-12793D01*
X25568Y-12768D01*
X25557Y-12768D01*
X25552Y-12755D01*
X25496Y-12699D01*
X25551Y-12644D01*
X25590Y-12553D01*
X25590Y-12453D01*
X25590Y-12059D01*
X25552Y-11968D01*
X25496Y-11912D01*
X25551Y-11857D01*
X25590Y-11765D01*
X25590Y-11666D01*
X25590Y-11272D01*
X25552Y-11180D01*
X25496Y-11125D01*
X25551Y-11070D01*
X25590Y-10978D01*
X25590Y-10878D01*
X25590Y-10485D01*
X25552Y-10393D01*
X25496Y-10337D01*
X25551Y-10282D01*
X25590Y-10190D01*
X25590Y-10150D01*
X26148Y-10150D01*
X26148Y-19175D01*
X26148Y-19300D01*
X26148Y-19875D01*
X26148Y-20048D01*
M02*
